<?xml version="1.0" encoding="utf-8"?>
<!-- Generator: Adobe Illustrator 18.1.1, SVG Export Plug-In . SVG Version: 6.00 Build 0)  -->
<svg version="1.1" id="Layer_1" xmlns="http://www.w3.org/2000/svg" xmlns:xlink="http://www.w3.org/1999/xlink" x="0px" y="0px"
	 viewBox="0 298 776 188.7" enable-background="new 0 298 776 188.7" xml:space="preserve">
<g>
	<g>
		<g>
			<g>
				<g>
					<path fill="#277D42" d="M102.3,347c0-22.5,18.3-40.7,41-40.7c22.6,0,40.9,18.2,40.9,40.7c0,22.5-18.3,40.7-40.9,40.7h-41V347z"
						/>
				</g>
			</g>
			<g>
				<g>
					<path fill="#277D42" d="M102.3,399.2h41c22.5,0,40.9,18.3,40.9,40.7c0,22.5-18.3,40.8-40.9,40.8c-22.7,0-41-18.2-41-40.8V399.2
						z"/>
				</g>
			</g>
			<g>
				<g>
					<path fill="#277D42" d="M77.8,411.8V440c0,15.5-12.7,28.2-28.4,28.2c-15.6,0-28.3-12.6-28.3-28.2c0-15.5,12.7-28.1,28.3-28.1
						H77.8 M90.4,399.2h-41c-22.5,0-40.9,18.3-40.9,40.7c0,22.5,18.2,40.8,40.9,40.8c22.7,0,41-18.2,41-40.8V399.2L90.4,399.2z"/>
				</g>
			</g>
			<g>
				<g>
					<path fill="#277D42" d="M90.4,387.7h-41c-22.5,0-40.9-18.3-40.9-40.7c0-22.5,18.2-40.7,40.9-40.7c22.7,0,41,18.2,41,40.7V387.7
						z"/>
				</g>
			</g>
		</g>
		<g>
			<g>
				<path fill="#231F20" d="M438.3,454.6c-30.9,0-56.1-24.1-56.1-53.8c0-29.7,25.1-53.8,56.1-53.8c30.9,0,56.1,24.1,56.1,53.8
					C494.4,430.5,469.2,454.6,438.3,454.6z M438.3,372.2c-17,0-30.9,12.8-30.9,28.6c0,15.8,13.8,28.6,30.9,28.6
					c17,0,30.9-12.8,30.9-28.6C469.2,385.1,455.3,372.2,438.3,372.2z"/>
			</g>
		</g>
		<g>
			<g>
				<rect x="344.1" y="306.5" fill="#231F20" width="25.2" height="144.6"/>
			</g>
		</g>
		<g>
			<g>
				<path fill="#231F20" d="M741.8,451h-25.2v-59.8c-0.1-2.9,0.2-18.5,11.9-30.7c8.6-9,20.7-13.5,36.1-13.5v25.2
					c-8.1,0-14.1,1.9-17.8,5.6c-5.1,5.1-5,12.8-5,12.9l0,0.4l0-0.1V451z"/>
			</g>
		</g>
		<g>
			<g>
				<path fill="#231F20" d="M283,429.4c-17,0-30.9-12.8-30.9-28.6c0-15.8,13.9-28.6,30.9-28.6c11.4,0,21.3,5.7,26.7,14.2l20.9-14.1
					C320.6,357.2,303,347,283,347c-30.9,0-56.1,24.1-56.1,53.8c0,29.7,25.2,53.8,56.1,53.8c20.6,0,38.5-10.7,48.3-26.5l-20.5-15
					C305.9,422.7,295.3,429.4,283,429.4z"/>
			</g>
		</g>
		<g>
			<g>
				<polygon fill="#231F20" points="546.6,399.5 519.8,348.2 491.4,348.2 546.4,453.4 602.7,348.2 574.2,348.2 				"/>
			</g>
		</g>
		<g>
			<g>
				<path fill="#231F20" d="M650.4,429.4c-13.2,0-24.5-7.7-28.9-18.6h57.8l26.1,0c0.7-3.4,1.1-6.4,1.1-10
					c0-29.7-25.1-53.8-56.1-53.8c-30.9,0-56.1,24.1-56.1,53.8c0,29.7,25.2,53.8,56.1,53.8c16.5,0,31.4-6.9,41.7-17.8l-17.2-18.6
					C669.3,425,660.4,429.4,650.4,429.4z M650.4,372.2c11,0,20.7,5.4,26.1,13.4h-52.2C629.8,377.6,639.4,372.2,650.4,372.2z"/>
			</g>
		</g>
	</g>
</g>
</svg>
