<?xml version="1.0" encoding="utf-8"?>
<!-- Generator: Adobe Illustrator 18.1.1, SVG Export Plug-In . SVG Version: 6.00 Build 0)  -->
<svg version="1.1" id="Layer_1" xmlns="http://www.w3.org/2000/svg" xmlns:xlink="http://www.w3.org/1999/xlink" x="0px" y="0px"
	 viewBox="0 0 242.3 51" enable-background="new 0 0 242.3 51" xml:space="preserve">
<g>
	<path fill="#B42026" d="M226.1,17.9c0-1.5,0-3,0-4.5c0-0.9-0.4-1.4-1.3-1.4c-1.9,0-3.7,0-5.6,0c-0.9,0-1.3,0.5-1.3,1.4
		c0,3,0,6.1,0,9.1c0,0.9,0.4,1.4,1.3,1.4c1.9,0,3.7,0,5.6,0c0.9,0,1.4-0.5,1.3-1.5C226.1,20.9,226.1,19.4,226.1,17.9 M239.3,24
		c-1.5,3.2-4.3,4.1-7.6,4.2c-4,0.1-8,0.1-11.9,0.1c-0.6,0-1.2,0-2,0v7.1h-13.3V7.8c0.5,0,0.8-0.1,1.2-0.1c8.5,0,17,0,25.5,0
		c0.9,0,1.7,0.1,2.6,0.2c2.5,0.4,4.4,1.7,5.5,4V24z"/>
	<path d="M22.8,18.2c0-1.5,0-3,0-4.4c0-1.2-0.4-1.7-1.6-1.7c-1.8,0-3.7,0-5.5,0c-1.2,0-1.6,0.5-1.6,1.7c0,2.9,0,5.9,0,8.8
		c0,1.2,0.4,1.7,1.6,1.7c1.8,0,3.7,0,5.5,0c1.2,0,1.6-0.5,1.6-1.7C22.8,21.1,22.8,19.6,22.8,18.2 M35.7,0.7v20.4V28
		c-0.3,0.1-0.4,0.1-0.6,0.1c-9,0-18,0-27.1,0c-0.8,0-1.5-0.2-2.2-0.3c-3.1-0.8-4.6-2.7-4.6-5.9c0-2.6,0-5.1,0-7.7
		c0-3.1,1.5-5.2,4.6-5.7c2.4-0.4,4.9-0.4,7.3-0.5c3-0.1,5.9-0.1,8.9-0.1c0.2,0,0.5,0,0.8-0.1V0.7H35.7z"/>
	<path fill="#B42026" d="M184.4,18.6C184.4,18.6,184.4,18.6,184.4,18.6c-1.2,0-2.3,0.1-3.5,0.1c-0.9,0.1-1.3,0.5-1.3,1.4
		c0,0.8,0,1.5,0,2.3c0,0.9,0.4,1.5,1.3,1.5c1.9,0.1,3.7,0,5.6,0c0.8,0,1.2-0.5,1.3-1.2c0.1-1.1,0-2.2,0.1-3.3c0-0.7-0.3-0.8-0.9-0.8
		C186.1,18.6,185.3,18.6,184.4,18.6 M168,12V7.9h1.1c7.8,0,15.7,0,23.5,0c1.5,0,3,0.2,4.5,0.6c2.5,0.6,4.2,2.3,4.3,4.9
		c0.2,5,0.1,9.9,0.1,14.9c-0.3,0-0.4,0.1-0.6,0.1c-9.4,0-18.9,0-28.3,0c-1,0-1.9-0.2-2.9-0.4c-2.4-0.6-3.5-1.9-3.8-4.3
		c-0.1-1.4-0.2-2.8,0-4.2c0.3-2.8,1.6-4.2,4.4-4.7c0.9-0.2,1.9-0.2,2.8-0.2c4,0,8,0,12,0c0.5,0,1.1,0,1.7-0.1c0.6,0,1.1-0.3,1.1-1
		c0-0.8-0.4-1.1-1.1-1.1c-2-0.1-4-0.1-6-0.1c-3.9,0-7.8-0.1-11.7-0.1C168.7,12,168.4,12,168,12"/>
	<path d="M119.3,18.6c-2.5,0-4.9,0-7.4,0c-0.8,0-1.2,0.6-1.2,1.4c0,0.8,0,1.6,0,2.4c-0.1,1,0.4,1.6,1.4,1.7c1.9,0.1,3.9,0.1,5.8,0
		c0.8,0,1.4-0.5,1.4-1.4C119.3,21.4,119.3,20,119.3,18.6 M99.6,11.8V8h1.2c7.7,0,15.4,0,23,0c1.2,0,2.5,0.1,3.7,0.3
		c3.5,0.7,5.2,2.7,5.3,6.3c0.1,4.2,0,8.4,0,12.7c0,0.6-0.2,0.9-0.9,0.9c-9.3,0-18.6,0-27.9-0.1c-0.7,0-1.4-0.1-2.1-0.2
		c-2.9-0.5-4.3-1.8-4.5-4.8c-0.1-1.5,0-3,0.1-4.4c0.2-1.9,1.3-3.1,3.1-3.6c1.3-0.3,2.7-0.5,4-0.5c4.4-0.1,8.8-0.1,13.3-0.1
		c0.6,0,1.3,0,1.5-0.8c0.2-0.9-0.2-1.5-1.2-1.6c-1.9-0.1-3.7-0.1-5.6-0.1c-4,0-8,0-11.9-0.1C100.3,11.9,100,11.9,99.6,11.8"/>
	<path d="M60.4,18.6c-2.5,0-4.9,0-7.4,0c-0.8,0-1.2,0.6-1.2,1.4c0,0.8,0,1.6,0,2.4c0,1,0.5,1.6,1.5,1.6c1.9,0.1,3.9,0.1,5.8,0
		c0.8,0,1.3-0.5,1.4-1.4C60.5,21.4,60.4,20,60.4,18.6 M40.7,11.8V8h1.2c7.7,0,15.3,0,23,0c1.3,0,2.6,0.1,3.9,0.4
		c2.8,0.5,4.8,2.2,4.9,5.1c0.2,4.9,0.1,9.7,0.1,14.6c-0.2,0-0.4,0.1-0.6,0.1c-9.4,0-18.8,0-28.2,0c-0.3,0-0.5,0-0.8,0
		c-4-0.3-5.7-2.1-5.7-6.1c0-1.1,0-2.1,0.2-3.2c0.3-1.8,1.3-3.2,3.1-3.6c1.3-0.3,2.6-0.5,4-0.6c4.4-0.1,8.8-0.1,13.2-0.1
		c0.3,0,0.6,0,0.8-0.1c0.3-0.3,0.8-0.7,0.8-1.1c0-0.4-0.4-0.9-0.8-1.1C59.2,12,58.6,12,58,12c-5.5,0-10.9-0.1-16.4-0.1
		C41.4,11.9,41.1,11.9,40.7,11.8"/>
	<path fill="#B42026" d="M164.7,24v4.3c-0.4,0-0.7,0.1-1.1,0.1c-6.7,0-13.4,0-20.1,0c-1.5,0-3-0.2-4.5-0.7c-2.5-0.7-3.8-2.7-3.9-5.3
		c0-2.8-0.1-5.7,0-8.5c0.1-3.1,2.1-5.1,5.6-5.8c0.8-0.1,1.6-0.2,2.4-0.2c6.9,0,13.7,0,20.6,0c0.3,0,0.6,0,1,0.1v4.2h-1.2
		c-4,0-8,0-12,0c-0.5,0-1,0.1-1.5,0.1c-0.9,0.1-1.4,0.7-1.4,1.6c0,2.8,0,5.6,0,8.4c0,1,0.6,1.5,1.5,1.7c0.6,0.1,1.2,0.1,1.8,0.1
		c3.9,0,7.7,0,11.6,0H164.7z"/>
	<path d="M95.5,24.2v4c-1.7,0-3.3,0-4.9,0c-2.9-0.1-5.7,0-8.6-0.3c-3.1-0.4-4.8-2.5-4.8-5.6c-0.1-5.9,0-11.8,0-17.7
		c0-0.2,0-0.3,0.1-0.7H90V8h5.4v4h-5.3v1.2v9.3c0,1.2,0.3,1.6,1.5,1.6C92.8,24.2,94.1,24.2,95.5,24.2"/>
	<path d="M96.2,45.7h-5.8V34h1.1h24.6c0.4,0,0.8,0,1.2,0c2.2,0.2,3,1.2,3,3.4v8.4h-5.7c0-2.4,0-4.8,0-7.1c0-2.9,0.4-2.8-2.8-2.8
		c-0.8,0-1.5,0-2.3,0c-0.9,0-1.3,0.3-1.3,1.3c0.1,2.5,0.1,5,0.1,7.5c0,0.4,0,0.7,0,1.2h-5.9V44c0-2.4,0-4.8,0-7.1
		c0-0.8-0.4-1.1-1.1-1.1c-1.4,0-2.8,0-4.1,0c-0.8,0-1.1,0.3-1.1,1.1C96.3,39.9,96.2,42.8,96.2,45.7"/>
	<path d="M21,50.3v-1.9h4.4c1.8,0,3.5,0,5.3,0c1.7,0,1.9-0.2,1.8-1.9c0-0.2,0-0.4-0.1-0.7c-2.7,0-5.4,0-8.1,0
		c-0.8,0-1.5-0.1-2.2-0.3c-1.1-0.3-1.8-1.1-1.8-2.3c0-3,0-6.1,0-9.2h5.6v1.1c0,2.5,0,5,0,7.6c0,1,0.4,1.3,1.3,1.3
		c1.3-0.1,2.6,0,3.8,0c1.4,0,1.5-0.1,1.5-1.4V34h5.6c0,0.3,0.1,0.6,0.1,0.9c0,3.9,0,7.7,0,11.6c0,2.7-1.1,3.8-3.8,3.8
		c-4.1,0-8.1,0-12.2,0H21z"/>
	<path d="M122.8,45.7c0-0.6,0.1-1.1,0.1-1.7h1.2c3,0,6,0,9,0c0.7,0,1.4-0.1,1.4-1.1c0-1-0.7-1.1-1.4-1.1c-2.4,0-4.8,0-7.2,0
		c-2.6,0-3.6-1-3.6-3.6c0-3.6,0.7-4.3,4.3-4.3h12.4v1.8H138c-3,0-5.9,0-8.9,0c-0.7,0-1.3,0-1.3,0.9c0,0.9,0.6,1,1.3,1
		c2.4,0,4.8,0,7.1,0c0.7,0,1.4,0.1,2,0.3c1.1,0.3,1.7,1.1,1.7,2.2c0,1,0,2,0,3c0,1.2-0.6,1.9-1.8,2.3c-0.6,0.2-1.3,0.3-1.9,0.3
		c-4.3,0-8.6,0-12.8,0C123.3,45.8,123.1,45.8,122.8,45.7"/>
	<path d="M40.2,45.7V44h1.1c2.9,0,5.8,0,8.7,0c0.7,0,1.7,0.2,1.7-1.1c0-1.3-0.9-1.1-1.7-1.1c-2.3,0-4.6,0-6.9,0
		c-2.5,0-3.5-1-3.5-3.5c0-3.6,0.7-4.3,4.4-4.3h11.3h1.1v1.8h-1.1c-3,0-5.9,0-8.9,0c-0.6,0-1.2,0-1.2,0.9c0,0.9,0.5,1,1.2,1
		c2.4,0,4.8,0,7.3,0c0.6,0,1.3,0.1,1.8,0.2c1.2,0.3,1.8,1.1,1.8,2.4c0,0.9,0,1.9,0,2.8c0,1.3-0.6,2-1.8,2.3c-0.7,0.2-1.4,0.3-2,0.3
		c-4.2,0-8.5,0-12.7,0C40.5,45.8,40.4,45.8,40.2,45.7"/>
	<path d="M83.1,39.1c0-0.8,0-1.5,0-2.2c0-0.6-0.3-1-0.9-1c-1.7,0-3.3,0-5,0c-0.3,0-0.8,0.4-0.8,0.6c-0.1,0.8,0,1.7,0,2.6H83.1z
		 M88.2,43.9v1.9h-1c-4.1,0-8.3,0-12.4,0c-0.5,0-1,0-1.4-0.1c-1.7-0.2-2.6-1.1-2.7-2.8c-0.1-2.1-0.1-4.1,0-6.2
		c0.1-1.6,0.8-2.4,2.5-2.7c0.5-0.1,1-0.1,1.5-0.1c3.3,0,6.6,0,9.9,0c0.6,0,1.2,0.1,1.9,0.2c1.3,0.3,2,1,2.1,2.3c0.1,1.5,0,3,0,4.5
		H76.3c0,0.8-0.1,1.6,0.1,2.3c0.1,0.3,0.7,0.6,1.2,0.6c3,0.1,5.9,0,8.9,0H88.2z"/>
	<path d="M1.7,45.7V44h1.1c3,0,6,0,9,0c0.6,0,1.2,0,1.4-0.7c0.2-0.9-0.2-1.4-1.2-1.4c-2.4,0-4.8,0-7.2,0c-2.8,0-3.7-0.9-3.7-3.7
		c0-3.4,0.7-4.1,4.1-4.1h11.4h1.2v1.8h-4.6c-1.7,0-3.4,0-5.1,0c-0.7,0-1.6-0.3-1.6,0.9c0,1.3,0.9,1,1.6,1c2.2,0,4.5,0,6.7,0
		c0.7,0,1.3,0.1,1.9,0.3c1.2,0.3,1.7,1.1,1.8,2.4c0,1,0,1.9,0,2.9c0,1.2-0.6,1.9-1.7,2.3c-0.4,0.1-0.7,0.2-1.1,0.2
		C11.2,45.7,6.5,45.7,1.7,45.7"/>
	<path d="M178.6,45.8H173v-1.1c0-2.5,0-5.1,0-7.6c0-1-0.4-1.3-1.3-1.3c-1.3,0-2.7,0-4,0c-1,0-1.3,0.4-1.3,1.4c0.1,2.8,0,5.7,0,8.5
		h-5.5V34h1c4.2,0,8.4,0,12.6,0c0.5,0,0.9,0,1.3,0.1c2,0.3,2.8,1.2,2.8,3.2C178.6,40,178.6,42.8,178.6,45.8"/>
	<path d="M195.3,34v1.8c-0.4,0-0.7,0.1-1.1,0.1c-2.4,0-4.8,0-7.3,0c-1.3,0-1.4,0.1-1.5,1.4c0,1.8,0,3.7,0,5.5c0,0.9,0.4,1.2,1.2,1.2
		c2.5,0,4.9,0,7.4,0h1.2v1.8c-0.3,0-0.6,0.1-1,0.1c-3.4,0-6.8,0-10.3,0c-0.5,0-1,0-1.4-0.1c-1.6-0.2-2.6-1-2.7-2.6
		c-0.1-2.1-0.1-4.3,0-6.4c0.1-1.7,0.9-2.6,2.7-2.6C186.8,33.9,191,34,195.3,34"/>
	<path d="M59.8,32h5.6v1.9h2.9v1.8h-2.9c0,2.5,0,4.9,0.1,7.2c0,0.3,0.6,0.8,1,0.9c0.5,0.2,1.1,0,1.8,0v2c-2.1-0.1-4.3-0.1-6.3-0.3
		c-1.3-0.1-2.1-1.2-2.1-2.5C59.7,39.4,59.8,35.7,59.8,32"/>
	<rect x="153.2" y="34" width="5.5" height="11.7"/>
	<path d="M147.1,42.4c0.4,3.9-1.3,5.9-4.9,5.5c0.4-0.7,0.8-1.3,1.2-2.1c-0.8,0-1.4-0.1-2.2-0.1v-3.3h3H147.1z"/>
	<rect x="197.1" y="42.5" width="6" height="3.2"/>
	<rect x="153.3" y="30.1" width="5.3" height="2.7"/>
</g>
</svg>
