<?xml version="1.0" encoding="utf-8"?>
<!-- Generator: Adobe Illustrator 21.0.0, SVG Export Plug-In . SVG Version: 6.00 Build 0)  -->
<svg version="1.1" id="Layer_1" xmlns="http://www.w3.org/2000/svg" xmlns:xlink="http://www.w3.org/1999/xlink" x="0px" y="0px"
	 viewBox="0 0 99.1 23" style="enable-background:new 0 0 99.1 23;" xml:space="preserve">
<style type="text/css">
	.st0{fill:#5F6262;}
	.st1{fill:#0B5DAA;}
	.st2{fill:#E21E27;}
</style>
<g>
	<path class="st0" d="M5.9,2.5v12h1.8c1.1,0,1.9-0.3,2.3-0.9c0.5-0.6,0.7-1.5,0.7-2.7V6c0-1.3-0.2-2.2-0.6-2.7
		C9.7,2.7,9,2.5,7.9,2.5H5.9z M2.6,14.5v-12H1.2V1.9h7.3c1.7,0,3.1,0.6,4.3,1.9c1.2,1.3,1.8,2.8,1.8,4.6c0,2.1-0.7,3.8-2,4.9
		c-1.3,1.2-3,1.7-5.2,1.7H7H1.2v-0.6H2.6z"/>
	<path class="st0" d="M29.9,7.2v6.2c0,1.9-0.4,3.4-1.1,4.4c-0.7,1-1.7,1.5-2.8,1.5c-0.5,0-0.9-0.1-1.3-0.4c-0.4-0.2-0.5-0.6-0.5-1
		c0-0.3,0.1-0.5,0.3-0.8c0.2-0.2,0.5-0.3,0.8-0.3c0.3,0,0.5,0.1,0.7,0.2c0.2,0.2,0.3,0.4,0.3,0.6c0,0.1,0,0.3,0,0.4
		c0,0.1,0,0.2,0,0.3c0,0.1,0,0.2,0.1,0.3c0.1,0.1,0.2,0.1,0.3,0.1s0.3-0.1,0.4-0.4c0.1-0.3,0.1-0.8,0.1-1.4V7.8h-1.4V7.2h1.6
		C28.4,7.2,29.2,7.2,29.9,7.2"/>
	<path class="st0" d="M36.8,11.1c-1.7,0.1-2.5,0.6-2.5,1.5c0,0.4,0.1,0.8,0.3,1.1c0.2,0.3,0.5,0.4,0.8,0.4c0.4,0,0.7-0.1,1-0.3
		c0.2-0.2,0.4-0.5,0.4-0.8V11.1z M36.8,10.6V8.8c0-0.5-0.1-0.8-0.3-1c-0.2-0.2-0.5-0.3-1.1-0.3c-0.3,0-0.5,0-0.7,0.1
		c-0.2,0.1-0.3,0.2-0.3,0.3c0,0.1,0.1,0.2,0.2,0.4c0.1,0.2,0.2,0.4,0.2,0.7c0,0.4-0.1,0.7-0.3,0.9c-0.2,0.2-0.5,0.3-0.9,0.3
		c-0.4,0-0.7-0.1-0.9-0.3c-0.2-0.2-0.4-0.5-0.4-0.8c0-0.6,0.3-1.1,1-1.5c0.7-0.4,1.5-0.6,2.5-0.6c0.9,0,1.8,0.1,2.4,0.4
		c0.7,0.2,1,0.6,1,0.9v4.8c0,0.6,0.2,0.9,0.6,0.9c0.2,0,0.3-0.1,0.5-0.3l0.3,0.4c-0.5,0.7-1.2,1.1-2,1.1c-0.9,0-1.5-0.5-1.8-1.4
		c-0.3,0.4-0.8,0.8-1.3,1c-0.5,0.2-1,0.4-1.4,0.4c-0.7,0-1.2-0.2-1.7-0.5c-0.4-0.3-0.7-0.8-0.7-1.3c0-0.9,0.5-1.6,1.4-2.1
		C34.1,10.9,35.3,10.6,36.8,10.6"/>
	<path class="st0" d="M50,7.8h-0.6c-0.3,0-0.5,0.2-0.7,0.6l-3,6.9h-0.5l-3.7-7.5h-0.8V7.3h4.7v0.6h-1.1l2.1,4.6l1.7-4
		c0.1-0.2,0.1-0.3,0.1-0.4c0-0.2-0.1-0.3-0.4-0.3h-1V7.3H50V7.8z"/>
	<path class="st0" d="M52.5,13.3c0,0.5,0.1,0.9,0.4,1.1c0.3,0.2,0.7,0.4,1.2,0.4c0.5,0,0.8-0.1,1.1-0.3c0.3-0.2,0.4-0.6,0.4-1.1V9
		c0-0.6-0.1-1-0.3-1.2c-0.2-0.2-0.6-0.3-1.2-0.3c-0.6,0-1,0.1-1.3,0.3c-0.2,0.2-0.3,0.6-0.3,1.2V13.3z M49.4,11.3
		c0-1.2,0.5-2.2,1.4-3c0.9-0.8,2.1-1.2,3.3-1.2c1.3,0,2.4,0.4,3.3,1.2c0.9,0.8,1.4,1.8,1.4,3c0,1.3-0.5,2.3-1.4,3
		c-0.9,0.7-2,1.1-3.3,1.1c-1.4,0-2.5-0.4-3.4-1.2C49.8,13.3,49.4,12.4,49.4,11.3"/>
	<path class="st0" d="M63.1,13.3c0,0.5,0.1,0.9,0.4,1.1c0.3,0.2,0.7,0.4,1.2,0.4c0.5,0,0.8-0.1,1.1-0.3c0.3-0.2,0.4-0.6,0.4-1.1V9
		c0-0.6-0.1-1-0.3-1.2c-0.2-0.2-0.6-0.3-1.2-0.3c-0.6,0-1,0.1-1.3,0.3c-0.2,0.2-0.3,0.6-0.3,1.2V13.3z M59.9,11.3
		c0-1.2,0.5-2.2,1.4-3c0.9-0.8,2.1-1.2,3.3-1.2c1.3,0,2.4,0.4,3.3,1.2c0.9,0.8,1.4,1.8,1.4,3c0,1.3-0.5,2.3-1.4,3
		c-0.9,0.7-2,1.1-3.3,1.1c-1.4,0-2.5-0.4-3.4-1.2C60.3,13.3,59.9,12.4,59.9,11.3"/>
	<path class="st1" d="M21.8,7.8c0-0.8-0.5-1.2-1.5-1.2c-0.7,0-1.4,0.3-2.1,1c-0.6,0.7-1,1.5-1.2,2.5c0.3,0.1,0.5,0.1,0.7,0.1
		c0.9,0,1.9-0.2,2.7-0.7C21.4,9.1,21.8,8.6,21.8,7.8 M23.4,6.7c0,0.9-0.6,1.9-1.8,2.8c-1.2,1-2.7,1.6-4.6,1.9c0.2,1.6,1,2.4,2.5,2.4
		c0.7,0,1.4-0.2,2.1-0.6c0.7-0.4,1.2-0.9,1.6-1.6c0.2,0.2,0.3,0.3,0.3,0.4c0,0.4-0.6,1-1.8,1.8c-1.2,0.8-2.3,1.3-3.5,1.3
		c-0.9,0-1.6-0.3-2.2-0.8c-0.6-0.5-0.9-1.2-0.9-2.1c0-1.6,0.8-3.2,2.3-4.7c1.5-1.5,3-2.2,4.4-2.2C22.9,5.4,23.4,5.8,23.4,6.7"/>
	<path class="st0" d="M33.2,18.4c0,0.1-0.1,0.2,0,0.2c0,0,0.1,0,0.4,0c0.2,0,0.5,0,0.7-0.2c0.2-0.1,0.4-0.4,0.5-0.8
		c0.1-0.5,0-1-0.7-1c-0.4,0-0.4,0-0.5,0.2L33.2,18.4z M32.9,17.5c0.2-0.6,0.2-0.7-0.1-0.7l-0.2,0c0,0,0-0.1,0.1-0.2
		c0.4,0,0.8-0.1,1.4-0.1c0.4,0,0.8,0,1,0.2c0.3,0.2,0.4,0.4,0.3,0.9c-0.2,0.6-0.7,0.9-1.1,1.1c0,0,0,0.1,0,0.2
		c0.3,0.8,0.5,1.3,0.8,1.7c0.1,0.1,0.2,0.2,0.4,0.2c0,0,0,0.1,0,0.1c-0.1,0-0.2,0-0.3,0c-0.5,0-0.8-0.2-1.1-0.8
		c-0.1-0.2-0.2-0.7-0.4-1c-0.1-0.1-0.1-0.2-0.4-0.2c-0.3,0-0.3,0-0.3,0.1l-0.2,0.8c-0.2,0.7-0.2,0.7,0.2,0.8l0.1,0
		c0,0,0,0.1-0.1,0.2c-0.3,0-0.5,0-0.8,0c-0.3,0-0.5,0-0.8,0c0,0,0-0.1,0-0.2l0.2,0c0.4,0,0.4-0.1,0.6-0.8L32.9,17.5z"/>
	<path class="st0" d="M37.2,18.9c0.5,0,0.6,0,0.7-0.1c0,0,0,0,0.1-0.1c0.1-0.2,0-0.4-0.4-0.4c-0.4,0-0.8,0.3-0.9,0.6c0,0,0,0,0,0
		H37.2z M36.8,19.1c-0.2,0-0.2,0-0.2,0.2c-0.2,0.6,0,1.2,0.7,1.2c0.2,0,0.4-0.1,0.7-0.3c0.1,0,0.1,0,0.1,0.1
		c-0.3,0.4-0.8,0.6-1.2,0.6c-0.4,0-0.7-0.2-0.8-0.4c-0.1-0.2-0.1-0.5,0-0.8c0.2-0.8,0.9-1.4,1.7-1.4c0.5,0,0.8,0.4,0.7,0.8
		c0,0.1-0.1,0.1-0.1,0.2c0,0-0.1,0-0.4,0H36.8z"/>
	<path class="st0" d="M40.1,18.5c-0.1,0-0.1,0-0.2,0.2l-0.3,1.2c-0.1,0.4-0.2,0.7,0.3,0.7c0.1,0,0.1,0,0.2,0c0.1,0,0.2-0.1,0.2-0.1
		c0.1,0,0.1,0.1,0,0.1c-0.2,0.1-0.4,0.3-0.8,0.3c-0.5,0-0.6-0.3-0.5-0.7l0.4-1.5c0-0.2,0-0.2-0.1-0.2h-0.2c0,0,0-0.1,0-0.1
		c0.2-0.1,0.4-0.1,0.5-0.2c0.1-0.1,0.3-0.2,0.4-0.4c0,0,0.1,0,0.1,0l-0.1,0.3c0,0.1,0,0.1,0.1,0.1h0.7c0.1,0.1,0,0.2-0.1,0.3H40.1z"
		/>
	<path class="st0" d="M42.1,17.1c0.1-0.4,0.1-0.4-0.1-0.5l-0.1,0c0,0,0-0.1,0-0.1c0.2-0.1,0.5-0.1,0.8-0.3c0,0,0,0,0.1,0
		c-0.1,0.2-0.2,0.5-0.2,0.8l-0.4,1.3c0,0.1,0,0.1,0,0.1c0.3-0.2,0.6-0.3,1-0.3c0.6,0,0.7,0.4,0.6,0.8L43.4,20
		c-0.1,0.5-0.1,0.5,0.1,0.6l0.2,0c0,0,0,0.1-0.1,0.2c-0.2,0-0.4,0-0.6,0c-0.2,0-0.4,0-0.6,0c0,0,0-0.1,0-0.2l0.1,0
		c0.2,0,0.3-0.1,0.4-0.6l0.3-0.9c0.1-0.4,0-0.7-0.4-0.7c-0.2,0-0.4,0.1-0.5,0.2c-0.1,0.1-0.2,0.1-0.2,0.4L41.7,20
		c-0.1,0.5-0.1,0.5,0.1,0.6l0.1,0c0,0,0,0.1-0.1,0.2c-0.2,0-0.4,0-0.6,0c-0.2,0-0.4,0-0.6,0c0,0,0-0.1,0-0.2l0.2,0
		c0.2,0,0.3-0.1,0.4-0.6L42.1,17.1z"/>
	<path class="st0" d="M46.2,17.1c-0.1,0.2-0.3,0.3-0.4,0.3c-0.2,0-0.3-0.1-0.2-0.3c0.1-0.2,0.2-0.3,0.4-0.3
		C46.2,16.8,46.3,16.9,46.2,17.1 M45.2,18.9c0.1-0.2,0.1-0.3-0.1-0.4l0,0c0,0,0-0.1,0-0.1c0.2-0.1,0.6-0.2,0.7-0.3c0,0,0.1,0,0.1,0
		c-0.1,0.2-0.2,0.5-0.2,0.8L45.3,20c-0.1,0.5-0.1,0.5,0.1,0.6l0.1,0c0,0,0,0.1-0.1,0.2c-0.2,0-0.4,0-0.6,0c-0.2,0-0.4,0-0.6,0
		c0,0,0-0.1,0-0.2l0.1,0c0.2,0,0.3-0.1,0.4-0.6L45.2,18.9z"/>
	<path class="st0" d="M47.1,18.9c0.1-0.2,0.1-0.3-0.1-0.4l0,0c0,0,0-0.1,0-0.1c0.2-0.1,0.6-0.2,0.7-0.3c0,0,0.1,0,0.1,0
		c-0.1,0.1-0.1,0.2-0.1,0.3c0,0,0,0.1,0.1,0.1c0.3-0.2,0.7-0.3,1-0.3c0.5,0,0.6,0.4,0.5,0.8L48.9,20c-0.1,0.5-0.1,0.5,0.1,0.6l0.1,0
		c0,0,0,0.1-0.1,0.2c-0.2,0-0.4,0-0.6,0c-0.2,0-0.4,0-0.6,0c0,0,0-0.1,0-0.2l0.1,0c0.2,0,0.3-0.1,0.4-0.6l0.3-0.9
		c0.1-0.4,0-0.6-0.4-0.6c-0.2,0-0.5,0.1-0.6,0.2c-0.1,0.1-0.2,0.2-0.2,0.4l-0.3,1c-0.1,0.5-0.1,0.5,0.1,0.6l0.1,0c0,0,0,0.1-0.1,0.2
		c-0.2,0-0.4,0-0.6,0c-0.2,0-0.4,0-0.6,0c0,0,0-0.1,0-0.2l0.1,0c0.2,0,0.3-0.1,0.4-0.6L47.1,18.9z"/>
	<path class="st0" d="M51.1,17.1c0.1-0.4,0.1-0.4-0.1-0.5l-0.1,0c0,0,0-0.1,0-0.1c0.2-0.1,0.5-0.1,0.8-0.3c0,0,0,0,0.1,0
		c-0.1,0.2-0.2,0.5-0.2,0.8L51,19.2c0,0.1,0,0.1,0.1,0.1c0.1,0,0.3-0.1,0.5-0.2l0.3-0.3c0.2-0.2,0.3-0.3,0.3-0.3c0,0,0-0.1-0.1-0.1
		l-0.1,0c-0.1,0,0-0.1,0-0.2h0.1c0.3,0,0.7,0,1-0.1c0,0,0,0.1,0,0.2l-0.2,0c-0.1,0-0.3,0.1-0.5,0.2c-0.3,0.2-0.6,0.4-0.7,0.5
		c-0.1,0.1-0.1,0.1-0.1,0.2c0.1,0.1,0.1,0.3,0.3,0.5c0.2,0.3,0.3,0.5,0.4,0.6c0.1,0.1,0.2,0.1,0.3,0.1l0.1,0c0,0,0,0.1-0.1,0.2
		c-0.2,0-0.4,0-0.6,0c-0.3,0-0.5,0-0.7,0c0,0,0-0.1,0-0.2l0.1,0c0.1,0,0.2,0,0.2-0.1c0,0,0-0.1-0.1-0.2l-0.5-0.8
		c0-0.1-0.1-0.1-0.2-0.1c-0.1,0-0.1,0-0.2,0.2L50.8,20c-0.1,0.5-0.1,0.5,0.1,0.6l0.1,0c0,0,0,0.1-0.1,0.2c-0.2,0-0.4,0-0.6,0
		c-0.2,0-0.4,0-0.6,0c0,0,0-0.1,0-0.2l0.1,0c0.2,0,0.3-0.1,0.4-0.6L51.1,17.1z"/>
	<path class="st0" d="M55,17.1c-0.1,0.2-0.3,0.3-0.4,0.3c-0.2,0-0.3-0.1-0.2-0.3c0.1-0.2,0.2-0.3,0.4-0.3C55,16.8,55.1,16.9,55,17.1
		 M54,18.9c0.1-0.2,0.1-0.3-0.1-0.4l0,0c0,0,0-0.1,0-0.1c0.2-0.1,0.6-0.2,0.7-0.3c0,0,0.1,0,0.1,0c-0.1,0.2-0.2,0.5-0.2,0.8L54.1,20
		c-0.1,0.5-0.1,0.5,0.1,0.6l0.1,0c0,0,0,0.1-0.1,0.2c-0.2,0-0.4,0-0.6,0c-0.2,0-0.4,0-0.6,0c0,0,0-0.1,0-0.2l0.1,0
		c0.2,0,0.3-0.1,0.4-0.6L54,18.9z"/>
	<path class="st0" d="M55.9,18.9c0.1-0.2,0.1-0.3-0.1-0.4l0,0c0,0,0-0.1,0-0.1c0.2-0.1,0.6-0.2,0.7-0.3c0,0,0.1,0,0.1,0
		c-0.1,0.1-0.1,0.2-0.1,0.3c0,0,0,0.1,0,0.1c0.3-0.2,0.7-0.3,1-0.3c0.5,0,0.6,0.4,0.5,0.8L57.7,20c-0.1,0.5-0.1,0.5,0.1,0.6l0.1,0
		c0,0,0,0.1-0.1,0.2c-0.2,0-0.4,0-0.6,0c-0.2,0-0.4,0-0.6,0c0,0,0-0.1,0-0.2l0.1,0c0.2,0,0.3-0.1,0.4-0.6l0.3-0.9
		c0.1-0.4,0-0.6-0.4-0.6c-0.2,0-0.5,0.1-0.6,0.2c-0.1,0.1-0.2,0.2-0.2,0.4L56,20c-0.1,0.5-0.1,0.5,0.1,0.6l0.1,0c0,0,0,0.1-0.1,0.2
		c-0.2,0-0.4,0-0.6,0c-0.2,0-0.4,0-0.6,0c0,0,0-0.1,0-0.2l0.1,0c0.2,0,0.3-0.1,0.4-0.6L55.9,18.9z"/>
	<path class="st0" d="M60.7,19.1c0.1-0.4,0-0.8-0.3-0.8c-0.3,0-0.6,0.3-0.7,0.7c-0.1,0.5,0.1,0.7,0.4,0.7
		C60.3,19.8,60.6,19.5,60.7,19.1 M59.8,20.9c-0.2,0-0.5,0-0.6,0.1c-0.2,0.1-0.4,0.3-0.5,0.5c-0.1,0.3,0.1,0.6,0.7,0.6
		c0.6,0,1-0.3,1.1-0.7c0.1-0.4-0.1-0.6-0.6-0.6H59.8z M61.8,18.4c0.1,0,0,0.2-0.1,0.3h-0.5c0,0.1,0,0.2-0.1,0.3
		c-0.1,0.4-0.5,1-1.4,1c-0.1,0-0.2,0-0.3,0c-0.1,0-0.3,0.2-0.4,0.3c0,0.1,0.1,0.3,0.4,0.3c0.2,0,0.5,0,0.8,0c0.4,0,0.9,0.1,0.7,0.7
		c-0.2,0.7-1.1,1.2-1.9,1.2c-0.8,0-0.9-0.4-0.8-0.7c0-0.1,0.1-0.2,0.1-0.2c0.1-0.1,0.4-0.3,0.6-0.4c0.1-0.1,0.1-0.1,0.1-0.2
		c-0.2-0.1-0.4-0.3-0.3-0.5c0,0,0-0.1,0.1-0.1c0.1-0.1,0.3-0.2,0.4-0.3c0,0,0.1-0.1,0.1-0.1c-0.2-0.1-0.4-0.4-0.3-0.8
		c0.2-0.5,0.7-1,1.3-1c0.2,0,0.4,0.1,0.6,0.1c0.2,0.1,0.2,0.1,0.4,0.1H61.8z"/>
	<path class="st0" d="M65.6,19.8c-0.2,0.7-0.2,0.8,0.2,0.8l0.2,0c0,0,0,0.1-0.1,0.2c-0.4,0-0.6,0-0.8,0c-0.3,0-0.5,0-0.9,0
		c0,0,0-0.1,0-0.2l0.2,0c0.4,0,0.4-0.1,0.6-0.8l0.8-2.8c0.1-0.2,0.1-0.2-0.1-0.2h-0.4c-0.3,0-0.6,0-0.8,0.2
		c-0.2,0.1-0.3,0.3-0.4,0.4c-0.1,0-0.1,0-0.2,0c0.2-0.3,0.4-0.7,0.5-0.9c0,0,0.1,0,0.1,0c0,0.2,0.2,0.2,0.5,0.2h2.6
		c0.3,0,0.4,0,0.5-0.2c0,0,0.1,0,0.1,0c-0.1,0.3-0.3,0.8-0.4,1c0,0.1-0.1,0.1-0.2,0c0-0.2,0-0.4,0-0.5c-0.1-0.1-0.3-0.2-0.7-0.2
		h-0.5c-0.2,0-0.2,0-0.2,0.2L65.6,19.8z"/>
	<path class="st0" d="M67.8,18.9c0.1-0.2,0.1-0.3-0.1-0.4l0,0c0,0,0-0.1,0-0.1c0.2-0.1,0.5-0.2,0.7-0.3c0,0,0,0,0,0l-0.1,0.4
		c0,0,0,0.1,0,0.1c0.3-0.2,0.6-0.4,0.8-0.4c0.2,0,0.3,0.1,0.2,0.3c-0.1,0.2-0.3,0.3-0.4,0.3c-0.1,0-0.1,0-0.1,0
		c-0.1-0.1-0.2-0.1-0.3-0.1c-0.1,0-0.2,0.1-0.3,0.1c-0.1,0.1-0.2,0.3-0.2,0.5L67.9,20c-0.1,0.5-0.1,0.5,0.1,0.6l0.2,0
		c0,0,0,0.1-0.1,0.2c-0.3,0-0.5,0-0.7,0c-0.2,0-0.4,0-0.6,0c0,0,0-0.1,0-0.2l0.1,0c0.2,0,0.3-0.1,0.4-0.6L67.8,18.9z"/>
	<path class="st0" d="M70.2,20.5c0.1,0,0.4-0.1,0.4-0.2c0.1-0.1,0.1-0.2,0.2-0.3l0.1-0.4c0-0.1,0-0.1,0-0.1c0,0-0.2,0-0.3,0.1
		c-0.4,0.1-0.6,0.2-0.7,0.5C69.8,20.3,69.8,20.5,70.2,20.5 M70.9,19.4c0.1,0,0.1-0.1,0.2-0.2l0.1-0.3c0.1-0.2,0.1-0.6-0.3-0.6
		c-0.2,0-0.4,0.1-0.5,0.3c0,0.1-0.1,0.2-0.1,0.2C70.1,19,69.9,19,69.8,19c-0.1,0-0.1,0-0.1-0.1c0.1-0.3,0.9-0.8,1.4-0.8
		c0.5,0,0.6,0.3,0.5,0.7L71.2,20c-0.1,0.3-0.1,0.6,0.1,0.6c0.1,0,0.1,0,0.2,0c0,0,0.1,0,0.1,0c0,0,0,0,0,0.1c0,0-0.3,0.3-0.6,0.3
		c-0.2,0-0.3-0.1-0.4-0.2c0,0,0-0.1-0.1-0.1c0,0-0.1,0.1-0.3,0.1c-0.2,0.1-0.3,0.2-0.5,0.2c-0.2,0-0.3-0.1-0.4-0.1
		c-0.1-0.1-0.1-0.3-0.1-0.4c0.1-0.2,0.2-0.4,0.7-0.5L70.9,19.4z"/>
	<path class="st0" d="M73,18.9c0.1-0.2,0.1-0.3-0.1-0.4l0,0c0,0,0-0.1,0-0.1c0.2-0.1,0.6-0.2,0.7-0.3c0,0,0.1,0,0.1,0
		c-0.1,0.1-0.1,0.2-0.1,0.3c0,0,0,0.1,0,0.1c0.3-0.2,0.7-0.3,1-0.3c0.5,0,0.6,0.4,0.5,0.8L74.8,20c-0.1,0.5-0.1,0.5,0.1,0.6l0.1,0
		c0,0,0,0.1-0.1,0.2c-0.2,0-0.4,0-0.6,0c-0.2,0-0.4,0-0.6,0c0,0,0-0.1,0-0.2l0.1,0c0.2,0,0.3-0.1,0.4-0.6l0.3-0.9
		c0.1-0.4,0-0.6-0.4-0.6c-0.2,0-0.5,0.1-0.6,0.2c-0.1,0.1-0.2,0.2-0.2,0.4l-0.3,1c-0.1,0.5-0.1,0.5,0.1,0.6l0.1,0c0,0,0,0.1-0.1,0.2
		c-0.2,0-0.4,0-0.6,0c-0.2,0-0.4,0-0.6,0c0,0,0-0.1,0-0.2l0.1,0c0.2,0,0.3-0.1,0.4-0.6L73,18.9z"/>
	<path class="st0" d="M77.9,18.3c0,0.1,0,0.3,0,0.5c0,0-0.1,0.1-0.2,0c0-0.3-0.2-0.5-0.4-0.5c-0.2,0-0.5,0.2-0.5,0.4
		c-0.1,0.3,0.2,0.4,0.3,0.5c0.3,0.2,0.5,0.4,0.4,0.9c-0.1,0.5-0.6,0.7-1.1,0.7c-0.3,0-0.5-0.1-0.6-0.2c0-0.1,0-0.4,0.1-0.6
		c0,0,0.1,0,0.1,0c0,0.3,0.1,0.7,0.5,0.7c0.2,0,0.5-0.1,0.5-0.4c0.1-0.3-0.1-0.5-0.3-0.6c-0.3-0.2-0.5-0.4-0.4-0.8
		c0.1-0.5,0.6-0.7,1.1-0.7C77.6,18.1,77.8,18.2,77.9,18.3"/>
	<path class="st0" d="M78.9,20.5c0.1,0,0.4-0.1,0.4-0.2c0.1-0.1,0.1-0.2,0.2-0.3l0.1-0.4c0-0.1,0-0.1,0-0.1c0,0-0.2,0-0.3,0.1
		c-0.4,0.1-0.6,0.2-0.7,0.5C78.6,20.3,78.6,20.5,78.9,20.5 M79.6,19.4c0.1,0,0.1-0.1,0.2-0.2l0.1-0.3c0.1-0.2,0.1-0.6-0.3-0.6
		c-0.2,0-0.4,0.1-0.5,0.3c0,0.1-0.1,0.2-0.1,0.2C78.8,19,78.6,19,78.5,19c-0.1,0-0.1,0-0.1-0.1c0.1-0.3,0.9-0.8,1.4-0.8
		c0.5,0,0.6,0.3,0.5,0.7L80,20c-0.1,0.3-0.1,0.6,0.1,0.6c0.1,0,0.1,0,0.2,0c0,0,0.1,0,0.1,0c0,0,0,0,0,0.1c0,0-0.3,0.3-0.6,0.3
		c-0.2,0-0.3-0.1-0.4-0.2c0,0,0-0.1-0.1-0.1c0,0-0.1,0.1-0.3,0.1c-0.2,0.1-0.3,0.2-0.5,0.2c-0.2,0-0.3-0.1-0.4-0.1
		c-0.1-0.1-0.1-0.3-0.1-0.4c0.1-0.2,0.2-0.4,0.7-0.5L79.6,19.4z"/>
	<path class="st0" d="M83.6,18.2c0,0,0.1,0.1,0,0.3c0,0.1-0.1,0.2-0.2,0.2c0,0-0.1,0-0.1,0c-0.1-0.2-0.3-0.3-0.5-0.3
		c-0.4,0-1,0.4-1.2,1c-0.1,0.5,0,1.1,0.7,1.1c0.4,0,0.6-0.2,0.8-0.4c0.1,0,0.1,0,0.1,0.1c-0.3,0.5-0.9,0.6-1.2,0.6
		c-0.3,0-0.6-0.1-0.8-0.3S81,20,81.1,19.6c0.2-0.7,0.9-1.4,1.9-1.4C83.2,18.1,83.4,18.2,83.6,18.2"/>
	<path class="st0" d="M85.1,18.5c-0.1,0-0.1,0-0.2,0.2l-0.3,1.2c-0.1,0.4-0.2,0.7,0.3,0.7c0.1,0,0.1,0,0.2,0c0.1,0,0.2-0.1,0.2-0.1
		c0.1,0,0.1,0.1,0,0.1c-0.2,0.1-0.4,0.3-0.8,0.3c-0.5,0-0.6-0.3-0.5-0.7l0.4-1.5c0-0.2,0-0.2-0.1-0.2h-0.2c0,0,0-0.1,0-0.1
		c0.2-0.1,0.4-0.1,0.5-0.2c0.1-0.1,0.3-0.2,0.4-0.4c0,0,0.1,0,0.1,0l-0.1,0.3c0,0.1,0,0.1,0.1,0.1h0.7c0.1,0.1,0,0.2-0.1,0.3H85.1z"
		/>
	<path class="st0" d="M87.7,17.1c-0.1,0.2-0.3,0.3-0.4,0.3c-0.2,0-0.3-0.1-0.2-0.3c0.1-0.2,0.2-0.3,0.4-0.3
		C87.7,16.8,87.8,16.9,87.7,17.1 M86.7,18.9c0.1-0.2,0.1-0.3-0.1-0.4l0,0c0,0,0-0.1,0-0.1c0.2-0.1,0.6-0.2,0.7-0.3c0,0,0.1,0,0.1,0
		c-0.1,0.2-0.2,0.5-0.2,0.8L86.9,20c-0.1,0.5-0.1,0.5,0.1,0.6l0.1,0c0,0,0,0.1-0.1,0.2c-0.2,0-0.4,0-0.6,0c-0.2,0-0.4,0-0.6,0
		c0,0,0-0.1,0-0.2l0.1,0c0.2,0,0.3-0.1,0.4-0.6L86.7,18.9z"/>
	<path class="st0" d="M89.6,18.3c-0.4,0-0.8,0.4-1,1.1c-0.2,0.6-0.1,1.2,0.5,1.2c0.6,0,0.9-0.6,1-1.1C90.3,19,90.2,18.3,89.6,18.3
		 M90.7,19.5c-0.2,0.8-0.9,1.4-1.7,1.4c-0.7,0-1.2-0.5-0.9-1.3c0.2-0.8,1-1.4,1.7-1.4C90.5,18.1,90.9,18.7,90.7,19.5"/>
	<path class="st0" d="M91.9,18.9c0.1-0.2,0.1-0.3-0.1-0.4l0,0c0,0,0-0.1,0-0.1c0.2-0.1,0.6-0.2,0.7-0.3c0,0,0.1,0,0.1,0
		c-0.1,0.1-0.1,0.2-0.1,0.3c0,0,0,0.1,0,0.1c0.3-0.2,0.7-0.3,1-0.3c0.5,0,0.6,0.4,0.5,0.8L93.8,20c-0.1,0.5-0.1,0.5,0.1,0.6l0.1,0
		c0,0,0,0.1-0.1,0.2c-0.2,0-0.4,0-0.6,0c-0.2,0-0.4,0-0.6,0c0,0,0-0.1,0-0.2l0.1,0c0.2,0,0.3-0.1,0.4-0.6l0.3-0.9
		c0.1-0.4,0-0.6-0.4-0.6c-0.2,0-0.5,0.1-0.6,0.2c-0.1,0.1-0.2,0.2-0.2,0.4l-0.3,1c-0.1,0.5-0.1,0.5,0.1,0.6l0.1,0c0,0,0,0.1-0.1,0.2
		c-0.2,0-0.4,0-0.6,0c-0.2,0-0.4,0-0.6,0c0,0,0-0.1,0-0.2l0.1,0c0.2,0,0.3-0.1,0.4-0.6L91.9,18.9z"/>
	<path class="st0" d="M96.8,18.3c0,0.1,0,0.3,0,0.5c0,0-0.1,0.1-0.2,0c0-0.3-0.2-0.5-0.4-0.5c-0.2,0-0.5,0.2-0.5,0.4
		c-0.1,0.3,0.2,0.4,0.3,0.5c0.3,0.2,0.5,0.4,0.4,0.9c-0.1,0.5-0.6,0.7-1.1,0.7c-0.3,0-0.5-0.1-0.6-0.2c0-0.1,0-0.4,0.1-0.6
		c0,0,0.1,0,0.1,0c0,0.3,0.1,0.7,0.5,0.7c0.2,0,0.5-0.1,0.5-0.4c0.1-0.3-0.1-0.5-0.3-0.6c-0.3-0.2-0.5-0.4-0.4-0.8
		c0.1-0.5,0.6-0.7,1.1-0.7C96.6,18.1,96.8,18.2,96.8,18.3"/>
	<path class="st0" d="M97.2,20.5c0.1-0.2,0.3-0.4,0.5-0.4c0.2,0,0.3,0.2,0.3,0.4s-0.2,0.4-0.5,0.4C97.3,20.8,97.2,20.7,97.2,20.5"/>
	<path class="st1" d="M17.4,3.6l1.5-0.7l5.4,0.2l-1.6,0.9c0,0-3.7-0.1-7.5,1.3l0.8-0.8c0,0,2.1-0.7,2.8-0.7
		C18.7,3.7,18,3.6,17.4,3.6"/>
	<path class="st2" d="M30.2,4c-0.7,1.2-2,1.7-3,1.1c-1-0.6-1.3-2-0.6-3.2c0.7-1.2,2-1.7,3-1.1C30.6,1.4,30.8,2.8,30.2,4"/>
	<path class="st0" d="M70.6,8l0.2,0c0,0.1,0,0.1,0.1,0.2c0,0.1,0.1,0.1,0.2,0.1c0.1,0,0.2,0,0.2,0c0.1,0,0.2,0,0.2,0
		c0.1,0,0.1-0.1,0.1-0.1c0,0,0-0.1,0-0.1c0,0,0-0.1,0-0.1c0,0-0.1-0.1-0.1-0.1c0,0-0.1,0-0.3-0.1c-0.1,0-0.2-0.1-0.3-0.1
		c-0.1,0-0.1-0.1-0.2-0.1c0-0.1-0.1-0.1-0.1-0.2c0-0.1,0-0.2,0.1-0.2c0-0.1,0.1-0.1,0.2-0.2c0.1,0,0.2-0.1,0.3-0.1
		c0.1,0,0.2,0,0.3,0.1c0.1,0,0.2,0.1,0.2,0.2c0,0.1,0.1,0.2,0.1,0.2l-0.2,0c0-0.1,0-0.2-0.1-0.2c-0.1-0.1-0.2-0.1-0.3-0.1
		c-0.1,0-0.2,0-0.3,0.1c-0.1,0-0.1,0.1-0.1,0.2c0,0.1,0,0.1,0.1,0.1c0,0,0.1,0.1,0.3,0.1c0.2,0,0.3,0.1,0.3,0.1
		c0.1,0,0.2,0.1,0.2,0.2c0,0.1,0.1,0.1,0.1,0.2c0,0.1,0,0.2-0.1,0.2c0,0.1-0.1,0.1-0.2,0.2c-0.1,0-0.2,0.1-0.3,0.1
		c-0.1,0-0.3,0-0.4-0.1c-0.1,0-0.2-0.1-0.2-0.2S70.6,8.1,70.6,8"/>
	<path class="st0" d="M72.1,8.5V6.9h0.3L72.8,8c0,0.1,0.1,0.2,0.1,0.2c0-0.1,0-0.1,0.1-0.3l0.4-1.1h0.3v1.6h-0.2V7.2L73,8.5h-0.2
		l-0.5-1.3v1.3H72.1z"/>
</g>
</svg>
