<?xml version="1.0" encoding="utf-8"?>
<!-- Generator: Adobe Illustrator 18.1.1, SVG Export Plug-In . SVG Version: 6.00 Build 0)  -->
<svg version="1.1" id="Layer_1" xmlns="http://www.w3.org/2000/svg" xmlns:xlink="http://www.w3.org/1999/xlink" x="0px" y="0px"
	 viewBox="0 0 232.9 51" enable-background="new 0 0 232.9 51" xml:space="preserve">
<g>
	<path fill="#FAA21F" d="M124.4,22.1c1-2.6,1.8-5.1,2.8-7.5c1.3-3.2,2.7-6.3,4-9.5c0.1-0.3,0.3-0.5,0.6-0.5c0.4,0,0.5,0.3,0.6,0.6
		c2.2,5.4,4.8,10.7,6.6,16.3c0,0,0.1,0.1,0.2,0.2c0.3-0.4,0.2-0.8,0.3-1.2c1.1-4.7,2.2-9.4,3.2-14.1c0.1-0.5,0.3-1.1,0.1-1.7
		c-0.1-0.3,0.1-0.4,0.4-0.4c1.7,0,3.3,0,5,0c0.3,0,0.5,0.1,0.3,0.5c-1.1,2.9-1.7,6-2.5,9.1c-1.8,7.2-3.6,14.4-5.4,21.6
		c-0.1,0.3-0.1,0.7-0.5,0.7c-0.5,0-0.6-0.3-0.7-0.6c-2.5-6.5-5.3-12.8-7.6-19.4c0-0.1-0.1-0.2-0.2-0.3c-0.7,1.9-1.4,3.8-2.1,5.6
		c-1.9,4.7-3.8,9.3-5.7,14c-0.1,0.4-0.3,0.8-0.8,0.7c-0.5,0-0.4-0.5-0.5-0.8c-2.2-8.5-4.3-16.9-6.5-25.4c-0.5-1.7-0.8-3.6-1.5-5.2
		c-0.2-0.4,0-0.5,0.3-0.5c1.8,0,3.6,0,5.4,0c0.2,0,0.4,0,0.4,0.3c-0.1,2.2,0.7,4.3,1.2,6.4C122.7,14.6,123.6,18.2,124.4,22.1"/>
	<path fill="#264291" d="M24.9,27.3l0.2-0.1c0.3-0.3,0.6-0.7,0.7-1.1c0.1-0.1,0.2-0.3,0.3-0.4c1.3-2.4,1.7-5,1.3-7.7
		c-0.4-3.5-1.9-6.3-5.1-7.8c-2.1-0.9-4.2-1-6.5-0.8c-0.5,0-0.4,0.4-0.4,0.6c0,5.9,0,11.9,0,17.8c0,0.5,0,0.9,0,1.4
		c-0.1,1.3-0.1,1.3,1.2,1.4c0.5,0,1.1,0.1,1.6,0C20.9,30.4,23.2,29.6,24.9,27.3L24.9,27.3z M9.7,29.7c0-3.1,0.1-6.3,0.1-9.4
		c0-4.5,0-9-0.1-13.5c0-0.8,0-1.6-0.4-2.3C9.2,4.2,9.3,4,9.6,4c5.1-0.2,10.3-1,15.3,1c5.1,2,7.7,6.1,8.5,11.8c0.4,3,0.1,5.9-0.7,8.7
		c-0.2,0.3-0.3,0.5-0.3,0.9c-1,2.3-2.3,4.3-4.1,5.9c-2.3,2.1-5,3.2-8,3.7c-3.7,0.5-7.3,0-11,0c0.6-1.6,0.5-3.1,0.5-4.7
		C9.7,30.8,9.7,30.2,9.7,29.7"/>
	<path fill="#264291" d="M47.6,3.7c0.4-0.5,0.8-0.2,1.1,0.2c4.2,4.5,8.4,9.1,12.6,13.6c1.9,2,3.7,4.1,5.5,6.1
		c-0.1-6.6,0.3-13.1-0.2-19.8h5.7c0.3,0,0.4,0.1,0.3,0.4c-0.5,1.3-0.3,2.6-0.3,4c0,9.1,0,18.2,0,27.3c0,0.3,0.2,0.8-0.2,0.9
		c-0.4,0.2-0.7-0.1-1-0.4c-2.1-2.2-4.2-4.5-6.2-6.7c-0.1-0.1-0.2-0.2-0.3-0.3c-0.1-0.1-0.3-0.3-0.4-0.4c-3.7-4.1-7.4-8.1-11.1-12.2
		v9.9c0,0.3,0,0.5,0,0.8c-0.1,2.5,0,5,0.1,7.6c0,0.1,0,0.2,0,0.3c0.2,1.1,0.2,1.1-0.9,1.1c-1.5,0-3,0-4.5,0c-0.4,0-0.7,0-0.4-0.6
		c0.1-0.3,0.2-0.6,0.2-1c0.1-2.6,0.2-5.2,0.1-7.8c0-0.3,0-0.6,0-0.9c0-4.6,0-9.3,0-13.9C47.7,9.1,47.7,6.4,47.6,3.7L47.6,3.7z"/>
	<path fill="#FAA21F" d="M177.1,14c0,1.4,0,2.9,0,4.3c0,0.5,0.2,0.7,0.6,0.7c1,0,2-0.1,2.9-0.6c1.7-0.9,2.6-2.4,2.6-4.4
		c0.1-1.9-0.6-3.4-2.2-4.3c-1-0.5-2.1-0.6-3.2-0.6c-0.6,0-0.7,0.2-0.7,0.8C177.1,11.3,177.1,12.6,177.1,14 M171.1,36.1
		c0.3-0.8,0.4-1.6,0.4-2.3c0-9.2,0-18.3,0-27.5c0-0.6,0-1.2-0.3-1.8c-0.1-0.4-0.1-0.6,0.3-0.6c3.9,0,7.7-0.6,11.5,0.6
		c3.5,1.2,5.6,4.2,5.7,8.2c0.1,4.1-1.5,7.2-4.9,9.1c-0.4,0.2-0.4,0.3-0.2,0.7c3,4.3,5.6,8.8,8.8,12.9c0.1,0.1,0.2,0.2,0.2,0.4
		c-0.1,0.2-0.2,0.1-0.4,0.1c-2,0-4,0-6,0c-0.5,0-0.7-0.4-1-0.8c-2.3-3.7-4.6-7.4-6.9-11.1c-0.2-0.3-0.3-0.7-0.8-0.7
		c-0.4,0-0.7,0-0.7,0.6c0.1,3.9-0.2,7.8,0.3,11.6c0.1,0.4-0.1,0.4-0.4,0.4C175.1,36.1,173.2,36.1,171.1,36.1"/>
	<path fill="#264291" d="M101.9,14v2.9c0,2.3,0.2,2.4,2.3,1.9c0.1,0,0.3-0.1,0.4-0.1c2.1-0.7,3.4-2.5,3.4-4.9c0-2.3-1.1-3.9-3.1-4.4
		c-0.8-0.2-1.6-0.3-2.5-0.2c-0.5,0.1-0.6,0.3-0.6,0.7C101.9,11.3,101.9,12.6,101.9,14 M96,4.1c3.7-0.1,7.4-0.5,11,0.3
		c6.3,1.4,7.5,7.6,6.2,12c-0.8,2.8-2.5,4.6-5,5.8c1.5,2.3,3,4.6,4.5,6.8c1.5,2.2,2.8,4.5,4.6,6.6c0.1,0.1,0.3,0.2,0.2,0.5
		c-0.1,0.2-0.3,0.1-0.4,0.1c-1.9,0-3.8,0-5.7,0c-0.6,0-1-0.3-1.3-0.8c-2.3-3.8-4.6-7.5-7-11.3c-0.2-0.3-0.3-0.6-0.7-0.6
		c-0.4,0-0.7,0-0.7,0.7c0.1,3.4-0.1,6.9,0.1,10.3c0,0.6,0.1,1.1,0.5,1.8h-6.1c-0.2,0-0.4,0-0.3-0.4c0.5-1.6,0.4-3.4,0.4-5.1
		c0.1-7.2,0.1-14.4,0-21.5C96.4,7.6,96.6,5.9,96,4.1"/>
	<path fill="#FAA21F" d="M156.6,15.9c-1,2.9-2,5.7-3,8.4c-0.1,0.3,0,0.4,0.3,0.4c1.7,0,3.5,0,5.2,0c0.3,0,0.5-0.1,0.3-0.5
		C158.5,21.6,157.5,18.9,156.6,15.9 M156.5,29.9c-1.4,0-2.8,0-4.1,0c-0.5,0-0.8,0.1-0.9,0.7c-0.5,1.4-1.1,2.8-1.5,4.3
		c-0.1,0.3-0.2,0.6-0.1,0.9c0.1,0.4-0.1,0.6-0.4,0.6c-1.9,0-3.8,0-5.7,0c-0.4,0-0.5-0.1-0.3-0.5c3-6.5,5.5-13.2,8.2-19.8
		c1.6-3.9,3.1-7.8,4.6-11.6c0.1-0.4,0.2-0.8,0.7-0.7c0.5,0,0.6,0.4,0.8,0.8c3.4,8.6,6.7,17.2,10.1,25.8c0.7,1.9,1.4,3.8,2.4,5.6
		c0.2,0.4,0.1,0.6-0.3,0.6c-2.1,0-4.2,0-6.3,0c-0.2,0-0.5,0-0.4-0.3c0.2-1.5-0.6-2.7-1-4.1c-0.7-2-0.7-2-2.7-2
		C158.4,29.9,157.5,29.9,156.5,29.9"/>
	<path fill="#264291" d="M84.5,36.2c-2.4,0-4.8,0-7.2,0c-0.5,0-0.8,0-0.5-0.8c0.3-1.3,0.3-2.7,0.3-4c0-7.6,0-15.2,0-22.8
		c0-1.4,0.1-2.9-0.4-4.3C76.6,4.1,76.7,4,76.9,4c0.2,0,0.3,0,0.5,0c4.7,0,9.3,0,14,0c0.6,0,0.9,0.2,0.8,0.9c-0.1,1.4,0,2.9,0,4.3
		c0,0.5,0,0.8-0.6,0.5c-0.9-0.4-1.8-0.4-2.7-0.4c-1.8,0-3.7,0-5.5,0c-0.5,0-0.6,0.1-0.6,0.7c0,2.2,0,4.5,0,6.8
		c0,0.4,0.1,0.6,0.6,0.6c2.2,0,4.3,0,6.5,0c0,0,0.1,0,0.1,0c0.4,0.1,0.9-0.5,1.2-0.1c0.2,0.4,0.1,1,0.1,1.5c0,1.2,0,2.4,0,3.5
		c0,0.3,0.1,0.7-0.4,0.5c-1.4-0.4-2.7-0.2-4.1-0.2c-1.1,0-2.1,0-3.2,0c-0.5,0-0.7,0.1-0.7,0.7c0,2.3,0,4.6,0,6.8
		c0,0.6,0.1,0.9,0.8,0.9c2.4-0.1,4.9,0.1,7.3-0.1c0.3,0,0.5,0,0.8-0.1c0.9-0.3,0.9-0.3,0.9,0.8c0,1.2,0,2.5,0,3.7c0,0.7-0.2,1-0.9,1
		C89.3,36.2,86.9,36.2,84.5,36.2"/>
	<path fill="#FAA21F" d="M201.9,36.4c-2.4,0-4.7,0-7.1,0c-0.6,0-0.9,0.1-0.6-0.8c0.3-1.1,0.2-2.3,0.2-3.5c0-7.8,0-15.6,0-23.4
		c0-1.3,0.1-2.7-0.4-4.1c-0.2-0.5,0.2-0.4,0.4-0.4c1.3,0,2.5,0,3.8,0c3.5,0,6.9,0,10.4,0c0.7,0,1,0.1,1,1c-0.1,1.4-0.1,2.8-0.1,4.2
		c0,0.4,0,0.7-0.6,0.4c-0.6-0.3-1.4-0.4-2.1-0.4c-2,0-4,0-6.1,0c-0.5,0-0.7,0.2-0.7,0.7c0,2.2,0,4.4,0,6.6c0,0.6,0.2,0.8,0.7,0.8
		c2.4-0.1,4.8,0.2,7.2-0.2c0.3,0,0.4,0.1,0.4,0.4c0,1.6,0,3.2,0,4.8c0,0.4-0.1,0.5-0.5,0.4c-2.5-0.4-4.9-0.1-7.4-0.2
		c-0.3,0-0.4,0.2-0.4,0.5c0,2.4,0,4.9,0,7.3c0,0.4,0.2,0.5,0.5,0.5c2.7,0,5.3,0.1,8,0c0.4,0,0.8-0.7,1.2-0.2c0.2,0.3,0,0.9,0,1.3
		c0,1.1,0,2.3,0,3.4c0,0.7-0.1,0.9-0.8,0.9C206.7,36.4,204.3,36.4,201.9,36.4"/>
	<path fill="#264291" d="M41.3,26.2c0.8,3.8,0.2,7.2-2,10.3c-0.4,0.6-0.9,1.1-1.5,1.4c-1.5,0.9-2.7,0.5-3.6-1.1
		c-0.9-1.8-0.9-3.8-0.6-5.8c0.3-1.7,0.8-3.3,1.7-4.8c0.2-0.3,0.4-0.6,0.6-0.9c2.5-1.6,2.6-4.5,3.1-7.1c1-5.1,1.9-10.3,2.9-15.4
		c0.2-1.3,1-2,2-2.1c1.1-0.1,1.9,0.6,2.3,1.6c0.2,0.7,0,1.3-0.2,2c-1.6,5.5-3.3,11-4.7,16.6c-0.3,1-0.6,2-0.6,3.1
		c0,0.4-0.1,0.9,0.2,1.2C41.1,25.7,41.2,26,41.3,26.2"/>
	<path fill="#FAA21F" d="M30.2,47.2c-1.9-0.1-3.7-0.6-5.5-1c-2.3-0.6-4.6-1.2-6.9-2.1c0.3-0.2,0.6-0.1,0.9,0
		c8.3,1.5,16.7,2.3,25.1,1.9c4.8-0.2,9.5-0.9,14-2.9c1.3-0.6,2.6-1.2,3.7-2.3c0.4-0.4,0.8-0.8,0.8-1.5c0.2-1.1-0.5-1.7-1.2-2.2
		c-0.5-0.4-1-0.7-1.5-1.1c1.9,0.6,3.8,1.3,5.1,3c0.7,0.9,0.6,1.9-0.2,2.8c-1.4,1.5-3.2,2.4-5,3.2c-3.8,1.6-7.7,2.4-11.7,2.7
		c-5.7,0.4-11.4,0.3-17.1-0.4C30.5,47.1,30.3,47.1,30.2,47.2"/>
	<path fill="#FAA21F" d="M9.7,29.7c0,0.5,0,1.1,0,1.6c-1.6,0.5-3.1,1.3-4.4,2.5c-1.6,1.5-1.7,3.3-0.1,5C6,39.6,6.9,40.2,7.8,41
		c-0.5,0.1-0.8-0.1-1.1-0.3C5.3,40,4,39.3,2.9,38.1c-1.2-1.4-1.3-2.9,0-4.2C4.8,31.8,7.2,30.6,9.7,29.7"/>
	<path fill="#FAA21F" d="M64.1,28.6c0.1,0.1,0.3,0.3,0.4,0.4c-2.6-0.5-5.2-1-7.8-1.4c-1.2-0.2-2.5-0.4-3.7-0.5c0-0.3,0-0.6,0-0.8
		C56.7,26.7,60.4,27.6,64.1,28.6"/>
	<path fill="#FAA21F" d="M41.3,26.2c-0.1-0.3-0.2-0.6-0.3-0.9c2.2,0,4.4,0.1,6.7,0.3c0,0.3,0,0.6,0,0.9
		C45.5,26.5,43.4,26.4,41.3,26.2"/>
	<path fill="#FAA21F" d="M35.9,25.5c-0.2,0.3-0.4,0.6-0.6,0.9c-1,0-2,0-3,0c0-0.3,0.1-0.6,0.3-0.9C33.8,25.5,34.9,25.5,35.9,25.5"/>
	<path fill="#FAA21F" d="M47.7,3.7L47.7,3.7L47.7,3.7z"/>
	<path fill="#FAA21F" d="M24.9,27.3c-2,0-4,0.6-5.9,1c-1.2,0.2-2.3,0.6-3.5,0.9c0-0.5,0-0.9,0-1.4c3.4-0.7,6.8-1.4,10.3-1.7
		c-0.2,0.4-0.4,0.8-0.7,1.1C25,27.2,24.9,27.2,24.9,27.3L24.9,27.3z"/>
	<path fill="#FFFFFF" d="M24.9,27.3c0-0.1,0.1-0.1,0.2-0.1L24.9,27.3z"/>
	<rect x="80" y="43.5" width="0.6" height="6.5"/>
	<path d="M83.1,45.2h0.6v0.9c0.2-0.3,0.5-0.6,0.8-0.7c0.3-0.2,0.6-0.2,0.9-0.2c0.3,0,0.6,0.1,0.9,0.3c0.3,0.2,0.4,0.4,0.6,0.7
		c0.1,0.3,0.2,0.8,0.2,1.4V50h-0.6v-2.3c0-0.6,0-0.9-0.1-1.1c-0.1-0.3-0.2-0.6-0.4-0.7c-0.2-0.2-0.4-0.2-0.7-0.2
		c-0.3,0-0.7,0.1-0.9,0.4c-0.3,0.2-0.5,0.6-0.5,0.9c-0.1,0.2-0.1,0.7-0.1,1.3V50h-0.6V45.2z"/>
	<polygon points="89.8,43.4 89.8,45.2 89,45.2 89,45.7 89.8,45.7 89.8,50 90.4,50 90.4,45.7 91.3,45.7 91.3,45.2 90.4,45.2 
		90.4,43.4 	"/>
	<path d="M93.2,45.2h0.6v2.2c0,0.5,0,0.9,0.1,1.1c0.1,0.3,0.2,0.5,0.5,0.7c0.2,0.2,0.5,0.3,0.8,0.3s0.6-0.1,0.8-0.3
		c0.2-0.2,0.4-0.4,0.5-0.7c0.1-0.2,0.1-0.6,0.1-1.2v-2.2h0.6v2.4c0,0.7-0.1,1.2-0.2,1.5c-0.1,0.3-0.4,0.6-0.6,0.8
		c-0.3,0.2-0.6,0.3-1.1,0.3s-0.8-0.1-1.1-0.3c-0.3-0.2-0.5-0.5-0.6-0.8c-0.1-0.3-0.2-0.9-0.2-1.5V45.2z"/>
	<path d="M99.5,45.2h0.6V50h-0.6V45.2z M99.8,43.2c0.1,0,0.2,0,0.3,0.1c0.1,0.1,0.1,0.2,0.1,0.4c0,0.1,0,0.3-0.1,0.4
		c-0.1,0.1-0.2,0.1-0.3,0.1c-0.1,0-0.2,0-0.3-0.1c-0.1-0.1-0.1-0.2-0.1-0.4c0-0.1,0-0.3,0.1-0.4C99.5,43.3,99.6,43.2,99.8,43.2"/>
	<polygon points="102.9,43.4 102.9,45.2 102.1,45.2 102.1,45.7 102.9,45.7 102.9,50 103.5,50 103.5,45.7 104.4,45.7 104.4,45.2 
		103.5,45.2 103.5,43.4 	"/>
	<path d="M106.3,45.2h0.6V50h-0.6V45.2z M106.6,43.2c0.1,0,0.2,0,0.3,0.1c0.1,0.1,0.1,0.2,0.1,0.4c0,0.1,0,0.3-0.1,0.4
		c-0.1,0.1-0.2,0.1-0.3,0.1c-0.1,0-0.2,0-0.3-0.1c-0.1-0.1-0.1-0.2-0.1-0.4c0-0.1,0-0.3,0.1-0.4C106.3,43.3,106.5,43.2,106.6,43.2"
		/>
	<polygon points="112.4,45.2 110.9,48.7 109.4,45.2 108.8,45.2 110.8,50 110.9,50 113,45.2 	"/>
	<path d="M118.7,47.1c-0.1-0.3-0.2-0.6-0.3-0.8c-0.1-0.2-0.3-0.4-0.6-0.5c-0.2-0.1-0.5-0.2-0.8-0.2c-0.4,0-0.8,0.2-1.1,0.5
		c-0.2,0.2-0.4,0.6-0.5,1H118.7z M118.7,48.4l0.5,0.3c-0.2,0.3-0.3,0.6-0.5,0.8c-0.2,0.2-0.4,0.4-0.7,0.5c-0.3,0.1-0.6,0.2-0.9,0.2
		c-0.7,0-1.3-0.3-1.7-0.8c-0.4-0.5-0.6-1.1-0.6-1.7c0-0.6,0.2-1.2,0.5-1.6c0.4-0.6,1-0.9,1.8-0.9c0.8,0,1.4,0.3,1.8,0.9
		c0.3,0.4,0.5,1,0.5,1.6h-4c0,0.6,0.2,1,0.5,1.4c0.3,0.4,0.7,0.5,1.2,0.5c0.2,0,0.4,0,0.7-0.1c0.2-0.1,0.4-0.2,0.5-0.3
		C118.4,48.9,118.6,48.7,118.7,48.4"/>
	<path d="M125.8,44.1v2.2l1,0c0.4,0,0.7,0,0.9-0.1c0.2-0.1,0.3-0.2,0.5-0.4c0.1-0.2,0.2-0.4,0.2-0.6s-0.1-0.4-0.2-0.6
		c-0.1-0.2-0.3-0.3-0.4-0.4c-0.2-0.1-0.5-0.1-0.9-0.1H125.8z M125.2,43.5h1.2c0.7,0,1.1,0,1.4,0.1c0.4,0.1,0.6,0.3,0.9,0.6
		c0.2,0.3,0.3,0.6,0.3,1.1c0,0.4-0.1,0.7-0.2,0.9c-0.2,0.3-0.4,0.5-0.7,0.6c-0.3,0.1-0.7,0.2-1.2,0.2l2.2,3h-0.7l-2.2-3h-0.3v3h-0.6
		V43.5z"/>
	<path d="M135,47.1c-0.1-0.3-0.2-0.6-0.3-0.8c-0.1-0.2-0.3-0.4-0.6-0.5c-0.2-0.1-0.5-0.2-0.8-0.2c-0.4,0-0.8,0.2-1.1,0.5
		c-0.2,0.2-0.4,0.6-0.5,1H135z M135,48.4l0.5,0.3c-0.2,0.3-0.3,0.6-0.5,0.8c-0.2,0.2-0.4,0.4-0.7,0.5c-0.3,0.1-0.6,0.2-0.9,0.2
		c-0.7,0-1.3-0.3-1.7-0.8c-0.4-0.5-0.6-1.1-0.6-1.7c0-0.6,0.2-1.2,0.5-1.6c0.4-0.6,1-0.9,1.8-0.9c0.8,0,1.4,0.3,1.8,0.9
		c0.3,0.4,0.5,1,0.5,1.6h-4c0,0.6,0.2,1,0.5,1.4c0.3,0.4,0.7,0.5,1.2,0.5c0.2,0,0.4,0,0.7-0.1c0.2-0.1,0.4-0.2,0.5-0.3
		C134.7,48.9,134.9,48.7,135,48.4"/>
	<path d="M140.1,45.7l-0.4,0.4c-0.3-0.3-0.6-0.5-0.9-0.5c-0.2,0-0.3,0.1-0.5,0.2c-0.1,0.1-0.2,0.3-0.2,0.5c0,0.2,0.1,0.3,0.2,0.4
		c0.1,0.1,0.3,0.3,0.7,0.5c0.4,0.2,0.7,0.5,0.9,0.7s0.2,0.5,0.2,0.8c0,0.4-0.1,0.7-0.4,1c-0.3,0.3-0.6,0.4-1,0.4
		c-0.3,0-0.5-0.1-0.7-0.2c-0.2-0.1-0.4-0.3-0.6-0.5l0.4-0.4c0.3,0.4,0.6,0.5,0.9,0.5c0.2,0,0.4-0.1,0.6-0.2c0.2-0.2,0.2-0.3,0.2-0.6
		c0-0.2-0.1-0.3-0.2-0.5c-0.1-0.1-0.3-0.3-0.7-0.5c-0.4-0.2-0.7-0.4-0.8-0.7s-0.2-0.5-0.2-0.7c0-0.4,0.1-0.7,0.3-0.9
		c0.2-0.2,0.5-0.4,0.9-0.4C139.3,45.1,139.7,45.3,140.1,45.7"/>
	<polygon points="142.8,43.4 142.8,45.2 142,45.2 142,45.7 142.8,45.7 142.8,50 143.4,50 143.4,45.7 144.3,45.7 144.3,45.2 
		143.4,45.2 143.4,43.4 	"/>
	<path d="M148.4,45.7c-0.3,0-0.6,0.1-0.9,0.3c-0.3,0.2-0.5,0.4-0.6,0.7c-0.2,0.3-0.2,0.6-0.2,1c0,0.3,0.1,0.7,0.2,1
		c0.2,0.3,0.4,0.6,0.6,0.7s0.6,0.3,0.9,0.3s0.6-0.1,0.9-0.3c0.3-0.2,0.5-0.4,0.6-0.7c0.2-0.3,0.2-0.6,0.2-1c0-0.6-0.2-1-0.5-1.4
		S148.9,45.7,148.4,45.7 M150.7,45.2V50h-0.6v-0.8c-0.2,0.3-0.5,0.6-0.8,0.7c-0.3,0.2-0.6,0.2-1,0.2c-0.6,0-1.2-0.2-1.6-0.7
		c-0.4-0.5-0.7-1.1-0.7-1.8c0-0.7,0.2-1.3,0.7-1.8s1-0.7,1.6-0.7c0.4,0,0.7,0.1,1,0.3s0.6,0.4,0.8,0.8v-0.9H150.7z"/>
	<path d="M153.1,45.2h0.6v2.2c0,0.5,0,0.9,0.1,1.1c0.1,0.3,0.2,0.5,0.5,0.7c0.2,0.2,0.5,0.3,0.8,0.3c0.3,0,0.6-0.1,0.8-0.3
		c0.2-0.2,0.4-0.4,0.5-0.7c0.1-0.2,0.1-0.6,0.1-1.2v-2.2h0.6v2.4c0,0.7-0.1,1.2-0.2,1.5c-0.1,0.3-0.4,0.6-0.6,0.8
		c-0.3,0.2-0.6,0.3-1.1,0.3s-0.8-0.1-1.1-0.3c-0.3-0.2-0.5-0.5-0.6-0.8c-0.1-0.3-0.2-0.9-0.2-1.5V45.2z"/>
	<path d="M159.2,45.2h0.6v0.7c0.2-0.3,0.4-0.5,0.6-0.6c0.2-0.1,0.4-0.2,0.6-0.2c0.2,0,0.3,0.1,0.5,0.2l-0.3,0.5
		c-0.1-0.1-0.2-0.1-0.3-0.1c-0.2,0-0.4,0.1-0.6,0.3c-0.2,0.2-0.3,0.4-0.4,0.8c-0.1,0.3-0.1,0.8-0.1,1.7V50h-0.6V45.2z"/>
	<path d="M165.2,45.7c-0.3,0-0.6,0.1-0.9,0.3c-0.3,0.2-0.5,0.4-0.6,0.7c-0.2,0.3-0.2,0.6-0.2,1c0,0.3,0.1,0.7,0.2,1
		c0.2,0.3,0.4,0.6,0.6,0.7s0.6,0.3,0.9,0.3c0.3,0,0.6-0.1,0.9-0.3c0.3-0.2,0.5-0.4,0.6-0.7c0.2-0.3,0.2-0.6,0.2-1
		c0-0.6-0.2-1-0.5-1.4S165.7,45.7,165.2,45.7 M167.5,45.2V50h-0.6v-0.8c-0.2,0.3-0.5,0.6-0.8,0.7c-0.3,0.2-0.6,0.2-1,0.2
		c-0.6,0-1.2-0.2-1.6-0.7c-0.4-0.5-0.7-1.1-0.7-1.8c0-0.7,0.2-1.3,0.7-1.8s1-0.7,1.6-0.7c0.4,0,0.7,0.1,1,0.3
		c0.3,0.2,0.6,0.4,0.8,0.8v-0.9H167.5z"/>
	<path d="M169.9,45.2h0.6v0.9c0.2-0.3,0.5-0.6,0.8-0.7c0.3-0.2,0.6-0.2,0.9-0.2c0.3,0,0.6,0.1,0.9,0.3c0.3,0.2,0.4,0.4,0.6,0.7
		c0.1,0.3,0.2,0.8,0.2,1.4V50h-0.6v-2.3c0-0.6,0-0.9-0.1-1.1c-0.1-0.3-0.2-0.6-0.4-0.7c-0.2-0.2-0.4-0.2-0.7-0.2
		c-0.3,0-0.7,0.1-0.9,0.4c-0.3,0.2-0.5,0.6-0.5,0.9c-0.1,0.2-0.1,0.7-0.1,1.3V50h-0.6V45.2z"/>
	<polygon points="176.7,43.4 176.7,45.2 175.9,45.2 175.9,45.7 176.7,45.7 176.7,50 177.3,50 177.3,45.7 178.2,45.7 178.2,45.2 
		177.3,45.2 177.3,43.4 	"/>
	<path d="M183.1,48.8l0.5-0.3c0.4,0.7,0.8,1.1,1.2,1.1c0.2,0,0.4-0.1,0.6-0.2c0.2-0.1,0.3-0.2,0.4-0.4c0.1-0.2,0.1-0.4,0.1-0.5
		c0-0.2-0.1-0.4-0.2-0.6c-0.2-0.3-0.5-0.6-1-1c-0.5-0.4-0.8-0.7-0.9-0.9c-0.2-0.3-0.3-0.6-0.3-1c0-0.3,0.1-0.5,0.2-0.8
		c0.1-0.2,0.3-0.4,0.5-0.6c0.2-0.1,0.5-0.2,0.7-0.2c0.3,0,0.5,0.1,0.8,0.2c0.2,0.2,0.5,0.4,0.8,0.8l-0.5,0.4
		c-0.2-0.3-0.4-0.5-0.6-0.6S185.2,44,185,44c-0.2,0-0.4,0.1-0.6,0.2c-0.2,0.2-0.2,0.4-0.2,0.6c0,0.1,0,0.3,0.1,0.4
		c0.1,0.1,0.2,0.3,0.3,0.4c0.1,0.1,0.3,0.3,0.8,0.6c0.5,0.4,0.9,0.8,1.1,1.1c0.2,0.3,0.3,0.6,0.3,1c0,0.5-0.2,0.9-0.5,1.2
		c-0.3,0.3-0.7,0.5-1.2,0.5c-0.4,0-0.7-0.1-1-0.3C183.7,49.6,183.4,49.3,183.1,48.8"/>
	<path d="M191.1,45.7c-0.5,0-0.9,0.2-1.2,0.6c-0.3,0.4-0.5,0.8-0.5,1.4c0,0.3,0.1,0.7,0.2,1c0.2,0.3,0.4,0.5,0.6,0.7
		c0.3,0.2,0.6,0.2,0.9,0.2c0.3,0,0.6-0.1,0.9-0.2c0.3-0.2,0.5-0.4,0.6-0.7c0.2-0.3,0.2-0.6,0.2-1c0-0.5-0.2-1-0.5-1.4
		C192,45.9,191.5,45.7,191.1,45.7 M191.1,45.1c0.7,0,1.2,0.3,1.7,0.8c0.4,0.5,0.6,1.1,0.6,1.7c0,0.7-0.2,1.3-0.6,1.8
		c-0.4,0.5-1,0.8-1.7,0.8s-1.2-0.3-1.7-0.8c-0.4-0.5-0.6-1.1-0.6-1.8c0-0.7,0.2-1.2,0.6-1.7C189.8,45.3,190.4,45.1,191.1,45.1"/>
	<path d="M197.4,43.3v0.6c-0.2-0.1-0.4-0.1-0.5-0.1c-0.1,0-0.2,0-0.3,0.1c-0.1,0-0.1,0.1-0.1,0.2c0,0.1,0,0.2,0,0.5v0.6h0.9v0.5
		h-0.9l0,4.3h-0.6v-4.3h-0.6v-0.5h0.6v-0.8c0-0.3,0-0.6,0.1-0.7c0.1-0.1,0.2-0.3,0.3-0.4c0.1-0.1,0.3-0.1,0.5-0.1
		C197,43.2,197.2,43.3,197.4,43.3"/>
	<polygon points="199.9,43.4 199.9,45.2 199.1,45.2 199.1,45.7 199.9,45.7 199.9,50 200.5,50 200.5,45.7 201.4,45.7 201.4,45.2 
		200.5,45.2 200.5,43.4 	"/>
	<polygon points="209.1,45.2 207.7,48.7 206.3,45.2 206.2,45.2 204.7,48.7 203.4,45.2 202.8,45.2 204.7,50 204.8,50 206.2,46.6 
		207.6,50 207.7,50 209.7,45.2 	"/>
	<path d="M213.6,45.7c-0.3,0-0.6,0.1-0.9,0.3c-0.3,0.2-0.5,0.4-0.6,0.7c-0.2,0.3-0.2,0.6-0.2,1c0,0.3,0.1,0.7,0.2,1
		c0.2,0.3,0.4,0.6,0.6,0.7c0.3,0.2,0.6,0.3,0.9,0.3c0.3,0,0.6-0.1,0.9-0.3c0.3-0.2,0.5-0.4,0.6-0.7c0.2-0.3,0.2-0.6,0.2-1
		c0-0.6-0.2-1-0.5-1.4S214.1,45.7,213.6,45.7 M215.9,45.2V50h-0.6v-0.8c-0.2,0.3-0.5,0.6-0.8,0.7c-0.3,0.2-0.6,0.2-1,0.2
		c-0.6,0-1.2-0.2-1.6-0.7c-0.4-0.5-0.7-1.1-0.7-1.8c0-0.7,0.2-1.3,0.7-1.8s1-0.7,1.6-0.7c0.4,0,0.7,0.1,1,0.3
		c0.3,0.2,0.6,0.4,0.8,0.8v-0.9H215.9z"/>
	<path d="M218.1,45.2h0.6v0.7c0.2-0.3,0.4-0.5,0.6-0.6c0.2-0.1,0.4-0.2,0.6-0.2c0.2,0,0.3,0.1,0.5,0.2l-0.3,0.5
		c-0.1-0.1-0.2-0.1-0.3-0.1c-0.2,0-0.4,0.1-0.6,0.3c-0.2,0.2-0.3,0.4-0.4,0.8c-0.1,0.3-0.1,0.8-0.1,1.7V50h-0.6V45.2z"/>
	<path d="M225.8,47.1c-0.1-0.3-0.2-0.6-0.3-0.8c-0.1-0.2-0.3-0.4-0.6-0.5c-0.2-0.1-0.5-0.2-0.8-0.2c-0.4,0-0.8,0.2-1.1,0.5
		c-0.2,0.2-0.4,0.6-0.5,1H225.8z M225.8,48.4l0.5,0.3c-0.2,0.3-0.3,0.6-0.5,0.8s-0.4,0.4-0.7,0.5c-0.3,0.1-0.6,0.2-0.9,0.2
		c-0.7,0-1.3-0.3-1.7-0.8c-0.4-0.5-0.6-1.1-0.6-1.7c0-0.6,0.2-1.2,0.5-1.6c0.4-0.6,1-0.9,1.8-0.9c0.8,0,1.4,0.3,1.8,0.9
		c0.3,0.4,0.5,1,0.5,1.6h-4c0,0.6,0.2,1,0.5,1.4c0.3,0.4,0.7,0.5,1.2,0.5c0.2,0,0.4,0,0.7-0.1c0.2-0.1,0.4-0.2,0.5-0.3
		C225.4,48.9,225.6,48.7,225.8,48.4"/>
	<polygon points="228.1,43.6 228.1,43.9 228.6,43.9 228.6,45.9 228.8,45.9 228.8,43.9 229.3,43.9 229.3,43.6 	"/>
	<polygon points="231.9,43.6 231.1,45.5 230.2,43.6 230.2,43.6 229.9,45.9 230.1,45.9 230.3,44.3 231,45.9 231.1,45.9 231.8,44.3 
		232,45.9 232.3,45.9 232,43.6 	"/>
	<path fill="#264291" d="M213.1,5.7v0.6h0.5c0.1,0,0.2,0,0.3,0C214,6.2,214,6.1,214,6c0-0.1,0-0.2-0.1-0.2c-0.1,0-0.2-0.1-0.3-0.1
		H213.1z M212.8,5.4h0.8c0.2,0,0.3,0,0.4,0.1c0.1,0,0.1,0.1,0.2,0.2c0,0.1,0.1,0.2,0.1,0.3c0,0.1,0,0.2-0.1,0.3
		c0,0.1-0.1,0.1-0.2,0.2c0.1,0,0.1,0.1,0.2,0.2c0,0.1,0,0.2,0,0.3v0.2c0,0.1,0,0.2,0.1,0.3l0,0.1h-0.3c0-0.1,0-0.2,0-0.3l0-0.3
		c0-0.1,0-0.2,0-0.2c0,0-0.1-0.1-0.1-0.1c0,0-0.1,0-0.2,0h-0.5v0.9h-0.3V5.4z M215,6.5c0-0.3-0.1-0.5-0.2-0.8s-0.3-0.4-0.5-0.6
		c-0.2-0.1-0.5-0.2-0.7-0.2c-0.3,0-0.5,0.1-0.7,0.2c-0.2,0.1-0.4,0.3-0.5,0.6c-0.1,0.2-0.2,0.5-0.2,0.8s0.1,0.5,0.2,0.8
		c0.1,0.2,0.3,0.4,0.5,0.6C213,8,213.3,8,213.5,8c0.3,0,0.5-0.1,0.7-0.2c0.2-0.1,0.4-0.3,0.5-0.6C214.9,7,215,6.7,215,6.5
		 M215.2,6.5c0,0.3-0.1,0.6-0.2,0.9c-0.1,0.3-0.3,0.5-0.6,0.7c-0.3,0.2-0.5,0.2-0.8,0.2S213,8.2,212.7,8c-0.3-0.2-0.5-0.4-0.6-0.7
		c-0.1-0.3-0.2-0.6-0.2-0.9c0-0.3,0.1-0.6,0.2-0.9c0.1-0.3,0.3-0.5,0.6-0.7c0.3-0.2,0.5-0.2,0.8-0.2s0.6,0.1,0.8,0.2
		c0.3,0.2,0.5,0.4,0.6,0.7C215.1,5.9,215.2,6.2,215.2,6.5"/>
</g>
</svg>
