<?xml version="1.0" encoding="utf-8"?>
<!-- Generator: Adobe Illustrator 18.1.1, SVG Export Plug-In . SVG Version: 6.00 Build 0)  -->
<svg version="1.1" id="Layer_1" xmlns="http://www.w3.org/2000/svg" xmlns:xlink="http://www.w3.org/1999/xlink" x="0px" y="0px"
	 viewBox="0 0 242.3 51" enable-background="new 0 0 242.3 51" xml:space="preserve">
<g>
	<path fill="#211F21" d="M6.8,1.7c-6,0.8-5.7,6.8-5.7,6.8v1.4l0,0v14.9l0,0v1.4c0,0,0,0.2,0,0.4v0.2h0C1.2,28.4,2,32.3,6.8,33v0h24
		v-7.2H7.6v-5.3h17.5v-7.2H7.6V8.8h23.2V1.7L6.8,1.7L6.8,1.7z"/>
	<path fill="#211F21" d="M70.6,8.4L70.6,8.4c0,0,0.3-5.8-5.5-6.7v0H47.1v0l0,0c-6,0.8-5.7,6.7-5.7,6.8h0v18.4h0
		c0.1,1.6,0.9,5.4,5.7,6.1l0,0v0h17.9l0,0c0,0,0,0,0,0h11.8v-7.2h-6.1V8.4z M47.9,25.8V8.8h16.2v16.9H47.9z"/>
	<path fill="#211F21" d="M162.6,1.7L162.6,1.7l-18.1,0v0.1h-5.7V33h6.5V8.8h16.2V33h6.5V9.9l0,0V8.4C168.1,8.4,168.4,2.7,162.6,1.7z
		"/>
	<path fill="#211F21" d="M104.1,25.8H87.9v-24h-6.5v24.5c0,0,0,0.1,0,0.2v0.4h0c0.1,1.6,0.9,5.4,5.7,6.1l0,0H105l0,0c0,0,0,0,0,0
		h0.1v0c4.7-0.7,5.4-4.5,5.6-6.1h0V1.8h-6.5V25.8z"/>
	<rect x="121.6" y="1.8" fill="#211F21" width="6.5" height="31.2"/>
	<polygon fill="#211F21" points="230.7,17.3 241.3,3.7 241.3,1.8 233.7,1.8 226.3,11.5 218.9,1.8 211.3,1.8 211.3,3.7 221.8,17.3 
		211.3,31.1 211.3,33 218.5,33 226.3,23 234,33 241.3,33 241.3,31.1 	"/>
	<path fill="#211F21" d="M191.3,27.1c-5,0-9-4.4-9-9.8c0-2,0.6-3.8,1.5-5.4l-4.2-5.3c-2.2,2.9-3.6,6.6-3.6,10.7
		c0,9.2,6.9,16.6,15.3,16.6c2.9,0,5.6-0.9,8-2.4l-4.2-5.3C193.9,26.8,192.7,27.1,191.3,27.1z"/>
</g>
<g>
	<path fill="#A1A0A2" d="M203,28c2.2-2.9,3.6-6.6,3.6-10.7c0-9.2-6.9-16.6-15.3-16.6c-2.9,0-5.6,0.9-7.9,2.4l4.2,5.3
		c1.1-0.6,2.4-0.9,3.7-0.9c5,0,9,4.4,9,9.8c0,2-0.5,3.8-1.5,5.4L203,28z"/>
	<path fill="#A1A0A2" d="M129.4,39.8h-8.3v10.5h2.2v-4.1h6c0.3,0,1.2,0,1.7-0.5c0.5-0.5,0.5-1.3,0.5-1.5v-2.3c0-0.5,0-1.1-0.6-1.6
		C130.5,39.8,129.9,39.8,129.4,39.8z M129.3,43.6c0,0.2,0,0.5-0.2,0.7c-0.2,0.1-0.4,0.2-0.8,0.2h-4.9v-2.8h4.9c0.4,0,0.6,0,0.8,0.2
		c0.2,0.2,0.2,0.5,0.2,0.7V43.6z"/>
	<path fill="#A1A0A2" d="M140.1,39.8l-5.5,10.5h2.3L138,48h6.1l1.1,2.3h2.5l-5.5-10.5H140.1z M138.9,46.1l2.2-4.3l2.1,4.3H138.9z"/>
	<polygon fill="#A1A0A2" points="156.4,43.8 153.1,39.8 150.1,39.8 155.1,45.5 155.1,50.3 157.3,50.3 157.3,45.5 162.4,39.8 
		159.7,39.8 	"/>
	<path fill="#A1A0A2" d="M172.8,46.1l-4.5-6.3h-1.8v10.5h1.8v-6.5l-0.1-1.1c0.1,0.3,0.2,0.6,0.6,1.1l3.6,5.3h0.4l3.6-5.2
		c0.1-0.1,0.4-0.6,0.6-1.1c-0.1,0.6-0.1,1-0.1,1.1v6.5h2.1V39.8h-1.8L172.8,46.1z"/>
	<polygon fill="#A1A0A2" points="187.5,45.7 192,45.7 192,43.9 187.5,43.9 187.5,41.6 195.1,41.6 195.1,39.8 185.3,39.8 185.3,50.3 
		195.2,50.3 195.2,48.4 187.5,48.4 	"/>
	<path fill="#A1A0A2" d="M210.2,45.3l0.1,1.8c-0.8-1-0.8-0.9-1.1-1.1l-6.8-6.2h-1.5v10.5h2v-5.7c0-0.2,0-0.3,0-0.5
		c0-0.1,0-0.2,0-0.3c0-0.3,0-0.6-0.1-0.8c0.3,0.4,0.7,0.8,0.8,0.8l7.1,6.5h1.5V39.8h-2V45.3z"/>
	<polygon fill="#A1A0A2" points="216.4,41.7 220.9,41.7 220.9,50.3 223.1,50.3 223.1,41.7 227.5,41.7 227.5,39.8 216.4,39.8 	"/>
	<path fill="#A1A0A2" d="M240.7,44.5c-0.5-0.5-1.3-0.5-1.9-0.5h-6v-2.3h6.3v1.2l2-0.5v-0.3c0-0.4,0-1.3-0.5-1.8
		c-0.4-0.5-1.3-0.5-1.8-0.5H233c-0.4,0-1.2,0-1.7,0.5c-0.5,0.5-0.5,1.6-0.5,2v1.1c0,0.4,0,1.5,0.5,2c0.4,0.4,1.3,0.5,1.7,0.5h6.3
		v2.5h-6.9v-1.2l-2,0.4v0.2c0,0.4,0,1.4,0.5,2c0.5,0.5,1.3,0.5,1.7,0.5h6.5c0.3,0,1.1,0,1.6-0.5c0.4-0.4,0.5-1.1,0.5-1.7v-1.9
		C241.3,45.5,241.1,44.9,240.7,44.5z"/>
</g>
</svg>
