<?xml version="1.0" encoding="utf-8"?>
<!-- Generator: Adobe Illustrator 19.2.0, SVG Export Plug-In . SVG Version: 6.00 Build 0)  -->
<svg version="1.1" id="Layer_1" xmlns="http://www.w3.org/2000/svg" xmlns:xlink="http://www.w3.org/1999/xlink" x="0px" y="0px"
	 viewBox="0 0 488.5 104.2" style="enable-background:new 0 0 488.5 104.2;" xml:space="preserve">
<style type="text/css">
	.st0{fill:#4077BB;}
	.st1{fill:#6598CB;}
	.st2{fill:#4586C6;}
	.st3{fill:#3F6DB4;}
	.st4{fill:#3853A4;}
	.st5{fill:#154E9E;}
	.st6{fill:#231F20;}
</style>
<g id="XMLID_1268_">
	<g id="XMLID_1558_">
		<path id="XMLID_1564_" class="st0" d="M4.1,95.1l39.8-43.2h40.4L42.8,96.8c-1.9,2.1-4.6,3.3-7.5,3.3H6.3
			C3.7,100.1,2.3,97,4.1,95.1z"/>
		<path id="XMLID_1563_" class="st1" d="M123.9,95.1L84.1,51.9H43.7l41.4,44.9c1.9,2.1,4.6,3.3,7.5,3.3h29.1
			C124.3,100.1,125.6,97,123.9,95.1z"/>
		<polygon id="XMLID_1562_" class="st2" points="63.9,73.9 84.1,52 84,51.9 43.8,51.9 43.7,52 		"/>
		<path id="XMLID_1561_" class="st3" d="M123.9,8.8L84.1,51.9H43.7L85.1,7C87,5,89.7,3.8,92.6,3.8h29.1
			C124.3,3.8,125.6,6.9,123.9,8.8z"/>
		<path id="XMLID_1560_" class="st4" d="M4.1,8.8l39.8,43.2h40.4L42.8,7c-1.9-2.1-4.6-3.3-7.5-3.3H6.3C3.7,3.8,2.3,6.9,4.1,8.8z"/>
		<polygon id="XMLID_1559_" class="st5" points="64,30 43.9,51.9 43.9,51.9 84.1,51.9 84.2,51.9 		"/>
	</g>
	<g>
		<path class="st6" d="M143.6,68.9V33.1c0-2.2,1.7-3.9,3.9-3.9h25.3c1.9,0,3.4,1.6,3.4,3.4c0,1.9-1.6,3.4-3.4,3.4h-21.5v11.3h18.7
			c1.9,0,3.4,1.6,3.4,3.5c0,1.9-1.6,3.4-3.4,3.4h-18.7v11.7H173c1.9,0,3.4,1.6,3.4,3.4c0,1.9-1.6,3.4-3.4,3.4h-25.6
			C145.2,72.8,143.6,71.1,143.6,68.9z"/>
		<path class="st6" d="M182.9,66.7l12.9-16l-12.2-15.1c-0.6-0.8-1.2-1.8-1.2-2.9c0-2.1,1.6-3.7,3.8-3.7c1.6,0,2.5,0.6,3.5,1.9
			l11,14.5l10.9-14.2c1-1.4,2.1-2.1,3.7-2.1c1.7,0,3.5,1.4,3.5,3.5c0,1.1-0.4,2-1.2,2.9l-12.2,15.2l12.8,16c0.6,0.8,1.2,1.7,1.2,2.9
			c0,2.1-1.6,3.7-3.8,3.7c-1.6,0-2.5-0.6-3.5-1.9L200.5,56L189,71c-1.1,1.4-2.1,2.1-3.7,2.1c-1.7,0-3.5-1.4-3.5-3.5
			C181.7,68.5,182.2,67.6,182.9,66.7z"/>
		<path class="st6" d="M224.2,67.8l16.2-36.1c0.9-1.9,2.4-3.1,4.6-3.1h0.4c2.2,0,3.7,1.2,4.5,3.1L266,67.8c0.3,0.6,0.4,1.1,0.4,1.6
			c0,2.1-1.6,3.7-3.6,3.7c-1.8,0-3-1.1-3.7-2.7l-3.5-8.1h-21.1l-3.7,8.4c-0.6,1.6-1.9,2.4-3.5,2.4c-2,0-3.5-1.6-3.5-3.5
			C223.7,69,223.9,68.4,224.2,67.8z M252.7,55.5L245,37.9l-7.6,17.6H252.7z"/>
		<path class="st6" d="M279.2,36.3h-10.6c-2,0-3.5-1.6-3.5-3.5s1.6-3.5,3.5-3.5h28.9c1.9,0,3.5,1.6,3.5,3.5s-1.6,3.5-3.5,3.5h-10.6
			v32.9c0,2.1-1.7,3.8-3.9,3.8c-2.1,0-3.9-1.7-3.9-3.8V36.3z"/>
		<path class="st6" d="M303.3,51.1V51c0-12.2,9.4-22.5,22.8-22.5s22.7,10.1,22.7,22.4V51c0,12.2-9.4,22.5-22.8,22.5
			S303.3,63.4,303.3,51.1z M340.8,51.1V51c0-8.5-6.2-15.5-14.8-15.5s-14.7,6.9-14.7,15.4V51c0,8.5,6.2,15.4,14.8,15.4
			S340.8,59.6,340.8,51.1z"/>
		<path class="st6" d="M356.1,54.3V32.7c0-2.1,1.7-3.8,3.9-3.8c2.1,0,3.8,1.7,3.8,3.8V54c0,8.1,4.2,12.4,11,12.4
			c6.8,0,10.9-4,10.9-12.1V32.7c0-2.1,1.7-3.8,3.9-3.8c2.1,0,3.8,1.7,3.8,3.8v21.2c0,13-7.3,19.5-18.7,19.5
			C363.3,73.5,356.1,66.9,356.1,54.3z"/>
		<path class="st6" d="M400.7,51.1V51c0-12.4,9.3-22.5,22.4-22.5c6.7,0,11.1,2,14.9,4.9c0.8,0.6,1.5,1.7,1.5,3
			c0,2.1-1.7,3.7-3.8,3.7c-1.1,0-1.8-0.4-2.3-0.7c-3-2.4-6.2-3.9-10.4-3.9c-8.3,0-14.4,6.8-14.4,15.4V51c0,8.5,6,15.4,14.4,15.4
			c4.6,0,7.7-1.5,10.9-4.2c0.6-0.5,1.4-0.9,2.3-0.9c1.9,0,3.6,1.6,3.6,3.5c0,1.2-0.6,2.1-1.2,2.7c-4.1,3.6-8.8,5.8-15.8,5.8
			C410.1,73.5,400.7,63.6,400.7,51.1z"/>
		<path class="st6" d="M447.2,32.7c0-2.1,1.7-3.8,3.9-3.8c2.1,0,3.8,1.7,3.8,3.8v14.6h20.8V32.7c0-2.1,1.7-3.8,3.8-3.8
			c2.2,0,3.9,1.7,3.9,3.8v36.6c0,2.1-1.7,3.8-3.9,3.8c-2.1,0-3.8-1.7-3.8-3.8V54.4h-20.8v14.9c0,2.1-1.7,3.8-3.8,3.8
			c-2.2,0-3.9-1.7-3.9-3.8V32.7z"/>
	</g>
</g>
</svg>
