<?xml version="1.0" encoding="utf-8"?>
<!-- Generator: Adobe Illustrator 18.1.1, SVG Export Plug-In . SVG Version: 6.00 Build 0)  -->
<svg version="1.1" id="Layer_1" xmlns="http://www.w3.org/2000/svg" xmlns:xlink="http://www.w3.org/1999/xlink" x="0px" y="0px"
	 viewBox="0 0 193.6 51" enable-background="new 0 0 193.6 51" xml:space="preserve">
<g>
	<path fill="#17479E" d="M1,49.8h9.6V27.8c0-4.4,2.4-7,6.1-7c3.3,0,5.3,2,5.3,5.6v23.3h9.5v-22c0-4.3,2.5-6.9,6.1-6.9
		c3.3,0,5.4,2,5.4,5.5v23.3h9.6V24.4c0-7.4-4.7-11.9-11.9-11.9c-4.3,0-7.8,1.8-10.3,5.3c-2.4-3.7-5.5-5.3-10.1-5.3
		c-4,0-7.4,1.7-10,5.1v-4H1V49.8z"/>
	<path fill="#17479E" d="M55.6,49.8h9.7V13.5h-9.7V49.8z M55.6,9.5h9.7V0.7h-9.7V9.5z"/>
	<path fill="#17479E" d="M89.8,35.6c-0.7,4.3-2.9,6.5-6.5,6.5c-4.6,0-7.2-3.8-7.2-10.9c0-7.5,2.3-11.3,7.2-11.3
		c3.6,0,5.8,2.1,6.3,5.9h9.6c-0.7-8.8-6.6-14.1-16-14.1C72.6,11.7,66,18.9,66,31.1c0,12.2,6.4,19.4,16.9,19.4
		c9.3,0,15.6-5.7,16.5-14.9H89.8z"/>
	<path fill="#17479E" d="M100,49.8h9.7V29.6c0-5.5,2.7-8.2,8-8.2h3.2v-8.9c-0.5-0.1-1-0.1-1.4-0.1c-4.7,0-7.9,2-10.5,7v-6h-9V49.8z"
		/>
	<path fill="#17479E" d="M129.8,31.1c0-7.2,3.1-11.2,8.5-11.2c5.4,0,8.5,4,8.5,11.2s-3.1,11.3-8.5,11.3
		C132.9,42.4,129.8,38.3,129.8,31.1 M119.9,31.1c0,12.1,7,19.4,18.4,19.4c11.4,0,18.4-7.3,18.4-19.4c0-12.1-7-19.4-18.4-19.4
		C126.9,11.7,119.9,19,119.9,31.1"/>
	<path fill="#17479E" d="M156.5,37.5v0.4c0,7.8,5.9,12.6,16,12.6c11.1,0,17-4.5,17-12.6c0-6.6-4.1-8.9-12.5-10.9
		c-6.9-1.6-9.9-1.9-9.9-4.4c0-2.3,1.8-3.3,5.5-3.3c3.9,0,6.2,1.8,6.3,4.8h9.4c-0.3-7.8-6.1-12.4-15.8-12.4
		c-9.3,0-14.9,4.8-14.9,12.1c0,6.2,4,8.8,12.6,10.9c6.4,1.6,9.6,1.4,9.6,4.6c0,2.2-2.1,3.6-5.9,3.6c-5,0-7.4-1.8-7.6-5.5H156.5z"/>
	<path fill="#17479E" d="M189.3,15h0.6c0.3,0,0.5,0,0.6-0.1c0.1-0.1,0.2-0.2,0.2-0.4c0-0.1,0-0.2-0.1-0.3c-0.1-0.1-0.1-0.1-0.2-0.2
		c-0.1,0-0.3-0.1-0.5-0.1h-0.6V15z M188.7,16.8v-3.2h1.1c0.4,0,0.6,0,0.8,0.1c0.2,0.1,0.3,0.2,0.4,0.3c0.1,0.2,0.1,0.3,0.1,0.5
		c0,0.2-0.1,0.4-0.2,0.6c-0.2,0.2-0.4,0.3-0.7,0.3c0.1,0.1,0.2,0.1,0.3,0.2c0.1,0.1,0.3,0.3,0.5,0.6l0.4,0.6h-0.6l-0.3-0.5
		c-0.2-0.4-0.4-0.6-0.5-0.7c-0.1-0.1-0.2-0.1-0.4-0.1h-0.3v1.4H188.7z M190,12.7c-0.4,0-0.8,0.1-1.2,0.3c-0.4,0.2-0.7,0.5-0.9,0.9
		c-0.2,0.4-0.3,0.8-0.3,1.2c0,0.4,0.1,0.8,0.3,1.2c0.2,0.4,0.5,0.7,0.9,0.9c0.4,0.2,0.8,0.3,1.2,0.3c0.4,0,0.8-0.1,1.2-0.3
		c0.4-0.2,0.7-0.5,0.9-0.9c0.2-0.4,0.3-0.8,0.3-1.2c0-0.4-0.1-0.8-0.3-1.2c-0.2-0.4-0.5-0.7-0.9-0.9C190.9,12.8,190.5,12.7,190,12.7
		 M190,12.2c0.5,0,1,0.1,1.5,0.4c0.5,0.3,0.8,0.6,1.1,1.1c0.3,0.5,0.4,1,0.4,1.5c0,0.5-0.1,1-0.4,1.5c-0.3,0.5-0.6,0.8-1.1,1.1
		s-1,0.4-1.5,0.4c-0.5,0-1-0.1-1.5-0.4c-0.5-0.3-0.8-0.6-1.1-1.1c-0.3-0.5-0.4-1-0.4-1.5c0-0.5,0.1-1,0.4-1.5
		c0.3-0.5,0.6-0.8,1.1-1.1C189.1,12.3,189.5,12.2,190,12.2"/>
</g>
</svg>
