<?xml version="1.0" encoding="utf-8"?>
<!-- Generator: Adobe Illustrator 19.2.0, SVG Export Plug-In . SVG Version: 6.00 Build 0)  -->
<svg version="1.1" id="Layer_1" xmlns="http://www.w3.org/2000/svg" xmlns:xlink="http://www.w3.org/1999/xlink" x="0px" y="0px"
	 viewBox="0 0 329.7 153.3" style="enable-background:new 0 0 329.7 153.3;" xml:space="preserve">
<style type="text/css">
	.st0{fill:#82918F;}
	.st1{fill:url(#SVGID_1_);}
	.st2{fill:url(#SVGID_2_);}
	.st3{fill:#1296CF;}
</style>
<g>
	<path class="st0" d="M170.3,129.6h14.1c6.9,0,11.3-2.1,11.3-6.7c0-3.8-4.9-4.8-9.8-4.8h-11.8L170.3,129.6z M162.6,111.7h25.1
		c12.7,0.1,21.8,2.7,21.8,11.1s-11.4,13.3-24.4,13.3H168l-4.7,13.7h-13.8L162.6,111.7z"/>
	<path class="st0" d="M236.9,119.9h0.2l3,15.2h-16.6L236.9,119.9z M232.6,111.7l-36.8,38.1h14.5l7.8-8.5h23.3l2,8.5H257l-10.4-38.1
		H232.6z"/>
	<polygon class="st0" points="309.5,111.7 293.6,124.3 284.8,111.7 269.9,111.7 284.4,129.7 256.1,149.8 272.7,149.8 290.4,136.2 
		300.2,149.8 315.3,149.8 299.8,130.1 325.7,111.7 	"/>
</g>
<g>
	<linearGradient id="SVGID_1_" gradientUnits="userSpaceOnUse" x1="5.8842" y1="115.0057" x2="142.6848" y2="19.2169">
		<stop  offset="0" style="stop-color:#1296CF"/>
		<stop  offset="0.3144" style="stop-color:#1497CF"/>
		<stop  offset="0.4542" style="stop-color:#1B9AD1"/>
		<stop  offset="0.5595" style="stop-color:#28A0D3"/>
		<stop  offset="0.6474" style="stop-color:#3AA8D7"/>
		<stop  offset="0.7246" style="stop-color:#51B2DC"/>
		<stop  offset="0.7941" style="stop-color:#6EBFE2"/>
		<stop  offset="0.858" style="stop-color:#91CEE9"/>
		<stop  offset="0.9174" style="stop-color:#B9E0F1"/>
		<stop  offset="0.9712" style="stop-color:#E4F3FA"/>
		<stop  offset="1" style="stop-color:#FFFFFF"/>
	</linearGradient>
	<path class="st1" d="M12.9,118.4C2,105.4,20.8,72,54.7,43.7c33.9-28.3,70.2-40.8,81-27.8c10.8,13-7.9,46.4-41.9,74.7
		C69,111.3,43,123.5,26.5,123.5C20.5,123.5,15.8,121.9,12.9,118.4 M45.8,32.9C10.3,62.6-5.7,101.9,10,120.7
		c15.7,18.9,57.3,10.2,92.8-19.5c35.5-29.6,51.5-68.9,35.8-87.8c-5.6-6.7-14.6-10-25.3-10C93.9,3.5,68.6,13.9,45.8,32.9"/>
	<linearGradient id="SVGID_2_" gradientUnits="userSpaceOnUse" x1="163.9108" y1="32.3581" x2="35.6511" y2="139.9809">
		<stop  offset="0" style="stop-color:#262142"/>
		<stop  offset="0.3576" style="stop-color:#282344"/>
		<stop  offset="0.4976" style="stop-color:#2F2A4A"/>
		<stop  offset="0.5995" style="stop-color:#3B3654"/>
		<stop  offset="0.683" style="stop-color:#4C4763"/>
		<stop  offset="0.755" style="stop-color:#625E76"/>
		<stop  offset="0.8193" style="stop-color:#7D7A8D"/>
		<stop  offset="0.8778" style="stop-color:#9D9BAA"/>
		<stop  offset="0.9318" style="stop-color:#C3C1CB"/>
		<stop  offset="0.9801" style="stop-color:#ECEBEE"/>
		<stop  offset="1" style="stop-color:#FFFFFF"/>
	</linearGradient>
	<path class="st2" d="M38.3,137.4c-10.8-13,7.9-46.4,41.9-74.7c33.9-28.3,70.2-40.8,81-27.8c10.8,13-7.9,46.4-41.9,74.7
		c-24.8,20.7-50.9,32.9-67.3,32.9C46,142.6,41.3,140.9,38.3,137.4 M71.3,52c-35.5,29.6-51.5,68.9-35.8,87.8c5.6,6.7,14.4,9.9,25,10
		h0.6c19.3-0.1,44.5-10.5,67.2-29.4c35.5-29.6,51.5-68.9,35.8-87.8c-5.6-6.7-14.6-10-25.3-10C119.4,22.6,94.1,33,71.3,52"/>
	<path class="st3" d="M61.6,112.5c-22.2,11.8-41.4,14.7-48.8,5.9c-2.8-3.4-3.6-8.1-2.7-13.8c-2.1-0.1-4.1-0.3-6.2-0.3
		c0.3,6.4,2.2,12.1,6,16.6c12.6,15.1,41.9,12.5,71.3-4.4C74.7,115.1,68.1,113.8,61.6,112.5"/>
</g>
</svg>
