<?xml version="1.0" encoding="utf-8"?>
<!-- Generator: Adobe Illustrator 19.2.0, SVG Export Plug-In . SVG Version: 6.00 Build 0)  -->
<svg version="1.1" id="Layer_1" xmlns="http://www.w3.org/2000/svg" xmlns:xlink="http://www.w3.org/1999/xlink" x="0px" y="0px"
	 viewBox="0 0 776 153.3" style="enable-background:new 0 0 776 153.3;" xml:space="preserve">
<style type="text/css">
	.st0{fill:#849FAC;}
	.st1{fill:#F58D39;}
</style>
<g>
	<g id="XMLID_1218_">
		<g id="XMLID_1247_">
			<path id="XMLID_1248_" class="st0" d="M213.3,110.3V30.7h6.2c1.5,0,2.4,0.7,2.8,2.2l0.9,7c2.5-3.1,5.4-5.6,8.7-7.5
				c3.3-1.9,7-2.8,11.3-2.8c3.4,0,6.5,0.7,9.3,2c2.8,1.3,5.1,3.2,7.1,5.8c2,2.6,3.5,5.7,4.5,9.5c1.1,3.8,1.6,8.2,1.6,13.1
				c0,4.4-0.6,8.4-1.8,12.2c-1.2,3.8-2.8,7-5,9.8c-2.2,2.8-4.9,4.9-8.1,6.5c-3.2,1.6-6.8,2.4-10.8,2.4c-3.7,0-6.8-0.6-9.4-1.8
				c-2.6-1.2-4.9-2.9-6.9-5.1v26.3H213.3z M239.8,38.1c-3.4,0-6.4,0.8-8.9,2.4c-2.6,1.6-4.9,3.8-7.1,6.6v28.8c1.9,2.6,4,4.4,6.3,5.5
				c2.3,1.1,4.8,1.6,7.7,1.6c5.5,0,9.8-2,12.7-5.9c3-4,4.5-9.6,4.5-16.9c0-3.9-0.3-7.2-1-10c-0.7-2.8-1.7-5.1-3-6.8
				c-1.3-1.8-2.9-3.1-4.7-3.9C244.3,38.5,242.2,38.1,239.8,38.1z"/>
		</g>
		<g id="XMLID_1244_">
			<path id="XMLID_1245_" class="st0" d="M318.6,41.3c-0.3,0.4-0.6,0.8-0.9,1c-0.3,0.2-0.7,0.3-1.3,0.3c-0.6,0-1.2-0.2-1.9-0.7
				c-0.7-0.5-1.6-1-2.6-1.6c-1.1-0.6-2.3-1.1-3.8-1.6c-1.5-0.5-3.4-0.7-5.5-0.7c-2.9,0-5.5,0.5-7.7,1.6c-2.2,1-4.1,2.5-5.6,4.5
				c-1.5,2-2.6,4.3-3.4,7.1c-0.8,2.8-1.1,5.9-1.1,9.3c0,3.6,0.4,6.8,1.2,9.6c0.8,2.8,2,5.1,3.5,7c1.5,1.9,3.3,3.4,5.4,4.3
				c2.1,1,4.5,1.5,7.2,1.5c2.5,0,4.6-0.3,6.3-0.9c1.6-0.6,3-1.3,4.1-2c1.1-0.7,2-1.4,2.7-2c0.7-0.6,1.4-0.9,2.1-0.9
				c0.9,0,1.6,0.3,2,1l2.9,3.8c-2.6,3.2-5.8,5.5-9.7,6.9c-3.9,1.5-7.9,2.2-12.2,2.2c-3.7,0-7.2-0.7-10.4-2.1c-3.2-1.4-6-3.4-8.3-6
				c-2.3-2.6-4.2-5.8-5.5-9.6c-1.3-3.8-2-8.1-2-13c0-4.4,0.6-8.5,1.8-12.3c1.2-3.8,3-7,5.4-9.7c2.4-2.7,5.3-4.8,8.8-6.4
				c3.5-1.5,7.5-2.3,12-2.3c4.2,0,7.8,0.7,11,2c3.2,1.3,6,3.3,8.5,5.7L318.6,41.3z"/>
		</g>
		<g id="XMLID_1240_">
			<path id="XMLID_1241_" class="st0" d="M403.7,90.1h-8.8c-1,0-1.8-0.3-2.5-0.8c-0.6-0.5-1.1-1.1-1.4-1.9l-7.9-20.3h-37.7
				l-7.9,20.3c-0.3,0.7-0.7,1.3-1.4,1.9c-0.7,0.6-1.5,0.8-2.5,0.8h-8.8l33.6-84.1h11.5L403.7,90.1z M348.6,58.9H380l-13.2-34.2
				c-0.8-2.1-1.7-4.7-2.5-7.9c-0.4,1.6-0.8,3.1-1.2,4.4c-0.4,1.4-0.8,2.5-1.2,3.6L348.6,58.9z"/>
		</g>
		<g id="XMLID_1237_">
			<path id="XMLID_1238_" class="st0" d="M412.7,90.1V30.7h6.2c1.5,0,2.4,0.7,2.8,2.2l0.8,6.1c2.2-2.7,4.6-4.9,7.4-6.6
				c2.7-1.7,5.9-2.6,9.5-2.6c4,0,7.3,1.1,9.8,3.4c2.5,2.2,4.3,5.2,5.4,9c0.8-2.2,1.9-4,3.3-5.6c1.3-1.6,2.9-2.8,4.6-3.9
				c1.7-1,3.5-1.8,5.4-2.2c1.9-0.5,3.8-0.7,5.8-0.7c3.1,0,5.9,0.5,8.4,1.5c2.4,1,4.5,2.5,6.2,4.4c1.7,1.9,3,4.3,3.9,7.1
				c0.9,2.8,1.3,6,1.3,9.6v37.9h-10.4V52.3c0-4.6-1-8.2-3.1-10.6c-2-2.4-5-3.6-8.9-3.6c-1.7,0-3.4,0.3-4.9,0.9
				c-1.6,0.6-2.9,1.5-4.1,2.7c-1.2,1.2-2.1,2.7-2.8,4.4c-0.7,1.8-1,3.8-1,6.2v37.9h-10.4V52.3c0-4.8-1-8.3-2.9-10.7
				c-1.9-2.3-4.7-3.5-8.4-3.5c-2.6,0-5,0.7-7.2,2.1c-2.2,1.4-4.2,3.3-6.1,5.7v44.3H412.7z"/>
		</g>
		<g id="XMLID_1233_">
			<path id="XMLID_1234_" class="st0" d="M532.5,29.8c3.5,0,6.8,0.6,9.8,1.8c3,1.2,5.6,2.9,7.8,5.2c2.2,2.2,3.9,5,5.1,8.3
				c1.2,3.3,1.8,7.1,1.8,11.3c0,1.6-0.2,2.7-0.5,3.3c-0.4,0.6-1,0.8-2,0.8h-39.5c0.1,3.8,0.6,7,1.5,9.8c0.9,2.8,2.2,5.1,3.9,6.9
				c1.6,1.9,3.6,3.3,5.9,4.2c2.3,0.9,4.8,1.4,7.6,1.4c2.6,0,4.9-0.3,6.8-0.9c1.9-0.6,3.5-1.3,4.9-2c1.4-0.7,2.5-1.4,3.4-2
				c0.9-0.6,1.7-0.9,2.4-0.9c0.9,0,1.5,0.3,2,1l2.9,3.8c-1.3,1.6-2.8,2.9-4.6,4.1C550,87,548,88,546,88.7c-2,0.7-4.2,1.3-6.4,1.7
				c-2.2,0.4-4.3,0.6-6.5,0.6c-4.1,0-7.9-0.7-11.4-2.1c-3.5-1.4-6.5-3.4-9-6.1c-2.5-2.7-4.5-6-5.9-9.9c-1.4-4-2.1-8.5-2.1-13.6
				c0-4.1,0.6-8,1.9-11.6c1.3-3.6,3.1-6.7,5.5-9.4c2.4-2.6,5.3-4.7,8.7-6.2C524.4,30.5,528.2,29.8,532.5,29.8z M532.8,37.4
				c-5,0-9,1.5-11.9,4.4c-2.9,2.9-4.7,6.9-5.4,12.1h32.3c0-2.4-0.3-4.6-1-6.7c-0.7-2-1.6-3.8-2.9-5.2c-1.3-1.5-2.9-2.6-4.7-3.4
				C537.3,37.9,535.1,37.4,532.8,37.4z"/>
		</g>
		<g id="XMLID_1230_">
			<path id="XMLID_1231_" class="st0" d="M570.5,90.1V30.7h6c1.1,0,1.9,0.2,2.4,0.7c0.4,0.4,0.7,1.2,0.9,2.2l0.7,9.3
				c2-4.1,4.5-7.4,7.5-9.7c3-2.3,6.5-3.5,10.5-3.5c1.7,0,3.1,0.2,4.5,0.6c1.3,0.4,2.5,0.9,3.7,1.6l-1.3,7.8c-0.3,1-0.9,1.5-1.8,1.5
				c-0.6,0-1.4-0.2-2.5-0.6c-1.1-0.4-2.7-0.6-4.8-0.6c-3.6,0-6.7,1.1-9.1,3.2c-2.4,2.1-4.5,5.2-6.1,9.2v37.9H570.5z"/>
		</g>
		<g id="XMLID_1226_">
			<path id="XMLID_1227_" class="st0" d="M631.7,12c0,1-0.2,2-0.6,2.8c-0.4,0.9-1,1.7-1.6,2.3c-0.7,0.7-1.5,1.2-2.4,1.6
				c-0.9,0.4-1.9,0.6-2.9,0.6c-1,0-2-0.2-2.8-0.6c-0.9-0.4-1.7-0.9-2.3-1.6c-0.7-0.7-1.2-1.5-1.6-2.3c-0.4-0.9-0.6-1.8-0.6-2.8
				s0.2-2,0.6-2.9c0.4-0.9,0.9-1.7,1.6-2.4c0.7-0.7,1.5-1.2,2.3-1.6c0.9-0.4,1.8-0.6,2.8-0.6c1,0,2,0.2,2.9,0.6
				c0.9,0.4,1.7,0.9,2.4,1.6c0.7,0.7,1.2,1.5,1.6,2.4C631.5,10.1,631.7,11,631.7,12z M629.4,30.7v59.4h-10.4V30.7H629.4z"/>
		</g>
		<g id="XMLID_1223_">
			<path id="XMLID_1224_" class="st0" d="M688.3,41.3c-0.3,0.4-0.6,0.8-0.9,1c-0.3,0.2-0.8,0.3-1.4,0.3c-0.6,0-1.2-0.2-1.9-0.7
				c-0.7-0.5-1.5-1-2.6-1.6c-1.1-0.6-2.3-1.1-3.8-1.6c-1.5-0.5-3.4-0.7-5.5-0.7c-2.9,0-5.5,0.5-7.7,1.6c-2.2,1-4.1,2.5-5.6,4.5
				c-1.5,2-2.6,4.3-3.4,7.1c-0.8,2.8-1.1,5.9-1.1,9.3c0,3.6,0.4,6.8,1.2,9.6c0.8,2.8,2,5.1,3.5,7c1.5,1.9,3.3,3.4,5.4,4.3
				c2.1,1,4.5,1.5,7.2,1.5c2.5,0,4.6-0.3,6.3-0.9c1.6-0.6,3-1.3,4.1-2c1.1-0.7,2-1.4,2.7-2c0.7-0.6,1.4-0.9,2.1-0.9
				c0.9,0,1.6,0.3,2,1l2.9,3.8c-2.6,3.2-5.8,5.5-9.7,6.9c-3.9,1.5-8,2.2-12.3,2.2c-3.7,0-7.2-0.7-10.4-2.1c-3.2-1.4-5.9-3.4-8.3-6
				c-2.4-2.6-4.2-5.8-5.5-9.6c-1.3-3.8-2-8.1-2-13c0-4.4,0.6-8.5,1.8-12.3c1.2-3.8,3-7,5.4-9.7c2.4-2.7,5.3-4.8,8.8-6.4
				c3.5-1.5,7.5-2.3,12-2.3c4.2,0,7.8,0.7,11,2c3.2,1.3,6,3.3,8.5,5.7L688.3,41.3z"/>
		</g>
		<g id="XMLID_1219_">
			<path id="XMLID_1220_" class="st0" d="M746.2,90.1h-4.6c-1,0-1.8-0.2-2.5-0.5c-0.6-0.3-1-1-1.2-2l-1.2-5.5
				c-1.6,1.4-3.1,2.7-4.6,3.8c-1.5,1.1-3,2.1-4.7,2.8c-1.6,0.8-3.4,1.3-5.2,1.7c-1.8,0.4-3.9,0.6-6.2,0.6c-2.3,0-4.5-0.3-6.5-1
				c-2-0.7-3.8-1.6-5.2-2.9c-1.5-1.3-2.7-2.9-3.5-4.9c-0.9-2-1.3-4.3-1.3-7c0-2.3,0.6-4.6,1.9-6.8c1.3-2.2,3.4-4.1,6.2-5.8
				c2.9-1.7,6.6-3.1,11.3-4.2c4.6-1.1,10.3-1.6,17.1-1.6v-4.7c0-4.6-1-8.2-3-10.5c-2-2.4-4.9-3.6-8.8-3.6c-2.6,0-4.7,0.3-6.4,1
				c-1.7,0.6-3.2,1.4-4.5,2.2c-1.3,0.8-2.4,1.5-3.3,2.2c-0.9,0.6-1.8,1-2.7,1c-0.7,0-1.3-0.2-1.8-0.6c-0.5-0.4-0.9-0.8-1.3-1.4
				l-1.9-3.3c3.3-3.2,6.8-5.5,10.6-7.1c3.8-1.6,8-2.3,12.6-2.3c3.3,0,6.3,0.5,8.8,1.6c2.6,1.1,4.8,2.6,6.5,4.6c1.8,2,3.1,4.3,4,7.1
				c0.9,2.8,1.3,5.8,1.3,9.2V90.1z M719.1,83.7c1.8,0,3.5-0.2,5-0.6c1.5-0.4,3-0.9,4.3-1.6c1.4-0.7,2.6-1.5,3.9-2.5
				c1.2-1,2.4-2.1,3.6-3.3V63.5c-4.8,0-8.9,0.3-12.3,0.9c-3.4,0.6-6.1,1.4-8.2,2.4c-2.1,1-3.7,2.2-4.6,3.5c-1,1.3-1.4,2.8-1.4,4.5
				c0,1.6,0.2,2.9,0.8,4.1c0.5,1.2,1.2,2.1,2.1,2.8c0.9,0.7,1.9,1.3,3.1,1.6C716.5,83.6,717.8,83.7,719.1,83.7z"/>
		</g>
	</g>
	<g id="XMLID_1120_">
		<g id="XMLID_1214_">
			<path id="XMLID_1215_" class="st1" d="M251.5,135.8v11.1H248v-26.6h7.5c1.7,0,3.1,0.2,4.3,0.5c1.2,0.3,2.2,0.8,3,1.5
				c0.8,0.6,1.4,1.4,1.8,2.3c0.4,0.9,0.6,1.9,0.6,3.1c0,0.9-0.1,1.8-0.4,2.6c-0.3,0.8-0.7,1.6-1.3,2.2c-0.6,0.7-1.2,1.2-2.1,1.7
				c-0.8,0.5-1.7,0.8-2.7,1c0.4,0.3,0.8,0.6,1.2,1.1l7.7,10.6h-3.2c-0.7,0-1.1-0.2-1.4-0.8l-6.9-9.5c-0.2-0.3-0.4-0.5-0.7-0.7
				c-0.2-0.1-0.6-0.2-1.1-0.2H251.5z M251.5,133.2h3.8c1,0,2-0.1,2.8-0.4c0.8-0.3,1.5-0.6,2-1.1c0.5-0.5,0.9-1,1.2-1.7
				c0.3-0.6,0.4-1.4,0.4-2.1c0-1.6-0.5-2.8-1.6-3.6c-1-0.8-2.6-1.2-4.6-1.2h-3.9V133.2z"/>
		</g>
		<g id="XMLID_1210_">
			<path id="XMLID_1211_" class="st1" d="M278.2,127.8c1.1,0,2.2,0.2,3.1,0.6c0.9,0.4,1.8,0.9,2.5,1.6c0.7,0.7,1.2,1.6,1.6,2.6
				c0.4,1.1,0.6,2.2,0.6,3.6c0,0.5-0.1,0.9-0.2,1c-0.1,0.2-0.3,0.3-0.6,0.3h-12.4c0,1.2,0.2,2.2,0.5,3.1c0.3,0.9,0.7,1.6,1.2,2.2
				c0.5,0.6,1.1,1,1.8,1.3c0.7,0.3,1.5,0.4,2.4,0.4c0.8,0,1.5-0.1,2.1-0.3c0.6-0.2,1.1-0.4,1.5-0.6c0.4-0.2,0.8-0.4,1.1-0.6
				c0.3-0.2,0.5-0.3,0.7-0.3c0.3,0,0.5,0.1,0.6,0.3l0.9,1.2c-0.4,0.5-0.9,0.9-1.5,1.3c-0.6,0.4-1.2,0.7-1.8,0.9
				c-0.6,0.2-1.3,0.4-2,0.5c-0.7,0.1-1.4,0.2-2,0.2c-1.3,0-2.5-0.2-3.6-0.7c-1.1-0.4-2-1.1-2.8-1.9c-0.8-0.8-1.4-1.9-1.8-3.2
				c-0.4-1.2-0.7-2.7-0.7-4.3c0-1.3,0.2-2.5,0.6-3.7c0.4-1.1,1-2.1,1.7-3c0.8-0.8,1.7-1.5,2.8-2C275.7,128,276.9,127.8,278.2,127.8z
				 M278.3,130.2c-1.6,0-2.8,0.5-3.7,1.4c-0.9,0.9-1.5,2.2-1.7,3.8h10.2c0-0.8-0.1-1.5-0.3-2.1c-0.2-0.6-0.5-1.2-0.9-1.7
				c-0.4-0.5-0.9-0.8-1.5-1.1C279.7,130.4,279.1,130.2,278.3,130.2z"/>
		</g>
		<g id="XMLID_1207_">
			<path id="XMLID_1208_" class="st1" d="M295.8,147.2c-1.5,0-2.6-0.4-3.4-1.2c-0.8-0.8-1.2-2-1.2-3.6v-11.5H289
				c-0.2,0-0.4-0.1-0.5-0.2c-0.1-0.1-0.2-0.3-0.2-0.5v-1.3l3.1-0.4l0.8-5.8c0-0.2,0.1-0.3,0.2-0.5c0.1-0.1,0.3-0.2,0.5-0.2h1.7v6.5
				h5.4v2.4h-5.4v11.3c0,0.8,0.2,1.4,0.6,1.8c0.4,0.4,0.9,0.6,1.5,0.6c0.4,0,0.6,0,0.9-0.1c0.2-0.1,0.5-0.2,0.6-0.3
				c0.2-0.1,0.3-0.2,0.5-0.3c0.1-0.1,0.3-0.2,0.3-0.2c0.2,0,0.3,0.1,0.5,0.3l0.9,1.6c-0.6,0.5-1.2,0.9-2,1.3
				C297.5,147.1,296.7,147.2,295.8,147.2z"/>
		</g>
		<g id="XMLID_1203_">
			<path id="XMLID_1204_" class="st1" d="M317.7,146.9h-1.5c-0.3,0-0.6-0.1-0.8-0.1c-0.2-0.1-0.3-0.3-0.4-0.6l-0.4-1.8
				c-0.5,0.5-1,0.8-1.4,1.2c-0.5,0.3-1,0.7-1.5,0.9c-0.5,0.2-1.1,0.4-1.7,0.5c-0.6,0.1-1.2,0.2-1.9,0.2c-0.7,0-1.4-0.1-2-0.3
				c-0.6-0.2-1.2-0.5-1.6-0.9c-0.5-0.4-0.8-0.9-1.1-1.5c-0.3-0.6-0.4-1.4-0.4-2.2c0-0.7,0.2-1.5,0.6-2.2c0.4-0.7,1.1-1.3,2-1.8
				c0.9-0.5,2.1-1,3.5-1.3c1.5-0.3,3.3-0.5,5.4-0.5v-1.5c0-1.5-0.3-2.6-0.9-3.3c-0.6-0.8-1.6-1.1-2.8-1.1c-0.8,0-1.5,0.1-2,0.3
				c-0.6,0.2-1,0.4-1.4,0.7c-0.4,0.3-0.7,0.5-1,0.7c-0.3,0.2-0.6,0.3-0.9,0.3c-0.2,0-0.4-0.1-0.6-0.2c-0.2-0.1-0.3-0.3-0.4-0.4
				l-0.6-1.1c1-1,2.2-1.7,3.3-2.2c1.2-0.5,2.5-0.7,4-0.7c1,0,2,0.2,2.8,0.5c0.8,0.3,1.5,0.8,2,1.4c0.6,0.6,1,1.4,1.3,2.2
				c0.3,0.9,0.4,1.8,0.4,2.9V146.9z M309.1,144.9c0.6,0,1.1-0.1,1.6-0.2c0.5-0.1,0.9-0.3,1.4-0.5c0.4-0.2,0.8-0.5,1.2-0.8
				c0.4-0.3,0.8-0.7,1.1-1.1v-3.9c-1.5,0-2.8,0.1-3.9,0.3c-1.1,0.2-1.9,0.4-2.6,0.7c-0.7,0.3-1.1,0.7-1.4,1.1
				c-0.3,0.4-0.4,0.9-0.4,1.4c0,0.5,0.1,0.9,0.2,1.3c0.2,0.4,0.4,0.7,0.6,0.9c0.3,0.2,0.6,0.4,1,0.5
				C308.3,144.8,308.7,144.9,309.1,144.9z"/>
		</g>
		<g id="XMLID_1199_">
			<path id="XMLID_1200_" class="st1" d="M327,122.2c0,0.3-0.1,0.6-0.2,0.9c-0.1,0.3-0.3,0.5-0.5,0.7c-0.2,0.2-0.4,0.4-0.7,0.5
				c-0.3,0.1-0.6,0.2-0.9,0.2c-0.3,0-0.6-0.1-0.9-0.2c-0.3-0.1-0.5-0.3-0.7-0.5c-0.2-0.2-0.4-0.5-0.5-0.7c-0.1-0.3-0.2-0.6-0.2-0.9
				c0-0.3,0.1-0.6,0.2-0.9c0.1-0.3,0.3-0.5,0.5-0.8c0.2-0.2,0.5-0.4,0.7-0.5c0.3-0.1,0.6-0.2,0.9-0.2c0.3,0,0.6,0.1,0.9,0.2
				c0.3,0.1,0.5,0.3,0.7,0.5c0.2,0.2,0.4,0.5,0.5,0.8C327,121.6,327,121.9,327,122.2z M326.3,128.1v18.8H323v-18.8H326.3z"/>
		</g>
		<g id="XMLID_1196_">
			<path id="XMLID_1197_" class="st1" d="M335.8,119.6v27.3h-3.3v-27.3H335.8z"/>
		</g>
		<g id="XMLID_1192_">
			<path id="XMLID_1193_" class="st1" d="M362.4,146.9h-1.5c-0.3,0-0.6-0.1-0.8-0.1c-0.2-0.1-0.3-0.3-0.4-0.6l-0.4-1.8
				c-0.5,0.5-1,0.8-1.4,1.2c-0.5,0.3-1,0.7-1.5,0.9c-0.5,0.2-1.1,0.4-1.7,0.5c-0.6,0.1-1.2,0.2-1.9,0.2c-0.7,0-1.4-0.1-2.1-0.3
				c-0.6-0.2-1.2-0.5-1.6-0.9c-0.5-0.4-0.8-0.9-1.1-1.5c-0.3-0.6-0.4-1.4-0.4-2.2c0-0.7,0.2-1.5,0.6-2.2c0.4-0.7,1.1-1.3,2-1.8
				c0.9-0.5,2.1-1,3.6-1.3c1.5-0.3,3.2-0.5,5.4-0.5v-1.5c0-1.5-0.3-2.6-0.9-3.3c-0.6-0.8-1.5-1.1-2.8-1.1c-0.8,0-1.5,0.1-2,0.3
				c-0.6,0.2-1,0.4-1.4,0.7c-0.4,0.3-0.7,0.5-1,0.7c-0.3,0.2-0.6,0.3-0.9,0.3c-0.2,0-0.4-0.1-0.6-0.2c-0.2-0.1-0.3-0.3-0.4-0.4
				l-0.6-1.1c1-1,2.2-1.7,3.3-2.2c1.2-0.5,2.5-0.7,4-0.7c1,0,2,0.2,2.8,0.5c0.8,0.3,1.5,0.8,2.1,1.4c0.6,0.6,1,1.4,1.2,2.2
				c0.3,0.9,0.4,1.8,0.4,2.9V146.9z M353.8,144.9c0.6,0,1.1-0.1,1.6-0.2c0.5-0.1,0.9-0.3,1.3-0.5c0.4-0.2,0.8-0.5,1.2-0.8
				c0.4-0.3,0.8-0.7,1.1-1.1v-3.9c-1.5,0-2.8,0.1-3.9,0.3c-1.1,0.2-1.9,0.4-2.6,0.7c-0.7,0.3-1.2,0.7-1.5,1.1
				c-0.3,0.4-0.5,0.9-0.5,1.4c0,0.5,0.1,0.9,0.2,1.3c0.2,0.4,0.4,0.7,0.7,0.9c0.3,0.2,0.6,0.4,1,0.5
				C353,144.8,353.4,144.9,353.8,144.9z"/>
		</g>
		<g id="XMLID_1189_">
			<path id="XMLID_1190_" class="st1" d="M367.4,146.9v-18.8h2c0.5,0,0.8,0.2,0.9,0.7l0.3,2.1c0.8-0.9,1.7-1.6,2.7-2.2
				c1-0.6,2.2-0.8,3.5-0.8c1,0,1.9,0.2,2.7,0.5c0.8,0.3,1.4,0.8,2,1.5c0.5,0.6,0.9,1.4,1.2,2.2c0.3,0.9,0.4,1.8,0.4,2.9v12h-3.3v-12
				c0-1.4-0.3-2.5-1-3.3c-0.6-0.8-1.6-1.2-3-1.2c-1,0-1.9,0.2-2.7,0.7c-0.8,0.5-1.6,1.1-2.3,1.9v13.8H367.4z"/>
		</g>
		<g id="XMLID_1185_">
			<path id="XMLID_1186_" class="st1" d="M401,146.9c-0.5,0-0.8-0.2-0.9-0.7l-0.3-2.3c-0.8,1-1.7,1.8-2.7,2.3
				c-1,0.6-2.2,0.9-3.5,0.9c-1.1,0-2-0.2-2.9-0.6c-0.9-0.4-1.6-1-2.2-1.8c-0.6-0.8-1.1-1.8-1.4-3c-0.3-1.2-0.5-2.6-0.5-4.1
				c0-1.4,0.2-2.7,0.6-3.9c0.4-1.2,0.9-2.2,1.6-3.1c0.7-0.9,1.5-1.6,2.5-2.1c1-0.5,2.1-0.8,3.4-0.8c1.1,0,2.1,0.2,2.9,0.6
				c0.8,0.4,1.5,0.9,2.2,1.6v-10.4h3.3v27.3H401z M394.7,144.5c1.1,0,2-0.2,2.8-0.7c0.8-0.5,1.5-1.2,2.2-2.1v-9.1
				c-0.6-0.8-1.3-1.4-2-1.7c-0.7-0.3-1.5-0.5-2.4-0.5c-1.7,0-3.1,0.6-4,1.9c-0.9,1.2-1.4,3-1.4,5.3c0,1.2,0.1,2.3,0.3,3.1
				c0.2,0.9,0.5,1.6,0.9,2.2c0.4,0.6,0.9,1,1.5,1.2C393.2,144.4,393.9,144.5,394.7,144.5z"/>
		</g>
		<g id="XMLID_1181_">
			<path id="XMLID_1182_" class="st1" d="M420.1,135.8v11.1h-3.5v-26.6h7.5c1.7,0,3.1,0.2,4.3,0.5c1.2,0.3,2.2,0.8,3,1.5
				c0.8,0.6,1.4,1.4,1.8,2.3c0.4,0.9,0.6,1.9,0.6,3.1c0,0.9-0.2,1.8-0.4,2.6c-0.3,0.8-0.7,1.6-1.3,2.2c-0.6,0.7-1.3,1.2-2,1.7
				c-0.8,0.5-1.7,0.8-2.7,1c0.4,0.3,0.8,0.6,1.2,1.1l7.7,10.6h-3.2c-0.7,0-1.1-0.2-1.4-0.8l-6.9-9.5c-0.2-0.3-0.4-0.5-0.7-0.7
				c-0.3-0.1-0.6-0.2-1.1-0.2H420.1z M420.1,133.2h3.7c1,0,2-0.1,2.8-0.4c0.8-0.3,1.5-0.6,2-1.1c0.5-0.5,0.9-1,1.2-1.7
				c0.3-0.6,0.4-1.4,0.4-2.1c0-1.6-0.5-2.8-1.6-3.6c-1-0.8-2.6-1.2-4.6-1.2h-3.9V133.2z"/>
		</g>
		<g id="XMLID_1177_">
			<path id="XMLID_1178_" class="st1" d="M446.8,127.8c1.1,0,2.1,0.2,3.1,0.6c0.9,0.4,1.8,0.9,2.5,1.6c0.7,0.7,1.2,1.6,1.6,2.6
				c0.4,1.1,0.6,2.2,0.6,3.6c0,0.5-0.1,0.9-0.2,1c-0.1,0.2-0.3,0.3-0.6,0.3h-12.4c0,1.2,0.2,2.2,0.5,3.1c0.3,0.9,0.7,1.6,1.2,2.2
				c0.5,0.6,1.1,1,1.8,1.3c0.7,0.3,1.5,0.4,2.4,0.4c0.8,0,1.5-0.1,2.1-0.3c0.6-0.2,1.1-0.4,1.5-0.6c0.4-0.2,0.8-0.4,1.1-0.6
				c0.3-0.2,0.5-0.3,0.7-0.3c0.3,0,0.5,0.1,0.6,0.3l0.9,1.2c-0.4,0.5-0.9,0.9-1.5,1.3c-0.6,0.4-1.2,0.7-1.8,0.9
				c-0.6,0.2-1.3,0.4-2,0.5c-0.7,0.1-1.4,0.2-2,0.2c-1.3,0-2.5-0.2-3.6-0.7c-1.1-0.4-2-1.1-2.8-1.9c-0.8-0.8-1.4-1.9-1.9-3.2
				c-0.4-1.2-0.7-2.7-0.7-4.3c0-1.3,0.2-2.5,0.6-3.7c0.4-1.1,1-2.1,1.7-3c0.7-0.8,1.7-1.5,2.7-2C444.2,128,445.4,127.8,446.8,127.8z
				 M446.8,130.2c-1.6,0-2.8,0.5-3.7,1.4c-0.9,0.9-1.5,2.2-1.7,3.8h10.2c0-0.8-0.1-1.5-0.3-2.1c-0.2-0.6-0.5-1.2-0.9-1.7
				c-0.4-0.5-0.9-0.8-1.5-1.1C448.3,130.4,447.6,130.2,446.8,130.2z"/>
		</g>
		<g id="XMLID_1174_">
			<path id="XMLID_1175_" class="st1" d="M469.4,131.2c-0.2,0.3-0.4,0.4-0.7,0.4c-0.2,0-0.4-0.1-0.6-0.2c-0.2-0.1-0.5-0.3-0.9-0.5
				c-0.3-0.2-0.7-0.3-1.2-0.5c-0.5-0.2-1-0.2-1.7-0.2c-0.6,0-1,0.1-1.5,0.2c-0.4,0.1-0.8,0.3-1.1,0.6c-0.3,0.3-0.6,0.5-0.7,0.9
				c-0.2,0.3-0.3,0.7-0.3,1.1c0,0.5,0.1,0.9,0.4,1.2c0.3,0.3,0.6,0.6,1.1,0.8c0.4,0.2,1,0.4,1.6,0.6c0.6,0.2,1.2,0.4,1.8,0.6
				c0.6,0.2,1.2,0.4,1.8,0.7c0.6,0.2,1.1,0.6,1.6,0.9c0.5,0.4,0.8,0.8,1.1,1.4c0.3,0.5,0.4,1.2,0.4,1.9c0,0.9-0.2,1.7-0.5,2.4
				c-0.3,0.7-0.8,1.4-1.4,1.9c-0.6,0.5-1.3,1-2.2,1.3c-0.9,0.3-1.9,0.5-3,0.5c-1.3,0-2.5-0.2-3.5-0.6c-1.1-0.4-2-1-2.7-1.7l0.8-1.2
				c0.1-0.2,0.2-0.3,0.3-0.4c0.1-0.1,0.3-0.1,0.5-0.1c0.2,0,0.5,0.1,0.7,0.3c0.3,0.2,0.6,0.4,0.9,0.6c0.3,0.2,0.8,0.4,1.3,0.6
				c0.5,0.2,1.1,0.3,1.9,0.3c0.6,0,1.2-0.1,1.7-0.3c0.5-0.2,0.9-0.4,1.2-0.7c0.3-0.3,0.6-0.6,0.7-1c0.2-0.4,0.2-0.8,0.2-1.2
				c0-0.5-0.1-1-0.4-1.3c-0.3-0.3-0.6-0.6-1.1-0.9c-0.5-0.2-1-0.5-1.6-0.6c-0.6-0.2-1.2-0.4-1.8-0.6c-0.6-0.2-1.2-0.4-1.8-0.7
				c-0.6-0.3-1.1-0.6-1.6-1c-0.5-0.4-0.8-0.9-1.1-1.4c-0.3-0.6-0.4-1.2-0.4-2c0-0.7,0.1-1.4,0.4-2.1c0.3-0.7,0.7-1.2,1.3-1.7
				c0.6-0.5,1.2-0.9,2.1-1.2c0.8-0.3,1.7-0.4,2.8-0.4c1.2,0,2.3,0.2,3.3,0.6c1,0.4,1.8,0.9,2.6,1.6L469.4,131.2z"/>
		</g>
		<g id="XMLID_1171_">
			<path id="XMLID_1172_" class="st1" d="M480.4,147.2c-1.5,0-2.6-0.4-3.4-1.2c-0.8-0.8-1.2-2-1.2-3.6v-11.5h-2.2
				c-0.2,0-0.4-0.1-0.5-0.2c-0.1-0.1-0.2-0.3-0.2-0.5v-1.3l3.1-0.4l0.7-5.8c0-0.2,0.1-0.3,0.2-0.5c0.1-0.1,0.3-0.2,0.5-0.2h1.7v6.5
				h5.4v2.4h-5.4v11.3c0,0.8,0.2,1.4,0.6,1.8c0.4,0.4,0.9,0.6,1.5,0.6c0.3,0,0.6,0,0.9-0.1c0.2-0.1,0.5-0.2,0.7-0.3
				c0.2-0.1,0.3-0.2,0.5-0.3c0.1-0.1,0.2-0.2,0.3-0.2c0.2,0,0.3,0.1,0.5,0.3l1,1.6c-0.6,0.5-1.2,0.9-2,1.3
				C482,147.1,481.2,147.2,480.4,147.2z"/>
		</g>
		<g id="XMLID_1167_">
			<path id="XMLID_1168_" class="st1" d="M502.2,146.9h-1.4c-0.3,0-0.6-0.1-0.8-0.1c-0.2-0.1-0.3-0.3-0.4-0.6l-0.4-1.8
				c-0.5,0.5-1,0.8-1.4,1.2c-0.5,0.3-0.9,0.7-1.5,0.9c-0.5,0.2-1.1,0.4-1.7,0.5c-0.6,0.1-1.2,0.2-1.9,0.2c-0.7,0-1.4-0.1-2-0.3
				c-0.6-0.2-1.2-0.5-1.6-0.9c-0.5-0.4-0.8-0.9-1.1-1.5c-0.3-0.6-0.4-1.4-0.4-2.2c0-0.7,0.2-1.5,0.6-2.2c0.4-0.7,1.1-1.3,2-1.8
				c0.9-0.5,2.1-1,3.5-1.3c1.5-0.3,3.3-0.5,5.4-0.5v-1.5c0-1.5-0.3-2.6-0.9-3.3c-0.6-0.8-1.5-1.1-2.8-1.1c-0.8,0-1.5,0.1-2,0.3
				c-0.6,0.2-1,0.4-1.4,0.7c-0.4,0.3-0.7,0.5-1,0.7c-0.3,0.2-0.6,0.3-0.9,0.3c-0.2,0-0.4-0.1-0.6-0.2c-0.2-0.1-0.3-0.3-0.4-0.4
				l-0.6-1.1c1-1,2.1-1.7,3.3-2.2c1.2-0.5,2.5-0.7,4-0.7c1,0,2,0.2,2.8,0.5c0.8,0.3,1.5,0.8,2.1,1.4c0.5,0.6,1,1.4,1.2,2.2
				c0.3,0.9,0.4,1.8,0.4,2.9V146.9z M493.7,144.9c0.6,0,1.1-0.1,1.6-0.2c0.5-0.1,0.9-0.3,1.3-0.5c0.4-0.2,0.8-0.5,1.2-0.8
				c0.4-0.3,0.8-0.7,1.1-1.1v-3.9c-1.5,0-2.8,0.1-3.9,0.3c-1.1,0.2-1.9,0.4-2.6,0.7c-0.7,0.3-1.1,0.7-1.5,1.1
				c-0.3,0.4-0.4,0.9-0.4,1.4c0,0.5,0.1,0.9,0.2,1.3c0.2,0.4,0.4,0.7,0.6,0.9c0.3,0.2,0.6,0.4,1,0.5
				C492.8,144.8,493.2,144.9,493.7,144.9z"/>
		</g>
		<g id="XMLID_1164_">
			<path id="XMLID_1165_" class="st1" d="M510,128.1v12c0,1.4,0.3,2.5,1,3.3c0.7,0.8,1.6,1.2,3,1.2c0.9,0,1.9-0.2,2.7-0.7
				c0.8-0.5,1.6-1.1,2.3-1.9v-13.9h3.3v18.8h-2c-0.5,0-0.7-0.2-0.9-0.7l-0.3-2c-0.8,0.9-1.7,1.6-2.7,2.2c-1,0.5-2.2,0.8-3.5,0.8
				c-1,0-1.9-0.2-2.7-0.5c-0.8-0.3-1.4-0.8-2-1.4c-0.5-0.6-0.9-1.4-1.2-2.2c-0.3-0.9-0.4-1.8-0.4-2.9v-12H510z"/>
		</g>
		<g id="XMLID_1161_">
			<path id="XMLID_1162_" class="st1" d="M527.7,146.9v-18.8h1.9c0.4,0,0.6,0.1,0.7,0.2c0.1,0.1,0.2,0.4,0.3,0.7l0.2,2.9
				c0.6-1.3,1.4-2.3,2.4-3.1c0.9-0.7,2-1.1,3.3-1.1c0.5,0,1,0.1,1.4,0.2c0.4,0.1,0.8,0.3,1.2,0.5l-0.4,2.5c-0.1,0.3-0.3,0.5-0.6,0.5
				c-0.2,0-0.4-0.1-0.8-0.2c-0.4-0.1-0.9-0.2-1.5-0.2c-1.1,0-2.1,0.3-2.9,1c-0.8,0.7-1.4,1.6-1.9,2.9v12H527.7z"/>
		</g>
		<g id="XMLID_1157_">
			<path id="XMLID_1158_" class="st1" d="M555.6,146.9h-1.5c-0.3,0-0.6-0.1-0.8-0.1c-0.2-0.1-0.3-0.3-0.4-0.6l-0.4-1.8
				c-0.5,0.5-1,0.8-1.4,1.2c-0.5,0.3-1,0.7-1.5,0.9c-0.5,0.2-1.1,0.4-1.7,0.5c-0.6,0.1-1.2,0.2-2,0.2c-0.7,0-1.4-0.1-2-0.3
				c-0.6-0.2-1.2-0.5-1.7-0.9c-0.5-0.4-0.8-0.9-1.1-1.5c-0.3-0.6-0.4-1.4-0.4-2.2c0-0.7,0.2-1.5,0.6-2.2c0.4-0.7,1.1-1.3,2-1.8
				c0.9-0.5,2.1-1,3.5-1.3c1.5-0.3,3.2-0.5,5.4-0.5v-1.5c0-1.5-0.3-2.6-0.9-3.3c-0.6-0.8-1.5-1.1-2.8-1.1c-0.8,0-1.5,0.1-2,0.3
				c-0.5,0.2-1,0.4-1.4,0.7c-0.4,0.3-0.7,0.5-1,0.7c-0.3,0.2-0.6,0.3-0.9,0.3c-0.2,0-0.4-0.1-0.6-0.2c-0.2-0.1-0.3-0.3-0.4-0.4
				l-0.6-1.1c1-1,2.2-1.7,3.3-2.2c1.2-0.5,2.5-0.7,4-0.7c1,0,2,0.2,2.8,0.5c0.8,0.3,1.5,0.8,2,1.4c0.6,0.6,1,1.4,1.3,2.2
				c0.3,0.9,0.4,1.8,0.4,2.9V146.9z M547.1,144.9c0.6,0,1.1-0.1,1.6-0.2c0.5-0.1,0.9-0.3,1.4-0.5c0.4-0.2,0.8-0.5,1.2-0.8
				c0.4-0.3,0.8-0.7,1.1-1.1v-3.9c-1.5,0-2.8,0.1-3.9,0.3c-1.1,0.2-1.9,0.4-2.6,0.7c-0.7,0.3-1.1,0.7-1.5,1.1
				c-0.3,0.4-0.4,0.9-0.4,1.4c0,0.5,0.1,0.9,0.2,1.3c0.2,0.4,0.4,0.7,0.6,0.9c0.3,0.2,0.6,0.4,1,0.5
				C546.2,144.8,546.6,144.9,547.1,144.9z"/>
		</g>
		<g id="XMLID_1154_">
			<path id="XMLID_1155_" class="st1" d="M560.6,146.9v-18.8h2c0.5,0,0.8,0.2,0.9,0.7l0.3,2.1c0.8-0.9,1.7-1.6,2.7-2.2
				c1-0.6,2.2-0.8,3.5-0.8c1,0,1.9,0.2,2.7,0.5c0.8,0.3,1.4,0.8,1.9,1.5c0.5,0.6,0.9,1.4,1.2,2.2c0.3,0.9,0.4,1.8,0.4,2.9v12h-3.3
				v-12c0-1.4-0.3-2.5-1-3.3c-0.7-0.8-1.6-1.2-3-1.2c-1,0-1.9,0.2-2.7,0.7c-0.8,0.5-1.6,1.1-2.3,1.9v13.8H560.6z"/>
		</g>
		<g id="XMLID_1151_">
			<path id="XMLID_1152_" class="st1" d="M586.7,147.2c-1.5,0-2.6-0.4-3.4-1.2c-0.8-0.8-1.2-2-1.2-3.6v-11.5h-2.2
				c-0.2,0-0.4-0.1-0.5-0.2c-0.1-0.1-0.2-0.3-0.2-0.5v-1.3l3.1-0.4l0.8-5.8c0-0.2,0.1-0.3,0.2-0.5c0.1-0.1,0.3-0.2,0.5-0.2h1.7v6.5
				h5.4v2.4h-5.4v11.3c0,0.8,0.2,1.4,0.6,1.8c0.4,0.4,0.9,0.6,1.5,0.6c0.3,0,0.6,0,0.9-0.1c0.2-0.1,0.5-0.2,0.7-0.3
				c0.2-0.1,0.3-0.2,0.5-0.3c0.1-0.1,0.2-0.2,0.3-0.2c0.2,0,0.3,0.1,0.5,0.3l1,1.6c-0.6,0.5-1.2,0.9-2,1.3
				C588.4,147.1,587.6,147.2,586.7,147.2z"/>
		</g>
		<g id="XMLID_1148_">
			<path id="XMLID_1149_" class="st1" d="M616,124.5c-0.1,0.2-0.2,0.3-0.3,0.4c-0.1,0.1-0.3,0.1-0.5,0.1c-0.2,0-0.5-0.1-0.7-0.3
				c-0.3-0.2-0.6-0.4-1-0.7c-0.4-0.3-0.9-0.5-1.6-0.7c-0.6-0.2-1.3-0.3-2.2-0.3c-0.8,0-1.5,0.1-2.1,0.3c-0.6,0.2-1.1,0.5-1.5,0.9
				c-0.4,0.4-0.7,0.8-0.9,1.3c-0.2,0.5-0.3,1.1-0.3,1.6c0,0.7,0.2,1.4,0.6,1.8c0.3,0.5,0.8,0.9,1.4,1.3c0.6,0.4,1.3,0.6,2,0.9
				c0.8,0.3,1.5,0.5,2.3,0.8c0.8,0.3,1.6,0.6,2.3,0.9c0.7,0.3,1.4,0.8,2,1.3c0.6,0.5,1.1,1.2,1.4,1.9c0.4,0.8,0.5,1.7,0.5,2.8
				c0,1.2-0.2,2.3-0.6,3.3c-0.4,1-1,1.9-1.7,2.7c-0.8,0.8-1.7,1.3-2.8,1.8c-1.1,0.4-2.3,0.7-3.8,0.7c-1.7,0-3.3-0.3-4.7-0.9
				c-1.4-0.6-2.6-1.5-3.6-2.5l1-1.7c0.1-0.1,0.2-0.3,0.4-0.4c0.1-0.1,0.3-0.1,0.5-0.1c0.3,0,0.6,0.1,0.9,0.4
				c0.3,0.3,0.7,0.6,1.2,0.9c0.5,0.3,1.1,0.6,1.8,0.9c0.7,0.3,1.6,0.4,2.6,0.4c0.8,0,1.6-0.1,2.3-0.3c0.7-0.2,1.2-0.6,1.7-1
				c0.4-0.4,0.8-0.9,1.1-1.5c0.2-0.6,0.4-1.3,0.4-2c0-0.8-0.2-1.5-0.5-2c-0.4-0.5-0.8-0.9-1.4-1.3c-0.6-0.3-1.3-0.6-2-0.9
				c-0.8-0.2-1.5-0.5-2.3-0.8c-0.8-0.2-1.6-0.5-2.3-0.9c-0.8-0.3-1.4-0.8-2-1.3c-0.6-0.5-1.1-1.2-1.4-2c-0.4-0.8-0.6-1.8-0.6-3
				c0-0.9,0.2-1.8,0.6-2.7c0.4-0.9,0.9-1.7,1.6-2.3c0.7-0.7,1.5-1.2,2.5-1.6c1-0.4,2.2-0.6,3.5-0.6c1.5,0,2.8,0.2,4,0.7
				c1.2,0.5,2.3,1.1,3.2,2L616,124.5z"/>
		</g>
		<g id="XMLID_1144_">
			<path id="XMLID_1145_" class="st1" d="M629.1,127.8c1.4,0,2.6,0.2,3.7,0.7c1.1,0.5,2,1.1,2.8,2c0.8,0.8,1.4,1.9,1.8,3.1
				c0.4,1.2,0.6,2.5,0.6,4c0,1.5-0.2,2.8-0.6,4c-0.4,1.2-1,2.2-1.8,3c-0.8,0.8-1.7,1.5-2.8,1.9c-1.1,0.5-2.3,0.7-3.7,0.7
				c-1.4,0-2.6-0.2-3.7-0.7c-1.1-0.4-2-1.1-2.8-1.9c-0.8-0.8-1.4-1.9-1.8-3c-0.4-1.2-0.6-2.5-0.6-4c0-1.5,0.2-2.8,0.6-4
				c0.4-1.2,1-2.2,1.8-3.1c0.8-0.8,1.7-1.5,2.8-2C626.5,128,627.7,127.8,629.1,127.8z M629.1,144.6c1.8,0,3.2-0.6,4.1-1.9
				c0.9-1.2,1.4-3,1.4-5.2c0-2.2-0.4-4-1.4-5.2c-0.9-1.3-2.3-1.9-4.1-1.9c-0.9,0-1.7,0.2-2.4,0.5c-0.7,0.3-1.3,0.8-1.7,1.4
				c-0.5,0.6-0.8,1.4-1,2.2c-0.2,0.9-0.4,1.9-0.4,3c0,1.1,0.1,2.1,0.4,3c0.2,0.9,0.6,1.6,1,2.2c0.5,0.6,1,1.1,1.7,1.4
				C627.3,144.4,628.1,144.6,629.1,144.6z"/>
		</g>
		<g id="XMLID_1141_">
			<path id="XMLID_1142_" class="st1" d="M645.7,119.6v27.3h-3.3v-27.3H645.7z"/>
		</g>
		<g id="XMLID_1138_">
			<path id="XMLID_1139_" class="st1" d="M654.3,128.1v12c0,1.4,0.3,2.5,1,3.3c0.7,0.8,1.6,1.2,3,1.2c1,0,1.9-0.2,2.7-0.7
				c0.8-0.5,1.6-1.1,2.3-1.9v-13.9h3.3v18.8h-2c-0.5,0-0.8-0.2-0.9-0.7l-0.3-2c-0.8,0.9-1.7,1.6-2.7,2.2c-1,0.5-2.2,0.8-3.5,0.8
				c-1,0-1.9-0.2-2.7-0.5c-0.8-0.3-1.4-0.8-2-1.4c-0.5-0.6-0.9-1.4-1.2-2.2c-0.3-0.9-0.4-1.8-0.4-2.9v-12H654.3z"/>
		</g>
		<g id="XMLID_1135_">
			<path id="XMLID_1136_" class="st1" d="M677.6,147.2c-1.5,0-2.6-0.4-3.4-1.2c-0.8-0.8-1.2-2-1.2-3.6v-11.5h-2.2
				c-0.2,0-0.4-0.1-0.5-0.2c-0.1-0.1-0.2-0.3-0.2-0.5v-1.3l3.1-0.4l0.8-5.8c0-0.2,0.1-0.3,0.2-0.5c0.1-0.1,0.3-0.2,0.5-0.2h1.7v6.5
				h5.3v2.4h-5.3v11.3c0,0.8,0.2,1.4,0.6,1.8c0.4,0.4,0.9,0.6,1.5,0.6c0.3,0,0.6,0,0.9-0.1c0.2-0.1,0.5-0.2,0.7-0.3
				c0.2-0.1,0.3-0.2,0.5-0.3c0.1-0.1,0.2-0.2,0.3-0.2c0.2,0,0.3,0.1,0.5,0.3l1,1.6c-0.6,0.5-1.2,0.9-2,1.3
				C679.3,147.1,678.5,147.2,677.6,147.2z"/>
		</g>
		<g id="XMLID_1131_">
			<path id="XMLID_1132_" class="st1" d="M690.1,122.2c0,0.3-0.1,0.6-0.2,0.9c-0.1,0.3-0.3,0.5-0.5,0.7c-0.2,0.2-0.5,0.4-0.7,0.5
				c-0.3,0.1-0.6,0.2-0.9,0.2c-0.3,0-0.6-0.1-0.9-0.2c-0.3-0.1-0.5-0.3-0.7-0.5c-0.2-0.2-0.4-0.5-0.5-0.7c-0.1-0.3-0.2-0.6-0.2-0.9
				c0-0.3,0.1-0.6,0.2-0.9c0.1-0.3,0.3-0.5,0.5-0.8c0.2-0.2,0.5-0.4,0.7-0.5c0.3-0.1,0.6-0.2,0.9-0.2c0.3,0,0.6,0.1,0.9,0.2
				c0.3,0.1,0.5,0.3,0.7,0.5c0.2,0.2,0.4,0.5,0.5,0.8C690.1,121.6,690.1,121.9,690.1,122.2z M689.4,128.1v18.8h-3.3v-18.8H689.4z"/>
		</g>
		<g id="XMLID_1127_">
			<path id="XMLID_1128_" class="st1" d="M702.7,127.8c1.4,0,2.6,0.2,3.7,0.7c1.1,0.5,2,1.1,2.8,2c0.8,0.8,1.3,1.9,1.8,3.1
				c0.4,1.2,0.6,2.5,0.6,4c0,1.5-0.2,2.8-0.6,4c-0.4,1.2-1,2.2-1.8,3c-0.8,0.8-1.7,1.5-2.8,1.9c-1.1,0.5-2.3,0.7-3.7,0.7
				c-1.4,0-2.6-0.2-3.7-0.7c-1.1-0.4-2-1.1-2.8-1.9c-0.8-0.8-1.4-1.9-1.8-3c-0.4-1.2-0.6-2.5-0.6-4c0-1.5,0.2-2.8,0.6-4
				c0.4-1.2,1-2.2,1.8-3.1c0.8-0.8,1.7-1.5,2.8-2C700.1,128,701.4,127.8,702.7,127.8z M702.7,144.6c1.8,0,3.2-0.6,4.1-1.9
				c0.9-1.2,1.4-3,1.4-5.2c0-2.2-0.4-4-1.4-5.2c-0.9-1.3-2.3-1.9-4.1-1.9c-0.9,0-1.7,0.2-2.4,0.5c-0.7,0.3-1.3,0.8-1.7,1.4
				c-0.5,0.6-0.8,1.4-1,2.2c-0.2,0.9-0.3,1.9-0.3,3c0,1.1,0.1,2.1,0.3,3c0.2,0.9,0.6,1.6,1,2.2c0.5,0.6,1,1.1,1.7,1.4
				C701,144.4,701.8,144.6,702.7,144.6z"/>
		</g>
		<g id="XMLID_1124_">
			<path id="XMLID_1125_" class="st1" d="M715.7,146.9v-18.8h2c0.5,0,0.8,0.2,0.9,0.7l0.3,2.1c0.8-0.9,1.7-1.6,2.7-2.2
				c1-0.6,2.2-0.8,3.5-0.8c1,0,1.9,0.2,2.7,0.5c0.8,0.3,1.4,0.8,2,1.5c0.5,0.6,0.9,1.4,1.2,2.2c0.3,0.9,0.4,1.8,0.4,2.9v12H728v-12
				c0-1.4-0.3-2.5-1-3.3c-0.7-0.8-1.6-1.2-3-1.2c-1,0-1.9,0.2-2.7,0.7c-0.9,0.5-1.6,1.1-2.3,1.9v13.8H715.7z"/>
		</g>
		<g id="XMLID_1121_">
			<path id="XMLID_1122_" class="st1" d="M746.9,131.2c-0.2,0.3-0.4,0.4-0.7,0.4c-0.2,0-0.4-0.1-0.6-0.2c-0.2-0.1-0.5-0.3-0.9-0.5
				c-0.3-0.2-0.7-0.3-1.2-0.5c-0.5-0.2-1-0.2-1.7-0.2c-0.6,0-1.1,0.1-1.5,0.2c-0.5,0.1-0.8,0.3-1.1,0.6c-0.3,0.3-0.6,0.5-0.7,0.9
				c-0.2,0.3-0.3,0.7-0.3,1.1c0,0.5,0.1,0.9,0.4,1.2c0.3,0.3,0.6,0.6,1.1,0.8c0.5,0.2,1,0.4,1.5,0.6c0.6,0.2,1.2,0.4,1.8,0.6
				c0.6,0.2,1.2,0.4,1.8,0.7c0.6,0.2,1.1,0.6,1.6,0.9c0.4,0.4,0.8,0.8,1.1,1.4c0.3,0.5,0.4,1.2,0.4,1.9c0,0.9-0.1,1.7-0.4,2.4
				c-0.3,0.7-0.8,1.4-1.4,1.9c-0.6,0.5-1.3,1-2.2,1.3c-0.9,0.3-1.9,0.5-3,0.5c-1.3,0-2.5-0.2-3.5-0.6c-1.1-0.4-2-1-2.7-1.7l0.8-1.2
				c0.1-0.2,0.2-0.3,0.3-0.4c0.1-0.1,0.3-0.1,0.5-0.1c0.2,0,0.5,0.1,0.7,0.3c0.2,0.2,0.5,0.4,0.9,0.6c0.3,0.2,0.8,0.4,1.3,0.6
				c0.5,0.2,1.1,0.3,1.9,0.3c0.6,0,1.2-0.1,1.7-0.3c0.5-0.2,0.9-0.4,1.2-0.7c0.3-0.3,0.6-0.6,0.7-1c0.2-0.4,0.2-0.8,0.2-1.2
				c0-0.5-0.1-1-0.4-1.3c-0.3-0.3-0.6-0.6-1.1-0.9c-0.4-0.2-1-0.5-1.6-0.6c-0.6-0.2-1.2-0.4-1.8-0.6c-0.6-0.2-1.2-0.4-1.8-0.7
				c-0.6-0.3-1.1-0.6-1.5-1c-0.5-0.4-0.8-0.9-1.1-1.4c-0.3-0.6-0.4-1.2-0.4-2c0-0.7,0.1-1.4,0.4-2.1c0.3-0.7,0.7-1.2,1.3-1.7
				c0.6-0.5,1.3-0.9,2.1-1.2c0.8-0.3,1.8-0.4,2.8-0.4c1.2,0,2.3,0.2,3.3,0.6c1,0.4,1.8,0.9,2.5,1.6L746.9,131.2z"/>
		</g>
	</g>
	<g id="XMLID_1116_">
		<path id="XMLID_1117_" class="st0" d="M66.3,4.2H6.7c-2.9,0-5.3,2.4-5.3,5.3v59.6c0,2.9,2.4,5.3,5.3,5.3h59.6
			c2.9,0,5.3-2.4,5.3-5.3V9.5C71.6,6.6,69.2,4.2,66.3,4.2z M61.8,43.3H40.2v21.6H35V43.3H13.4v-5.2H35V16.5h5.2v21.6h21.6V43.3z"/>
	</g>
	<path id="XMLID_1112_" class="st0" d="M66.3,78.9H6.7c-2.9,0-5.3,2.4-5.3,5.3v59.6c0,2.9,2.4,5.3,5.3,5.3h59.6
		c2.9,0,5.3-2.4,5.3-5.3V84.2C71.6,81.3,69.2,78.9,66.3,78.9z M61.8,124.9H13.4v-5.2h48.4V124.9z M61.8,108.1H13.4v-5.2h48.4V108.1z
		"/>
	<g id="XMLID_1108_">
		<path id="XMLID_1109_" class="st0" d="M140.7,4.2H81.1c-2.9,0-5.3,2.4-5.3,5.3v59.6c0,2.9,2.4,5.3,5.3,5.3h59.6
			c2.9,0,5.3-2.4,5.3-5.3V9.5C146,6.6,143.6,4.2,140.7,4.2z M130.5,62.8l-18.4-18.4L93.7,62.7L90,59l18.4-18.4L90.1,22.3l3.7-3.7
			L112.1,37l18.4-18.4l3.7,3.7l-18.4,18.4l18.4,18.4L130.5,62.8z"/>
	</g>
	<path id="XMLID_1105_" class="st1" d="M140.7,78.9H81.1c-2.9,0-5.3,2.4-5.3,5.3v59.6c0,2.9,2.4,5.3,5.3,5.3h59.6
		c2.9,0,5.3-2.4,5.3-5.3V84.2C146,81.3,143.6,78.9,140.7,78.9z M116.9,134.3l-3.9-3.5l13.7-15.1H89.3v-5.2h38.9l-15.1-15.1l3.7-3.7
		L137,112L116.9,134.3z"/>
	<path id="XMLID_1102_" class="st0" d="M765.1,48.6c-5,0.1-9.6-4.1-9.5-9.5c0.1-5.2,4.2-9.3,9.6-9.3c4.9-0.1,9.6,4.1,9.4,9.8
		C774.4,44.8,770,48.8,765.1,48.6z M773,39.2c0.2-5.4-4.9-9.5-10.3-7.8c-4,1.3-6.2,5.6-5.1,9.9c1.1,4.1,4.8,6.6,9,5.9
		C770.3,46.6,773,43.3,773,39.2z"/>
	<path id="XMLID_1099_" class="st0" d="M761.5,33.8c1.9,0,3.7-0.1,5.6,0c1.5,0.1,2.4,1.2,2.5,2.7c0.1,1.9-0.6,2.8-2.3,3.2
		c-0.2,0-0.3,0.1-0.6,0.2c1,1.6,2,3.1,3,4.7c-1.2,0.4-1.6,0.2-2.2-0.8c-0.6-1-1.3-2-1.9-3.1c-0.3-0.5-0.7-0.8-1.3-0.7
		c-0.3,0.1-0.7,0-1.1,0c0,0.6,0,1.2,0,1.7c0,0.7,0,1.4,0,2.1c0,1,0,1-1,1c-0.5,0-0.6-0.2-0.6-0.6c0-3.3,0-6.6,0-9.9
		C761.5,34,761.5,33.9,761.5,33.8z M763.1,38.5c1.2,0,2.3,0.1,3.4,0c1-0.1,1.4-0.8,1.4-1.8c0-0.9-0.6-1.5-1.5-1.6
		c-0.9-0.1-1.9-0.1-2.8-0.1c-0.2,0-0.5,0.2-0.5,0.4C763.1,36.4,763.1,37.4,763.1,38.5z"/>
</g>
</svg>
