<?xml version="1.0" encoding="utf-8"?>
<!-- Generator: Adobe Illustrator 21.0.0, SVG Export Plug-In . SVG Version: 6.00 Build 0)  -->
<svg version="1.1" id="Layer_1" xmlns="http://www.w3.org/2000/svg" xmlns:xlink="http://www.w3.org/1999/xlink" x="0px" y="0px"
	 viewBox="0 0 998.1 144" style="enable-background:new 0 0 998.1 144;" xml:space="preserve">
<g>
	<g>
		<path d="M16,16h33.7c4.1,0,8.4,0.5,12.8,1.4C67,18.3,71,20,74.7,22.3s6.7,5.5,9.1,9.5s3.6,9.1,3.6,15.1c0,5.3-1,9.9-2.9,13.7
			c-1.9,3.9-4.5,7-7.8,9.5s-7,4.3-11.2,5.5s-8.7,1.8-13.3,1.8H27V133H16V16z M27,67.6h24.8c3.1,0,6.1-0.4,9.1-1.1
			c3-0.7,5.6-1.9,7.9-3.5s4.2-3.7,5.6-6.4c1.4-2.6,2.1-5.9,2.1-9.8c0-3.7-0.7-6.9-2.2-9.6c-1.5-2.6-3.4-4.8-5.8-6.5
			s-5.1-2.9-8.2-3.7c-3.1-0.8-6.2-1.2-9.3-1.2H27V67.6z"/>
		<path d="M97.7,16h30.8c1.5,0,3.6,0.1,6.3,0.2c2.6,0.1,5.5,0.4,8.6,1s6.2,1.4,9.4,2.6s6.1,3,8.6,5.3s4.6,5.2,6.3,8.8
			c1.7,3.5,2.5,7.8,2.5,12.9c0,5.6-1,10.3-2.9,13.9s-4.4,6.6-7.3,8.8c-2.9,2.3-6.1,3.9-9.7,5c-3.5,1.1-6.9,1.9-10.1,2.3l34.1,56.2
			h-12.4L129,77.5h-20.3V133h-11V16z M108.6,67.6h23.1c5.7,0,10.4-0.7,14-2.1s6.4-3.2,8.4-5.3c2-2.1,3.3-4.4,4.1-6.8
			c0.7-2.4,1.1-4.6,1.1-6.6s-0.4-4.2-1.1-6.6c-0.7-2.4-2.1-4.7-4.1-6.8c-2-2.1-4.8-3.9-8.4-5.3c-3.6-1.4-8.2-2.1-14-2.1h-23.1V67.6z
			"/>
		<path d="M174.9,74.5c0-8.9,1.5-17.1,4.5-24.6s7.1-14,12.4-19.4s11.7-9.7,19.1-12.8c7.4-3.1,15.6-4.6,24.6-4.6s17.1,1.5,24.6,4.6
			c7.4,3.1,13.8,7.4,19.1,12.8c5.3,5.5,9.4,11.9,12.4,19.4s4.5,15.7,4.5,24.6s-1.5,17.2-4.5,24.7c-3,7.6-7.1,14.1-12.4,19.5
			c-5.3,5.5-11.7,9.7-19.1,12.7s-15.6,4.5-24.6,4.5s-17.1-1.5-24.6-4.5c-7.4-3-13.8-7.3-19.1-12.7c-5.3-5.5-9.4-12-12.4-19.5
			S174.9,83.4,174.9,74.5z M185.8,74.5c0,7.3,1.2,14.1,3.5,20.3c2.3,6.3,5.6,11.7,9.9,16.4c4.3,4.6,9.5,8.3,15.6,10.9s13,4,20.6,4
			s14.5-1.3,20.6-4c6.1-2.7,11.3-6.3,15.6-10.9c4.3-4.6,7.6-10.1,9.9-16.4s3.5-13.1,3.5-20.3s-1.2-14.1-3.5-20.3s-5.6-11.7-9.9-16.4
			c-4.3-4.6-9.5-8.3-15.6-10.9s-13-4-20.6-4s-14.5,1.3-20.6,4c-6.1,2.6-11.3,6.3-15.6,10.9s-7.6,10.1-9.9,16.4
			S185.8,67.2,185.8,74.5z"/>
		<path d="M369.8,86.4l32.3,4.1c-3.8,13.2-10.2,24-19.4,32.4c-9.2,8.4-20.7,12.6-34.7,12.6c-15.1,0-27.1-5.1-36.1-15.4
			c-8.9-10.3-13.4-23.5-13.4-39.6c0-18.6,5.5-35.1,16.5-49.4s26.1-21.5,45.4-21.5c14,0,25.4,4.3,34,12.9c8.7,8.6,13.1,20,13.3,34.1
			l-34,2.5c-0.1-7.4-1.3-12.9-3.4-16.6c-2.2-3.6-5.9-5.5-11-5.5c-8.9,0-15.1,6.6-18.3,19.9s-4.9,23.7-4.9,31.3
			c0,12.4,4.8,18.5,14.5,18.5c4.8,0,8.6-1.6,11.6-4.8C365.2,98.8,367.7,93.6,369.8,86.4z"/>
		<path d="M475.7,84.6h-31.3l-8.1,48.5h-35l20.1-120.5h35L449,56.9h31.3l7.4-44.3h35L502.6,133h-35L475.7,84.6z"/>
		<path d="M580.8,108.4h-32.3L537.3,133h-29.9l55.8-120.5H601L619.7,133h-35.6L580.8,108.4z M578.6,83.5l-4.8-34.9L558,83.5H578.6z"
			/>
		<path d="M712.5,82.5l13,50.5h-35.7l-10.6-45.8h-14.3l-7.7,45.8H623l20.1-120.5h52.6c14.3,0,24.9,3.1,31.8,9.4
			c6.9,6.3,10.3,14.8,10.3,25.6C737.9,64.7,729.4,76.4,712.5,82.5z M669.3,62.1h13.6c13,0,19.5-4.4,19.5-13.2
			c0-7.4-5.5-11.1-16.4-11.1h-12.6L669.3,62.1z"/>
		<path d="M795.2,67h53.2l-11,66H820l-1.1-13.2c-6.8,10.4-17.7,15.6-32.7,15.6c-11,0-19.9-2.4-26.8-7.1
			c-6.9-4.7-12.3-10.8-16.1-18.2c-3.8-7.4-5.7-16.2-5.7-26.3c0-20.2,5.7-37.7,17.2-52.3c11.5-14.6,26.8-21.9,45.9-21.9
			c27,0,43.9,12.9,50.8,38.8l-33.1,5.4c-2.3-10.7-8.3-16.1-18.1-16.1c-8.8,0-15.2,5.5-19,16.4s-5.7,21.7-5.7,32.1
			c0,14,5.5,21,16.6,21c8.7,0,14.8-5,18.5-14.9h-19.8L795.2,67z"/>
		<path d="M943,105.3l-4.7,27.7h-88.8l20.1-120.5h86.6l-4.4,26.4h-51.7L897,57.8h43.4L936,83.9h-43.4l-3.5,21.4H943z"/>
	</g>
	<g>
		<path d="M967.7,27.6c0-1.8,0.4-3.6,1.1-5.2c0.7-1.6,1.7-3,2.9-4.2s2.6-2.2,4.2-2.9c1.6-0.7,3.3-1.1,5.2-1.1c1.8,0,3.6,0.4,5.2,1.1
			c1.6,0.7,3,1.7,4.2,2.9c1.2,1.2,2.2,2.6,2.9,4.2s1.1,3.3,1.1,5.2c0,1.8-0.4,3.6-1.1,5.2c-0.7,1.6-1.7,3-2.9,4.2s-2.6,2.2-4.2,2.9
			c-1.6,0.7-3.3,1.1-5.2,1.1c-1.8,0-3.6-0.4-5.2-1.1c-1.6-0.7-3-1.7-4.2-2.9c-1.2-1.2-2.2-2.6-2.9-4.2
			C968,31.2,967.7,29.4,967.7,27.6z M969.6,27.6c0,1.6,0.3,3,0.9,4.4c0.6,1.4,1.4,2.6,2.4,3.6s2.2,1.8,3.6,2.4
			c1.4,0.6,2.9,0.9,4.4,0.9s3-0.3,4.4-0.9s2.6-1.4,3.6-2.4s1.8-2.2,2.4-3.6c0.6-1.4,0.9-2.9,0.9-4.4s-0.3-3-0.9-4.4
			c-0.6-1.4-1.4-2.6-2.4-3.6s-2.2-1.8-3.6-2.4c-1.4-0.6-2.9-0.9-4.4-0.9s-3,0.3-4.4,0.9s-2.6,1.4-3.6,2.4s-1.8,2.2-2.4,3.6
			C969.9,24.6,969.6,26,969.6,27.6z M978.1,35.2h-1.9V19.9h5.9c1.7,0,3,0.4,3.7,1.1s1.1,1.8,1.1,3.2c0,0.7-0.1,1.3-0.3,1.8
			s-0.5,0.9-0.8,1.3c-0.4,0.3-0.8,0.6-1.2,0.8c-0.5,0.2-1,0.4-1.5,0.4l4.6,6.7h-2.2l-4.6-6.7h-2.7L978.1,35.2L978.1,35.2z
			 M978.1,26.8h2.5c0.5,0,1,0,1.6-0.1c0.5,0,1-0.1,1.4-0.3c0.4-0.2,0.8-0.4,1-0.8c0.3-0.3,0.4-0.8,0.4-1.5c0-0.5-0.1-0.9-0.3-1.2
			c-0.2-0.3-0.5-0.6-0.8-0.8c-0.3-0.2-0.7-0.3-1.1-0.4c-0.4-0.1-0.8-0.1-1.2-0.1h-3.4v5.2H978.1z"/>
	</g>
</g>
</svg>
