<?xml version="1.0" encoding="utf-8"?>
<!-- Generator: Adobe Illustrator 18.1.1, SVG Export Plug-In . SVG Version: 6.00 Build 0)  -->
<svg version="1.1" id="Layer_1" xmlns="http://www.w3.org/2000/svg" xmlns:xlink="http://www.w3.org/1999/xlink" x="0px" y="0px"
	 viewBox="0 0 291.9 51" enable-background="new 0 0 291.9 51" xml:space="preserve">
<g>
	<defs>
		<rect id="SVGID_1_" x="0.5" y="0.4" width="291" height="50.1"/>
	</defs>
	<clipPath id="SVGID_2_">
		<use xlink:href="#SVGID_1_"  overflow="visible"/>
	</clipPath>
	<path clip-path="url(#SVGID_2_)" fill="#040404" d="M180.1,31.3c0.1-1,0.1-1.8-0.1-2.6c-0.5-2.3-1.8-4.1-4.3-4.8
		c-3.4-0.9-6.5-0.4-8.9,2.1c-3.2,3.3-4.2,7.3-3.2,11.6c0.7,3,2.8,4.5,6.1,4.7c4,0.2,7.5-1.9,9.2-5.6C179.6,34.9,180,33,180.1,31.3
		 M173.7,15.2c3.4,0,6.8,0.5,9.8,2c4.5,2.3,7.1,5.9,7.8,10.7c0.5,3.3,0.1,6.5-1,9.6c-1.7,5-5,8.6-10,10.8c-5.8,2.5-11.9,2.9-18,1.1
		c-6-1.8-9.3-5.9-10.2-11.8c-0.6-4,0-7.9,1.8-11.6c2.7-5.5,7.3-8.7,13.4-10.1C169.4,15.4,171.5,15.2,173.7,15.2"/>
	<path clip-path="url(#SVGID_2_)" fill="#040404" d="M210.5,21.4c0.4,0,0.4-0.2,0.5-0.4c2.6-4.2,6.6-5.8,11.6-5.8
		c1.7,0,3.3,0.3,4.9,0.9c3.5,1.4,5.4,3.9,6.1,7.3c0.5,2.5,0.3,5-0.1,7.5c-1.1,6-2.5,12-3.7,18c-0.1,0.6-0.4,0.9-1,1.1
		c-1.7,0.5-3.4,0.7-5.2,0.4c-2.6-0.5-4-1.9-4.1-4.4c-0.1-1.5,0.3-3,0.6-4.5c0.7-3.3,1.4-6.6,2.1-9.9c0.1-0.6,0.2-1.2,0.3-1.7
		c0.6-3.3-2-6.1-6-5.6c-3.9,0.5-6.3,2.8-7.7,6.1c-0.6,1.5-0.8,3.1-1.1,4.6c-1,4.6-1.9,9.3-2.9,13.9c-0.1,0.6-0.4,1-1.1,1.1
		c-1.7,0.4-3.4,0.7-5.2,0.3c-2.5-0.5-3.9-1.9-4-4.4c-0.1-1.5,0.2-2.9,0.5-4.4c1.3-6.1,2.6-12.2,3.8-18.3c0.4-2,0.7-3.9,0.8-5.9
		c0.1-1.4,0.1-1.4,1.5-1.4c2.8,0,5.6,0,8.4,0c1.3,0,1.3-0.2,1.2,1.2C210.7,18.6,210.6,20,210.5,21.4"/>
	<path clip-path="url(#SVGID_2_)" fill="#040404" d="M249.8,29.6c4.5,0,8.9,0,13.3,0c0.7,0,0.8-0.3,0.8-0.8c0.1-2.2-1.1-4.4-3.7-5.2
		c-1-0.3-2.1-0.3-3.1-0.2C253.6,23.8,250.5,26.4,249.8,29.6 M248.8,36.3c0.2,2.4,1.5,4,3.5,5.1c1,0.6,2.2,0.9,3.4,1.2
		c3.6,0.7,7.2,0.3,10.8-0.6c0.7-0.2,1.5-0.4,2.3-0.6c0.2,2.5-0.6,4.5-2.5,6.1c-2,1.7-4.4,2.4-6.9,2.8c-3.7,0.5-7.4,0.4-11-0.8
		c-5.8-1.9-9.3-5.8-10.1-11.5c-1-6.3,0.8-11.9,5.2-16.8c3.5-3.8,8.1-5.6,13.4-5.9c2.8-0.2,5.6,0,8.3,0.9c5.6,1.8,8.7,5.5,9.5,11
		c0.4,2.8,0.1,5.5-0.5,8.2c-0.2,0.9-0.2,0.9-1.2,0.9c-7.2,0-14.4,0-21.6,0H248.8z"/>
	<path clip-path="url(#SVGID_2_)" fill="#040404" d="M48.5,29.6h5.3c2.6,0,5.2,0,7.8,0c0.9,0,0.9,0,0.9-0.9c0.1-2.5-1.5-4.6-3.9-5.1
		C55.1,22.8,50.1,24.2,48.5,29.6 M67.5,41.4c0.2,2.7-0.8,4.8-3,6.4c-1.9,1.4-4,2.1-6.3,2.4c-3.8,0.6-7.6,0.4-11.3-0.8
		c-6-2.1-9.3-6.2-10-12.2c-0.6-5.6,0.9-10.7,4.6-15.1c3.1-3.8,7.3-5.9,12.3-6.6c3.7-0.5,7.3-0.3,10.8,0.9c5,1.8,7.9,5.2,8.8,10.2
		c0.6,3.1,0.2,6.1-0.4,9.1c-0.1,0.5-0.3,0.6-0.8,0.6c-0.6,0-1.2,0-1.9,0c-7.1,0-14.3,0-21.4,0c-0.4,0-0.8-0.1-1.2,0.1
		c-0.1,1.4,0.5,2.5,1.4,3.5c1.2,1.3,2.7,2,4.4,2.5c2.8,0.7,5.5,0.8,8.4,0.3c1.7-0.3,3.5-0.6,5.1-1.2C67,41.4,67.2,41.4,67.5,41.4"/>
	<path clip-path="url(#SVGID_2_)" fill="#040404" d="M144.5,16c2.6,0,5,0,7.4,0c1.3,0,1.2-0.1,1,1.1c-0.5,2-0.8,4.1-1.3,6.1
		c-0.3,1.2,0,1-1.3,1c-2.2,0-4.5,0-6.7,0c-0.9,0-0.9,0-1,0.8c-1.7,7.9-3.3,15.8-4.9,23.7c-0.2,0.8-0.5,1.3-1.4,1.5
		c-1.1,0.2-2.2,0.4-3.4,0.4c-3.8-0.1-5.6-2.1-5.4-5.6c0.1-2.1,0.7-4.1,1.1-6.1c1-4.6,1.9-9.1,2.9-13.7c0.1-0.3,0.2-0.6,0-1h-5.4
		c0.1-1.3,0.5-2.5,0.7-3.8c0.3-1.3,0.5-2.5,0.8-3.8c0.1-0.5,0.3-0.7,0.9-0.7c1.3,0,2.6,0,3.9,0c1.1,0,1.1,0,1.3-1.1
		c0.3-1.5,0.6-3,1-4.4c0.7-2.5,1.9-4.8,4-6.7c2.4-2.2,5.4-3.2,8.7-3.4c2.9-0.1,5.8,0.1,8.6,0.6c1.1,0.2,1.1,0.2,0.9,1.2
		c-0.4,2-0.9,4-1.2,6c-0.2,0.9-0.4,0.8-1,0.7c-1.1-0.2-2.2-0.3-3.4-0.4c-2.9-0.1-4.8,1.1-5.7,3.7C144.9,13.4,144.7,14.6,144.5,16"/>
	<path clip-path="url(#SVGID_2_)" fill="#040404" d="M19.4,45.6c-1.8,2.7-4.1,4.2-7.2,4.7c-1.4,0.2-2.8,0.3-4.2,0.1
		c-3.5-0.5-5.7-2.3-6.9-5.4c-0.5-1.4-0.7-2.8-0.7-4.2c0-11.7,0-23.5,0-35.2c0-0.9,0-0.9,0.9-0.9c3.2,0,6.3,0,9.5,0
		c1,0,0.9,0,0.9,0.8c0,6.3,0,12.5,0,18.8c0,4.6,0,9.3,0,13.9c0,1,0.1,2.1,0.5,3.1c0.9,2.7,3,4.2,6,4.3
		C18.5,45.6,18.9,45.6,19.4,45.6"/>
	<path clip-path="url(#SVGID_2_)" fill="#040404" d="M92.4,21.3c0.3-0.2,0.4-0.5,0.5-0.8c2.2-3.5,5.4-5.3,9.7-5.2
		c1.3,0,2.6,0.2,3.8,0.5c0.4,0.1,0.6,0.3,0.5,0.7c-0.6,2.6-1.1,5.1-1.6,7.7c-0.2,0.8-0.2,0.8-1,0.6c-1.5-0.3-2.9-0.5-4.4-0.6
		c-2.7-0.1-5.3,0.3-7.2,2.4c-1,1-1.6,2.3-2.1,3.6c-0.8,2.1-1.1,4.2-1.6,6.4c-0.9,4.2-1.8,8.3-2.6,12.5c-0.1,0.5-0.4,0.8-0.9,1
		c-1.6,0.4-3.2,0.6-4.9,0.4c-3.3-0.4-4.6-2.4-4.5-5.4c0.1-1.8,0.6-3.6,1-5.3c1.3-6.2,2.7-12.4,3.8-18.7c0.2-1.4,0.4-2.9,0.5-4.3
		c0-0.5,0.1-0.7,0.7-0.7c3.2,0,6.5,0,9.7,0c0.5,0,0.7,0.2,0.6,0.7c-0.1,1.3-0.2,2.6-0.3,3.9C92.3,20.7,92.2,21,92.4,21.3"/>
	<path clip-path="url(#SVGID_2_)" fill="#2BAEE4" d="M46.6,4.7c0,0.5-0.3,0.8-0.5,1.1C38.5,17,31,28.3,23.4,39.6
		c-0.5,0.7-1,1.5-1.7,2.1c-1.2,1.1-2.7,1.3-4.2,0.8C16,42,15.2,41,15,39.6c-0.3-1.6-0.1-3.2-0.2-4.8c0-0.4,0.3-0.7,0.5-1
		c4.9-7.2,9.7-14.4,14.6-21.5c1.6-2.3,3.2-4.7,4.7-7c0.3-0.4,0.6-0.7,1.2-0.7c3.5,0,7,0,10.4,0C46.4,4.6,46.5,4.6,46.6,4.7"/>
	<path clip-path="url(#SVGID_2_)" fill="#040404" d="M122.9,16c-0.3,1.5-0.6,2.9-0.9,4.2c-1.5,7.3-3,14.5-4.6,21.8
		c-0.5,2.3-1,4.6-1.4,6.9c-0.1,0.6-0.4,0.9-1,1c-1.7,0.4-3.4,0.7-5.2,0.4c-2.4-0.4-3.8-1.8-4-4.1c-0.1-1.1,0-2.1,0.2-3.2
		c1.8-8.8,3.7-17.6,5.5-26.4c0.1-0.4,0.1-0.8,0.8-0.8C115.7,16,119.2,16,122.9,16"/>
	<path clip-path="url(#SVGID_2_)" fill="#040404" d="M112.9,10.6c0-1,0.3-2,0.5-2.9c0.3-1.7,0.7-3.3,1-5c0.1-0.4,0.1-0.8,0.8-0.7
		c3.4,0,6.8,0,10.2,0c0.1,0,0.2,0,0.4,0.1c-0.5,2.6-1.1,5.3-1.6,7.9c-0.1,0.3-0.2,0.6-0.7,0.6C120,10.6,116.5,10.6,112.9,10.6"/>
	<path clip-path="url(#SVGID_2_)" fill="#040404" d="M285.5,25c2.4,0,4.5-1.5,5.1-3.7c0.9-3.2-1.6-5.9-5-5.4c-2.2,0.4-3.9,1.9-4.3,4
		C280.6,22.7,282.5,25,285.5,25 M285.4,25.7c-3.3,0.2-5.6-2.8-4.9-5.8c0.7-2.9,3.4-4.8,6.5-4.6c3.2,0.2,5.2,3.2,4.2,6.3
		C290.4,24.1,288.1,25.7,285.4,25.7"/>
	<path clip-path="url(#SVGID_2_)" fill="#040404" d="M285.1,19.9c0.4,0.1,0.8,0.1,1.2,0.1c0.2,0,0.4,0,0.6-0.1
		c0.8-0.2,1.2-1,0.8-1.5c-0.5-0.6-1.3-0.5-1.9-0.5c-0.5,0-0.5,0.5-0.5,0.8C285.2,19.1,285,19.5,285.1,19.9 M286.6,20.6
		c0.4,0.8,0.7,1.6,1,2.3c0.1,0.2,0.2,0.4-0.1,0.4c-0.2,0.1-0.4,0-0.5-0.2c-0.3-0.7-0.6-1.4-0.9-2.1c-0.2-0.4-0.4-0.6-0.9-0.5
		c-0.5,0-0.5,0.4-0.5,0.7c-0.1,0.6-0.3,1.1-0.4,1.7c-0.1,0.2-0.2,0.4-0.5,0.4c-0.3-0.1-0.2-0.3-0.2-0.4c0.4-1.7,0.7-3.3,1-5
		c0.1-0.3,0.2-0.5,0.6-0.5c0.6,0,1.2,0,1.7,0.1c0.8,0.1,1.3,0.5,1.4,1.1c0.1,0.7-0.2,1.4-1,1.7C287.3,20.4,287,20.5,286.6,20.6"/>
</g>
</svg>
