<?xml version="1.0" standalone="no"?>
<!DOCTYPE svg PUBLIC "-//W3C//DTD SVG 20010904//EN"
 "http://www.w3.org/TR/2001/REC-SVG-20010904/DTD/svg10.dtd">
<svg version="1.0" xmlns="http://www.w3.org/2000/svg"
 width="206.000000pt" height="206.000000pt" viewBox="0 0 206.000000 206.000000"
 preserveAspectRatio="xMidYMid meet">
<metadata>
Created by potrace 1.11, written by Peter Selinger 2001-2013
</metadata>
<g transform="translate(0.000000,206.000000) scale(0.100000,-0.100000)"
fill="#000000" stroke="none">
<path d="M555 1822 c-22 -11 -54 -35 -71 -53 -61 -65 -92 -206 -63 -287 27
-79 183 -135 382 -136 31 -1 57 -2 57 -4 0 -2 -32 -38 -71 -80 -76 -83 -143
-183 -183 -275 l-26 -57 47 25 c54 28 63 30 63 13 0 -15 62 -118 71 -118 4 0
26 60 49 133 23 72 60 170 81 217 l39 85 0 -496 c0 -388 3 -498 13 -501 6 -2
50 -4 97 -3 l85 0 1 493 c1 271 4 495 6 498 13 12 131 -295 153 -393 3 -18 10
-33 13 -33 10 0 69 91 77 118 l7 23 44 -25 c56 -31 56 -21 4 80 -45 88 -96
156 -179 242 l-58 60 81 1 c69 1 127 10 231 36 53 13 109 52 128 89 37 71 18
207 -39 283 -13 17 -48 43 -79 58 -45 22 -64 26 -110 22 -89 -8 -169 -55 -242
-141 -33 -38 -81 -132 -89 -172 -6 -32 -9 -34 -44 -34 -33 0 -39 4 -45 28 -14
59 -69 153 -119 204 -101 103 -223 142 -311 100z m176 -178 c34 -16 76 -45 98
-69 40 -43 84 -118 75 -127 -2 -3 -28 -1 -56 4 -125 23 -227 83 -279 167 -26
41 -28 46 -12 52 33 11 117 -2 174 -27z m776 27 c17 -1 -19 -61 -65 -108 -44
-43 -160 -100 -219 -108 -23 -2 -48 -6 -55 -7 -36 -8 17 87 82 146 48 43 95
65 160 75 40 6 55 7 97 2z"/>
<path d="M211 1419 c-34 -4 -52 -14 -78 -42 -18 -20 -33 -48 -34 -62 0 -14 -1
-38 -2 -53 0 -15 2 -32 5 -38 4 -6 121 -9 301 -9 l294 0 28 34 c16 18 35 40
43 48 8 7 13 16 10 18 -2 2 -33 7 -68 10 -93 9 -177 32 -239 67 -46 26 -65 30
-135 31 -45 1 -101 -1 -125 -4z"/>
<path d="M1629 1415 c-93 -56 -164 -79 -282 -92 l-67 -8 26 -30 c66 -78 26
-70 354 -69 162 1 298 2 301 3 3 0 5 28 3 60 -2 67 -28 112 -75 131 -35 15
-237 19 -260 5z"/>
<path d="M99 1003 c0 -16 -1 -162 -1 -327 -1 -420 -39 -386 441 -387 194 0
356 2 358 5 4 4 7 637 4 719 -1 11 -9 17 -25 17 -22 0 -26 -9 -56 -125 l-33
-125 -34 38 c-18 20 -45 56 -59 80 -14 23 -31 42 -37 42 -5 0 -34 -18 -64 -40
-29 -23 -53 -36 -53 -31 0 5 11 42 25 83 14 40 25 74 25 76 0 1 -110 2 -245 2
l-245 0 -1 -27z"/>
<path d="M1170 660 l0 -370 351 0 c383 0 398 2 436 58 16 25 18 57 19 353 l2
327 -250 0 c-230 1 -249 -1 -243 -16 15 -39 45 -138 45 -152 0 -8 -17 3 -42
27 -73 69 -76 69 -118 4 -21 -31 -49 -66 -63 -79 l-25 -24 -11 49 c-18 75 -19
79 -37 137 -15 47 -21 56 -41 56 l-23 0 0 -370z"/>
</g>
</svg>
